{
.formatVersion = 3;
DisplayStrings = (
"/uni1362.vs17"
);
familyName = "ዋልድባ - ፋንትዋ";
customParameters = (
{
name = glyphOrder;
value = (
.notdef,
NULL,
uni000D,
uni0020,
uni0021,
uni0022,
uni0023,
uni0024,
uni0025,
uni0026,
uni0027,
uni0028,
uni0029,
uni002A,
uni002B,
uni002C,
uni002D,
uni002E,
uni002F,
uni0030,
uni0031,
uni0032,
uni0033,
uni0034,
uni0035,
uni0036,
uni0037,
uni0038,
uni0039,
uni003A,
uni003B,
uni003C,
uni003D,
uni003E,
uni003F,
uni0040,
uni0041,
uni0042,
uni0043,
uni0044,
uni0045,
uni0046,
uni0047,
uni0048,
uni0049,
uni004A,
uni004B,
uni004C,
uni004D,
uni004E,
uni004F,
uni0050,
uni0051,
uni0052,
uni0053,
uni0054,
uni0055,
uni0056,
uni0057,
uni0058,
uni0059,
uni005A,
uni005B,
uni005C,
uni005D,
uni005E,
uni005F,
uni0060,
uni0061,
uni0062,
uni0063,
uni0064,
uni0065,
uni0066,
uni0067,
uni0068,
uni0069,
uni006A,
uni006B,
uni006C,
uni006D,
uni006E,
uni006F,
uni0070,
uni0071,
uni0072,
uni0073,
uni0074,
uni0075,
uni0076,
uni0077,
uni0078,
uni0079,
uni007A,
uni007B,
uni007C,
uni007D,
uni007E,
uni00A1,
uni00A2,
uni00A3,
uni00A4,
uni00A5,
uni00A6,
uni00A7,
uni00A8,
uni00A9,
uni00AA,
uni00AB,
uni00AC,
uni00AE,
uni00AF,
uni00B0,
uni00B1,
uni00B2,
uni00B3,
uni00B4,
mu,
uni00B6,
uni00B7,
uni00B8,
uni00B9,
uni00BA,
uni00BB,
uni00BC,
uni00BD,
uni00BE,
uni00BF,
uni00C0,
uni00C1,
uni00C2,
uni00C3,
uni00C4,
uni00C5,
uni00C6,
uni00C7,
uni00C8,
uni00C9,
uni00CA,
uni00CB,
uni00CC,
uni00CD,
uni00CE,
uni00CF,
uni00D0,
uni00D1,
uni00D2,
uni00D3,
uni00D4,
uni00D5,
uni00D6,
uni00D7,
uni00D8,
uni00D9,
uni00DA,
uni00DB,
uni00DC,
uni00DD,
uni00DE,
uni00DF,
uni00E0,
uni00E1,
uni00E2,
uni00E3,
uni00E4,
uni00E5,
uni00E6,
uni00E7,
uni00E8,
uni00E9,
uni00EA,
uni00EB,
uni00EC,
uni00ED,
uni00EE,
uni00EF,
uni00F0,
uni00F1,
uni00F2,
uni00F3,
uni00F4,
uni00F5,
uni00F6,
uni00F7,
uni00F8,
uni00F9,
uni00FA,
uni00FB,
uni00FC,
uni00FD,
uni00FE,
uni00FF,
uni0152,
uni0153,
uni0160,
uni0161,
uni0178,
uni017D,
uni017E,
uni0192,
uni02C6,
uni02DC,
uni1200,
uni1201,
uni1202,
uni1203,
uni1204,

glyphs = (
{
glyphname = uni0021;
layers = (
{
layerId = "FD843F08-4597-4AFB-9C66-7B47690262C1";
shapes = (
{
closed = 1;
nodes = (
(624,244,o),
(532,163,o),
(532,104,qs),
(532,44,o),
(624,-39,o),
(691,-39,qs),
(757,-39,o),
(849,41,o),
(849,101,qs),
(849,161,o),
(760,244,o),
(691,244,qs)
);
},
{
closed = 1;
nodes = (
(744,444,l),
(787,1314,l),
(596,1314,l),
(638,444,l)
);
}
);
width = 1381;
}
);
unicode = 33;
},
{
glyphname = uni0022;
layers = (
{
layerId = "FD843F08-4597-4AFB-9C66-7B47690262C1";
shapes = (
{
closed = 1;
nodes = (
(1020,1296,l),
(801,1296,l),
(824,649,l),
(994,649,l)
);
},
{
closed = 1;
nodes = (
(580,1296,l),
(361,1296,l),
(387,649,l),
(557,649,l)
);
}
);
width = 1381;
}
);
unicode = 34;
},
{
glyphname = uni0023;
layers = (
{
layerId = "FD843F08-4597-4AFB-9C66-7B47690262C1";
shapes = (
{
closed = 1;
nodes = (
(536,895,l),
(870,895,l),
(847,511,l),
(513,511,l)
);
},
{
closed = 1;
nodes = (
(571,1517,l),
(463,1517,l),
(435,1045,l),
(180,1045,l),
(180,895,l),
(428,895,l),
(405,511,l),
(180,511,l),
(180,361,l),
(396,361,l),
(371,-131,l),
(479,-131,l),
(504,361,l),
(840,361,l),
(813,-131,l),
(921,-131,l),
(948,361,l),
(1202,361,l),
(1202,511,l),
(955,511,l),
(978,895,l),
(1202,895,l),
(1202,1045,l),
(985,1045,l),
(1013,1517,l),
(905,1517,l),
(877,1045,l),
(543,1045,l)
);
}
);
width = 1381;
}
);
unicode = 35;
},
{
glyphname = uni0024;
layers = (
{
layerId = "FD843F08-4597-4AFB-9C66-7B47690262C1";
shapes = (
{
closed = 1;
nodes = (
(741,573,l),
(790,559,o),
(886,527,o),
(962,479,o),
(1011,407,o),
(1011,355,qs),
(1011,295,o),
(953,214,o),
(870,166,o),
(778,145,o),
(741,143,q)
);
},
{
closed = 1;
nodes = (
(631,721,l),
(585,734,o),
(497,767,o),
(428,815,o),
(384,886,o),
(384,941,qs),
(384,1008,o),
(442,1089,o),
(520,1137,o),
(603,1156,o),
(631,1160,q)
);
},
{
closed = 1;
nodes = (
(988,1259,l),
(983,1225,o),
(974,1202,o),
(955,1202,qs),
(946,1202,o),
(930,1209,o),
(900,1222,q),
(819,1261,o),
(741,1271,q),
(741,1510,l),
(631,1510,l),
(631,1271,l),
(465,1257,o),
(265,1082,o),
(265,937,qs),
(265,847,o),
(336,732,o),
(444,658,o),
(573,617,o),
(631,601,q),
(631,143,l),
(541,154,o),
(430,228,o),
(368,325,o),
(341,428,o),
(334,467,q),
(226,467,l),
(242,352,o),
(256,147,o),
(249,21,q),
(357,21,l),
(359,60,o),
(366,87,o),
(389,87,q),
(394,87,o),
(414,85,o),
(440,76,q),
(483,62,o),
(541,46,o),
(582,35,o),
(612,32,o),
(631,32,q),
(631,-313,l),
(741,-313,l),
(741,32,l),
(822,39,o),
(965,87,o),
(1070,170,o),
(1130,283,o),
(1130,357,qs),
(1130,440,o),
(1064,550,o),
(953,622,o),
(813,668,o),
(741,688,q),
(741,1158,l),
(773,1151,o),
(854,1123,o),
(930,1050,o),
(994,914,o),
(1011,801,q),
(1116,813,l),
(1110,870,o),
(1091,1038,o),
(1091,1149,qs),
(1091,1183,o),
(1093,1236,o),
(1096,1259,q)
);
}
);
width = 1381;
}
);
unicode = 36;
},
{
glyphname = uni0025;
layers = (
{
layerId = "FD843F08-4597-4AFB-9C66-7B47690262C1";
shapes = (
{
closed = 1;
nodes = (
(1181,859,l),
(1135,967,l),
(200,552,l),
(246,444,l)
);
},
{
closed = 1;
nodes = (
(527,1305,o),
(631,1181,o),
(631,1105,qs),
(631,1027,o),
(527,907,o),
(430,907,qs),
(382,907,o),
(306,941,o),
(256,997,o),
(228,1068,o),
(228,1105,qs),
(228,1142,o),
(253,1213,o),
(304,1271,o),
(380,1305,o),
(430,1305,qs)
);
},
{
closed = 1;
nodes = (
(348,1413,o),
(228,1358,o),
(145,1268,o),
(104,1158,o),
(104,1105,qs),
(104,1050,o),
(147,939,o),
(230,854,o),
(352,799,o),
(428,799,qs),
(506,799,o),
(628,852,o),
(711,939,o),
(755,1050,o),
(755,1105,qs),
(755,1160,o),
(711,1268,o),
(628,1358,o),
(506,1413,o),
(428,1413,qs)
);
},
{
closed = 1;
nodes = (
(974,474,o),
(1050,440,o),
(1100,382,o),
(1126,311,o),
(1126,276,qs),
(1126,239,o),
(1100,168,o),
(1047,110,o),
(971,76,o),
(923,76,qs),
(826,76,o),
(723,198,o),
(723,276,qs),
(723,313,o),
(750,384,o),
(801,440,o),
(875,474,o),
(923,474,qs)
);
},
{
closed = 1;
nodes = (
(843,582,o),
(721,525,o),
(640,435,o),
(599,325,o),
(599,274,qs),
(599,221,o),
(640,113,o),
(723,23,o),
(843,-32,o),
(923,-32,qs),
(1001,-32,o),
(1123,23,o),
(1206,110,o),
(1250,219,o),
(1250,274,qs),
(1250,327,o),
(1209,437,o),
(1126,527,o),
(1004,582,o),
(923,582,qs)
);
}
);
width = 1381;
}
);
unicode = 37;
},
{
glyphname = uni0026;
layers = (
{
layerId = "FD843F08-4597-4AFB-9C66-7B47690262C1";
shapes = (
{
closed = 1;
nodes = (
(815,230,l),
(801,214,o),
(760,170,o),
(704,129,o),
(631,101,o),
(587,101,qs),
(532,101,o),
(453,145,o),
(401,216,o),
(378,304,o),
(378,345,qs),
(378,398,o),
(412,483,o),
(465,548,o),
(529,594,o),
(562,608,q)
);
},
{
closed = 1;
nodes = (
(1218,645,l),
(999,645,l),
(981,585,o),
(958,513,o),
(937,458,o),
(912,403,o),
(891,359,q),
(592,803,ls),
(548,868,o),
(502,948,o),
(502,990,qs),
(502,1011,o),
(516,1061,o),
(552,1105,o),
(615,1133,o),
(663,1133,qs),
(750,1133,o),
(875,1064,o),
(918,1031,q),
(1024,1197,l),
(1011,1192,o),
(967,1179,o),
(939,1179,qs),
(925,1179,o),
(893,1186,o),
(845,1204,q),
(801,1222,o),
(714,1243,o),
(663,1243,qs),
(525,1243,o),
(366,1093,o),
(366,981,qs),
(366,948,o),
(375,898,o),
(403,838,o),
(451,764,o),
(490,707,q),
(500,697,o),
(500,691,q),
(368,642,o),
(226,435,o),
(226,318,qs),
(226,256,o),
(269,136,o),
(355,39,o),
(479,-18,o),
(559,-18,qs),
(622,-18,o),
(723,14,o),
(801,62,o),
(856,115,o),
(877,138,q),
(971,0,l),
(1234,0,l),
(1234,108,l),
(1061,108,l),
(960,256,l),
(978,288,o),
(1038,414,o),
(1080,536,q),
(1218,536,l)
);
}
);
width = 1381;
}
);
unicode = 38;
},
{
glyphname = uni0027;
layers = (
{
layerId = "FD843F08-4597-4AFB-9C66-7B47690262C1";
shapes = (
{
closed = 1;
nodes = (
(822,1296,l),
(559,1296,l),
(603,647,l),
(776,647,l)
);
}
);
width = 1381;
}
);
unicode = 39;
},
{
glyphname = uni0028;
layers = (
{
layerId = "FD843F08-4597-4AFB-9C66-7B47690262C1";
shapes = (
{
closed = 1;
nodes = (
(948,1494,l),
(882,1395,o),
(776,1172,o),
(700,946,o),
(661,727,o),
(661,635,qs),
(661,541,o),
(702,322,o),
(778,97,o),
(884,-124,o),
(948,-221,q),
(1066,-221,l),
(1029,-152,o),
(937,35,o),
(854,256,o),
(799,504,o),
(799,635,qs),
(799,767,o),
(854,1015,o),
(937,1236,o),
(1029,1423,o),
(1066,1494,q)
);
}
);
width = 1381;
}
);
unicode = 40;
},
{
glyphname = uni0029;
layers = (
{
layerId = "FD843F08-4597-4AFB-9C66-7B47690262C1";
shapes = (
{
closed = 1;
nodes = (
(435,-221,l),
(502,-120,o),
(610,104,o),
(684,327,o),
(723,541,o),
(723,635,qs),
(723,815,o),
(578,1273,o),
(435,1494,q),
(315,1494,l),
(350,1427,o),
(442,1241,o),
(527,1020,o),
(585,769,o),
(585,635,qs),
(585,502,o),
(527,249,o),
(442,25,o),
(350,-159,o),
(315,-221,q)
);
}
);
width = 1381;
}
);
unicode = 41;
},
{
glyphname = uni002A;
layers = (
{
layerId = "FD843F08-4597-4AFB-9C66-7B47690262C1";
shapes = (
{
closed = 1;
nodes = (
(769,1296,l),
(612,1296,l),
(626,958,l),
(304,1075,l),
(256,928,l),
(587,836,l),
(373,569,l),
(500,474,l),
(691,762,l),
(882,474,l),
(1008,569,l),
(794,836,l),
(1126,928,l),
(1077,1075,l),
(755,958,l)
);
}
);
width = 1381;
}
);
unicode = 42;
},
{
glyphname = uni002B;
layers = (
{
layerId = "FD843F08-4597-4AFB-9C66-7B47690262C1";
shapes = (
{
closed = 1;
nodes = (
(748,1227,l),
(633,1227,l),
(633,755,l),
(152,755,l),
(152,640,l),
(633,640,l),
(633,168,l),
(748,168,l),
(748,640,l),
(1229,640,l),
(1229,755,l),
(748,755,l)
);
}
);
width = 1381;
}
);
unicode = 43;
},
{
glyphname = uni002C;
layers = (
{
layerId = "FD843F08-4597-4AFB-9C66-7B47690262C1";
shapes = (
{
closed = 1;
nodes = (
(822,306,l),
(582,306,l),
(407,-251,l),
(571,-251,l)
);
}
);
width = 1381;
}
);
unicode = 44;
},
{
glyphname = uni002D;
layers = (
{
layerId = "FD843F08-4597-4AFB-9C66-7B47690262C1";
shapes = (
{
closed = 1;
nodes = (
(447,730,l),
(935,730,l),
(935,603,l),
(447,603,l)
);
}
);
width = 1381;
}
);
unicode = (45,173);
},
{
glyphname = uni002E;
layers = (
{
layerId = "FD843F08-4597-4AFB-9C66-7B47690262C1";
shapes = (
{
closed = 1;
nodes = (
(658,274,o),
(596,253,o),
(546,212,o),
(513,154,o),
(513,117,qs),
(513,78,o),
(546,21,o),
(599,-18,o),
(661,-39,o),
(691,-39,qs),
(723,-39,o),
(785,-18,o),
(836,23,o),
(868,81,o),
(868,117,qs),
(868,152,o),
(838,209,o),
(787,251,o),
(725,274,o),
(691,274,qs)
);
}
);
width = 1381;
}
);
unicode = 46;
},
{
glyphname = uni002F;
layers = (
{
layerId = "FD843F08-4597-4AFB-9C66-7B47690262C1";
shapes = (
{
closed = 1;
nodes = (
(1172,1575,l),
(1073,1616,l),
(209,-260,l),
(308,-306,l)
);
}
);
width = 1381;
}
);
unicode = 47;
},
{
glyphname = uni0030;
layers = (
{
layerId = "FD843F08-4597-4AFB-9C66-7B47690262C1";
shapes = (
{
closed = 1;
nodes = (
(794,1326,o),
(918,1199,o),
(985,1011,o),
(1006,792,o),
(1006,700,qs),
(1006,610,o),
(985,389,o),
(916,200,o),
(792,71,o),
(688,71,qs),
(587,71,o),
(463,198,o),
(396,389,o),
(375,608,o),
(375,700,qs),
(375,790,o),
(396,1008,o),
(463,1197,o),
(587,1326,o),
(691,1326,qs)
);
},
{
closed = 1;
nodes = (
(550,1430,o),
(378,1284,o),
(285,1066,o),
(253,810,o),
(253,697,qs),
(253,587,o),
(285,329,o),
(378,113,o),
(550,-32,o),
(691,-32,qs),
(831,-32,o),
(1004,110,o),
(1096,329,o),
(1128,585,o),
(1128,697,qs),
(1128,810,o),
(1096,1066,o),
(1004,1284,o),
(831,1430,o),
(691,1430,qs)
);
}
);
width = 1381;
}
);
unicode = 48;
},
{
glyphname = uni0031;
layers = (
{
layerId = "FD843F08-4597-4AFB-9C66-7B47690262C1";
shapes = (
{
closed = 1;
nodes = (
(695,1430,l),
(239,1227,l),
(285,1126,l),
(654,1296,l),
(654,108,l),
(253,108,l),
(253,0,l),
(1162,0,l),
(1162,108,l),
(769,108,l),
(769,1430,l)
);
}
);
width = 1381;
}
);
unicode = 49;
},
{
glyphname = uni0032;
layers = (
{
layerId = "FD843F08-4597-4AFB-9C66-7B47690262C1";
shapes = (
{
closed = 1;
nodes = (
(1087,336,l),
(978,336,l),
(978,108,l),
(343,108,l),
(343,113,l),
(458,205,o),
(674,394,o),
(854,564,o),
(983,704,o),
(1011,748,qs),
(1052,815,o),
(1089,930,o),
(1089,1004,qs),
(1089,1100,o),
(1013,1259,o),
(889,1370,o),
(732,1430,o),
(651,1430,qs),
(638,1430,o),
(552,1423,o),
(435,1386,o),
(299,1301,o),
(235,1225,q),
(235,1075,l),
(355,1075,l),
(350,1146,o),
(417,1238,o),
(511,1294,o),
(615,1314,o),
(647,1314,qs),
(691,1314,o),
(801,1280,o),
(898,1206,o),
(965,1091,o),
(965,1008,qs),
(965,928,o),
(912,792,o),
(829,709,qs),
(760,638,o),
(569,460,o),
(382,292,o),
(226,154,o),
(189,122,q),
(189,0,l),
(1087,0,l)
);
}
);
width = 1381;
}
);
unicode = 50;
},
{
glyphname = uni0033;
layers = (
{
layerId = "FD843F08-4597-4AFB-9C66-7B47690262C1";
shapes = (
{
closed = 1;
nodes = (
(193,81,l),
(265,53,o),
(375,12,o),
(470,-18,o),
(559,-32,o),
(612,-32,qs),
(709,-32,o),
(877,28,o),
(1004,138,o),
(1075,297,o),
(1075,394,qs),
(1075,472,o),
(1024,596,o),
(948,686,o),
(863,746,o),
(826,760,q),
(843,769,o),
(900,810,o),
(960,886,o),
(1004,997,o),
(1004,1073,qs),
(1004,1158,o),
(937,1289,o),
(826,1381,o),
(686,1430,o),
(612,1430,qs),
(502,1430,o),
(318,1340,o),
(221,1278,q),
(279,1188,l),
(320,1213,ls),
(373,1245,o),
(520,1321,o),
(610,1321,qs),
(727,1321,o),
(884,1188,o),
(884,1070,qs),
(884,1004,o),
(822,884,o),
(764,845,qs),
(711,810,o),
(594,796,o),
(543,796,q),
(543,688,l),
(599,693,o),
(707,688,o),
(767,668,q),
(773,665,o),
(836,638,o),
(902,575,o),
(958,470,o),
(958,389,qs),
(958,313,o),
(900,196,o),
(803,115,o),
(681,76,o),
(619,76,qs),
(523,76,o),
(325,140,o),
(237,182,q)
);
}
);
width = 1381;
}
);
unicode = 51;
},
{
glyphname = uni0034;
layers = (
{
layerId = "FD843F08-4597-4AFB-9C66-7B47690262C1";
shapes = (
{
closed = 1;
nodes = (
(787,447,l),
(283,447,l),
(783,1296,l),
(787,1296,l)
);
},
{
closed = 1;
nodes = (
(898,447,l),
(898,1430,l),
(741,1430,l),
(170,470,l),
(170,336,l),
(787,336,l),
(787,108,l),
(477,108,l),
(477,0,l),
(1105,0,l),
(1105,108,l),
(898,108,l),
(898,336,l),
(1105,336,l),
(1105,447,l)
);
}
);
width = 1381;
}
);
unicode = 52;
},
{
glyphname = uni0035;
layers = (
{
layerId = "FD843F08-4597-4AFB-9C66-7B47690262C1";
shapes = (
{
closed = 1;
nodes = (
(1059,1395,l),
(290,1395,l),
(290,697,l),
(348,665,l),
(419,718,o),
(566,776,o),
(654,776,qs),
(737,776,o),
(866,721,o),
(955,624,o),
(1001,497,o),
(1001,428,qs),
(1001,355,o),
(958,230,o),
(866,136,o),
(727,83,o),
(633,83,qs),
(573,83,o),
(458,104,o),
(359,131,o),
(279,163,o),
(251,175,q),
(209,71,l),
(267,48,o),
(371,9,o),
(474,-18,o),
(580,-32,o),
(642,-32,qs),
(780,-32,o),
(967,62,o),
(1080,200,o),
(1126,364,o),
(1126,433,qs),
(1126,525,o),
(1061,691,o),
(944,813,o),
(776,884,o),
(672,884,qs),
(580,884,o),
(447,843,o),
(394,819,q),
(394,1284,l),
(1059,1284,l)
);
}
);
width = 1381;
}
);
unicode = 53;
},
{
glyphname = uni0036;
layers = (
{
layerId = "FD843F08-4597-4AFB-9C66-7B47690262C1";
shapes = (
{
closed = 1;
nodes = (
(401,578,o),
(502,677,o),
(601,725,o),
(684,737,o),
(702,737,qs),
(764,737,o),
(868,681,o),
(939,592,o),
(981,470,o),
(981,405,qs),
(981,329,o),
(935,209,o),
(854,127,o),
(753,83,o),
(697,83,qs),
(654,83,o),
(543,120,o),
(444,212,o),
(371,368,o),
(364,488,q)
);
},
{
closed = 1;
nodes = (
(1119,1430,l),
(1017,1434,o),
(870,1427,o),
(767,1413,o),
(695,1395,o),
(670,1386,qs),
(518,1331,o),
(343,1112,o),
(258,870,o),
(235,654,o),
(235,599,qs),
(235,414,o),
(327,173,o),
(465,28,o),
(628,-32,o),
(697,-32,qs),
(787,-32,o),
(937,39,o),
(1045,159,o),
(1105,318,o),
(1105,405,qs),
(1105,493,o),
(1047,654,o),
(941,778,o),
(792,852,o),
(702,852,qs),
(628,852,o),
(518,810,o),
(435,755,o),
(382,695,o),
(368,679,q),
(364,684,l),
(389,921,o),
(534,1183,o),
(741,1303,o),
(990,1321,o),
(1119,1314,q)
);
}
);
width = 1381;
}
);
unicode = 54;
},
{
glyphname = uni0037;
layers = (
{
layerId = "FD843F08-4597-4AFB-9C66-7B47690262C1";
shapes = (
{
closed = 1;
nodes = (
(1123,1395,l),
(219,1395,l),
(219,1075,l),
(331,1075,l),
(331,1287,l),
(1008,1287,l),
(543,0,l),
(677,0,l),
(1123,1287,l)
);
}
);
width = 1381;
}
);
unicode = 55;
},
{
glyphname = uni0038;
layers = (
{
layerId = "FD843F08-4597-4AFB-9C66-7B47690262C1";
shapes = (
{
closed = 1;
nodes = (
(769,656,o),
(889,603,o),
(969,520,o),
(1011,414,o),
(1011,364,qs),
(1011,306,o),
(962,203,o),
(875,122,o),
(760,76,o),
(691,76,qs),
(622,76,o),
(506,122,o),
(419,203,o),
(371,306,o),
(371,364,qs),
(371,414,o),
(410,518,o),
(490,603,o),
(610,656,o),
(691,656,qs)
);
},
{
closed = 1;
nodes = (
(744,1321,o),
(849,1287,o),
(932,1220,o),
(985,1119,o),
(985,1050,qs),
(985,983,o),
(935,879,o),
(852,803,o),
(746,764,o),
(691,764,qs),
(624,764,o),
(513,815,o),
(437,895,o),
(396,997,o),
(396,1050,qs),
(396,1091,o),
(428,1186,o),
(497,1268,o),
(610,1321,o),
(691,1321,qs)
);
},
{
closed = 1;
nodes = (
(375,665,o),
(246,472,o),
(246,364,qs),
(246,299,o),
(299,159,o),
(410,44,o),
(575,-32,o),
(691,-32,qs),
(803,-32,o),
(971,44,o),
(1082,159,o),
(1135,299,o),
(1135,364,qs),
(1135,407,o),
(1110,506,o),
(1052,601,o),
(965,684,o),
(902,711,q),
(1011,771,o),
(1110,960,o),
(1110,1052,qs),
(1110,1130,o),
(1045,1266,o),
(932,1370,o),
(780,1430,o),
(691,1430,qs),
(601,1430,o),
(449,1370,o),
(336,1266,o),
(272,1130,o),
(272,1052,qs),
(272,978,o),
(320,863,o),
(384,778,o),
(456,723,o),
(479,711,q)
);
}
);
width = 1381;
}
);
unicode = 56;
},
{
glyphname = uni0039;
layers = (
{
layerId = "FD843F08-4597-4AFB-9C66-7B47690262C1";
shapes = (
{
closed = 1;
nodes = (
(905,819,o),
(803,718,o),
(702,670,o),
(619,661,o),
(603,661,qs),
(541,661,o),
(437,716,o),
(366,806,o),
(325,925,o),
(325,992,qs),
(325,1068,o),
(371,1188,o),
(451,1271,o),
(552,1314,o),
(608,1314,qs),
(651,1314,o),
(762,1278,o),
(861,1186,o),
(935,1029,o),
(941,909,q)
);
},
{
closed = 1;
nodes = (
(186,-32,l),
(288,-37,o),
(435,-32,o),
(539,-18,o),
(610,2,o),
(635,12,q),
(787,67,o),
(962,285,o),
(1047,527,o),
(1070,744,o),
(1070,799,qs),
(1070,981,o),
(978,1225,o),
(840,1370,o),
(677,1430,o),
(608,1430,qs),
(518,1430,o),
(368,1358,o),
(260,1238,o),
(200,1080,o),
(200,992,qs),
(200,905,o),
(258,744,o),
(364,619,o),
(513,546,o),
(603,546,qs),
(674,546,o),
(787,587,o),
(870,642,o),
(923,700,o),
(937,718,q),
(941,714,l),
(914,477,o),
(769,214,o),
(564,94,o),
(318,76,o),
(186,83,q)
);
}
);
width = 1381;
}
);
unicode = 57;
},
{
glyphname = uni003A;
layers = (
{
layerId = "FD843F08-4597-4AFB-9C66-7B47690262C1";
shapes = (
{
closed = 1;
nodes = (
(658,274,o),
(596,253,o),
(546,212,o),
(513,154,o),
(513,117,qs),
(513,78,o),
(546,21,o),
(599,-18,o),
(661,-39,o),
(691,-39,qs),
(721,-39,o),
(785,-18,o),
(836,23,o),
(868,81,o),
(868,117,qs),
(868,154,o),
(836,212,o),
(785,253,o),
(723,274,o),
(691,274,qs)
);
},
{
closed = 1;
nodes = (
(658,898,o),
(596,877,o),
(546,836,o),
(513,778,o),
(513,741,qs),
(513,702,o),
(546,645,o),
(599,605,o),
(661,585,o),
(691,585,qs),
(721,585,o),
(785,605,o),
(836,647,o),
(868,704,o),
(868,741,qs),
(868,778,o),
(836,836,o),
(785,877,o),
(723,898,o),
(691,898,qs)
);
}
);
width = 1381;
}
);
unicode = 58;
},
{
glyphname = uni003B;
layers = (
{
layerId = "FD843F08-4597-4AFB-9C66-7B47690262C1";
shapes = (
{
closed = 1;
nodes = (
(658,898,o),
(596,877,o),
(546,836,o),
(513,778,o),
(513,741,qs),
(513,702,o),
(546,645,o),
(599,605,o),
(661,585,o),
(691,585,qs),
(721,585,o),
(785,605,o),
(836,647,o),
(868,704,o),
(868,741,qs),
(868,778,o),
(836,836,o),
(785,877,o),
(723,898,o),
(691,898,qs)
);
},
{
closed = 1;
nodes = (
(831,308,l),
(594,308,l),
(417,-249,l),
(580,-249,l)
);
}
);
width = 1381;
}
);
unicode = 59;
},
{
glyphname = uni003C;
layers = (
{
layerId = "FD843F08-4597-4AFB-9C66-7B47690262C1";
shapes = (
{
closed = 1;
nodes = (
(124,709,l),
(1211,205,l),
(1257,306,l),
(380,709,l),
(1257,1121,l),
(1211,1225,l)
);
}
);
width = 1381;
}
);
unicode = 60;
},
{
glyphname = uni003D;
layers = (
{
layerId = "FD843F08-4597-4AFB-9C66-7B47690262C1";
shapes = (
{
closed = 1;
nodes = (
(1234,548,l),
(147,548,l),
(147,433,l),
(1234,433,l)
);
},
{
closed = 1;
nodes = (
(1234,965,l),
(147,965,l),
(147,849,l),
(1234,849,l)
);
}
);
width = 1381;
}
);
unicode = 61;
},
{
glyphname = uni003E;
layers = (
{
layerId = "FD843F08-4597-4AFB-9C66-7B47690262C1";
shapes = (
{
closed = 1;
nodes = (
(1257,709,l),
(170,1213,l),
(124,1112,l),
(1001,709,l),
(124,297,l),
(170,193,l)
);
}
);
width = 1381;
}
);
unicode = 62;
},
{
glyphname = uni003F;
layers = (
{
layerId = "FD843F08-4597-4AFB-9C66-7B47690262C1";
shapes = (
{
closed = 1;
nodes = (
(546,244,o),
(453,163,o),
(453,104,qs),
(453,41,o),
(548,-39,o),
(612,-39,qs),
(677,-39,o),
(771,41,o),
(771,104,qs),
(771,163,o),
(679,244,o),
(612,244,qs)
);
},
{
closed = 1;
nodes = (
(276,1001,l),
(391,1001,l),
(391,1149,l),
(449,1172,o),
(566,1204,o),
(651,1204,qs),
(748,1204,o),
(872,1151,o),
(944,1070,o),
(971,981,o),
(971,946,qs),
(971,868,o),
(900,764,o),
(794,697,o),
(665,658,o),
(608,645,q),
(596,642,o),
(566,635,o),
(562,633,q),
(562,410,l),
(674,410,l),
(674,548,l),
(732,564,o),
(877,615,o),
(1004,702,o),
(1091,838,o),
(1091,939,qs),
(1091,1011,o),
(1036,1149,o),
(925,1252,o),
(760,1317,o),
(649,1317,qs),
(601,1317,o),
(516,1308,o),
(430,1287,o),
(336,1257,o),
(276,1236,q)
);
}
);
width = 1381;
}
);
unicode = 63;
},
{
glyphname = uni0040;
layers = (
{
layerId = "FD843F08-4597-4AFB-9C66-7B47690262C1";
shapes = (
{
closed = 1;
nodes = (
(562,352,o),
(534,375,o),
(516,410,o),
(509,447,o),
(509,463,qs),
(509,513,o),
(543,638,o),
(601,744,o),
(677,815,o),
(716,815,qs),
(748,815,o),
(799,753,o),
(799,700,qs),
(799,649,o),
(764,527,o),
(704,424,o),
(626,352,o),
(582,352,qs)
);
},
{
closed = 1;
nodes = (
(1179,228,l),
(1176,228,o),
(1165,221,o),
(1162,221,q),
(1128,203,ls),
(1047,159,o),
(815,76,o),
(670,76,qs),
(539,76,o),
(357,170,o),
(244,320,o),
(193,504,o),
(193,596,qs),
(193,700,o),
(251,898,o),
(375,1052,o),
(569,1149,o),
(707,1149,qs),
(808,1149,o),
(985,1093,o),
(1119,981,o),
(1195,810,o),
(1195,697,qs),
(1195,626,o),
(1162,502,o),
(1105,407,o),
(1029,352,o),
(985,352,qs),
(932,352,o),
(879,419,o),
(879,444,qs),
(879,472,o),
(902,550,o),
(902,559,q),
(1001,918,l),
(882,918,l),
(861,838,l),
(845,863,o),
(787,930,o),
(730,930,qs),
(658,930,o),
(536,845,o),
(444,711,o),
(391,548,o),
(391,472,qs),
(391,403,o),
(430,311,o),
(488,260,o),
(550,239,o),
(571,239,qs),
(612,239,o),
(681,265,o),
(737,304,o),
(776,345,o),
(790,361,q),
(790,350,o),
(796,329,o),
(815,315,qs),
(847,292,o),
(886,265,o),
(916,249,o),
(946,244,o),
(971,244,qs),
(1045,244,o),
(1167,308,o),
(1257,424,o),
(1305,587,o),
(1305,684,qs),
(1305,819,o),
(1213,1034,o),
(1054,1181,o),
(838,1257,o),
(711,1257,qs),
(559,1257,o),
(320,1153,o),
(159,976,o),
(74,737,o),
(74,599,qs),
(74,477,o),
(145,249,o),
(290,74,o),
(511,-32,o),
(663,-32,qs),
(815,-32,o),
(1096,58,o),
(1213,124,q),
(1215,124,o),
(1225,131,o),
(1227,131,q)
);
}
);
width = 1381;
}
);
unicode = 64;
},
{
glyphname = uni0041;
layers = (
{
layerId = "FD843F08-4597-4AFB-9C66-7B47690262C1";
shapes = (
{
closed = 1;
nodes = (
(691,1160,l),
(951,529,l),
(430,529,l)
);
},
{
closed = 1;
nodes = (
(755,1296,l),
(260,1296,l),
(260,1188,l),
(589,1188,l),
(145,108,l),
(23,108,l),
(23,0,l),
(495,0,l),
(495,108,l),
(260,108,l),
(389,428,l),
(990,428,l),
(1121,108,l),
(886,108,l),
(886,0,l),
(1358,0,l),
(1358,108,l),
(1241,108,l)
);
}
);
width = 1381;
}
);
unicode = 65;
},
{
glyphname = uni0042;
layers = (
{
layerId = "FD843F08-4597-4AFB-9C66-7B47690262C1";
shapes = (
{
closed = 1;
nodes = (
(410,619,l),
(697,619,ls),
(790,619,o),
(951,589,o),
(1066,527,o),
(1133,426,o),
(1133,355,qs),
(1133,260,o),
(1045,161,o),
(916,115,o),
(769,108,o),
(707,108,qs),
(410,108,l)
);
},
{
closed = 1;
nodes = (
(410,1188,l),
(727,1188,ls),
(746,1188,o),
(852,1181,o),
(965,1139,o),
(1052,1050,o),
(1052,967,qs),
(1052,939,o),
(1031,859,o),
(962,783,o),
(829,727,o),
(716,727,qs),
(410,727,l)
);
},
{
closed = 1;
nodes = (
(104,1296,l),
(104,1188,l),
(295,1188,l),
(295,108,l),
(104,108,l),
(104,0,l),
(711,0,ls),
(790,0,o),
(898,5,o),
(983,18,o),
(1052,44,o),
(1089,64,qs),
(1162,104,o),
(1252,258,o),
(1252,355,qs),
(1252,479,o),
(1114,640,o),
(990,677,q),
(1013,688,o),
(1075,734,o),
(1133,803,o),
(1172,900,o),
(1172,962,qs),
(1172,1036,o),
(1112,1156,o),
(1015,1243,o),
(868,1296,o),
(732,1296,qs)
);
}
);
width = 1381;
}
);
unicode = 66;
},
{
glyphname = uni0043;
layers = (
{
layerId = "FD843F08-4597-4AFB-9C66-7B47690262C1";
shapes = (
{
closed = 1;
nodes = (
(1291,311,l),
(1179,212,o),
(925,76,o),
(769,76,qs),
(619,76,o),
(428,196,o),
(315,373,o),
(272,578,o),
(272,665,qs),
(272,778,o),
(338,981,o),
(465,1133,o),
(645,1220,o),
(760,1220,qs),
(886,1220,o),
(1024,1133,o),
(1057,1084,qs),
(1096,1024,o),
(1126,902,o),
(1133,863,q),
(1241,882,l),
(1229,974,o),
(1213,1176,o),
(1218,1321,q),
(1133,1321,l),
(1130,1305,o),
(1123,1268,o),
(1116,1234,o),
(1105,1211,o),
(1098,1211,q),
(1093,1211,o),
(1082,1218,o),
(1059,1236,q),
(1052,1243,o),
(1011,1275,o),
(937,1310,o),
(833,1335,o),
(764,1335,qs),
(633,1335,o),
(407,1238,o),
(242,1061,o),
(147,813,o),
(147,663,qs),
(147,520,o),
(228,267,o),
(384,74,o),
(617,-39,o),
(769,-39,qs),
(803,-39,o),
(928,-25,o),
(1087,30,o),
(1271,136,o),
(1367,228,q)
);
}
);
width = 1381;
}
);
unicode = 67;
},
{
glyphname = uni0044;
layers = (
{
layerId = "FD843F08-4597-4AFB-9C66-7B47690262C1";
shapes = (
{
closed = 1;
nodes = (
(375,1188,l),
(656,1188,ls),
(755,1188,o),
(900,1162,o),
(960,1116,q),
(985,1096,o),
(1047,1029,o),
(1103,925,o),
(1142,773,o),
(1144,665,q),
(1144,506,o),
(1052,279,o),
(990,216,qs),
(948,175,o),
(852,131,o),
(757,110,o),
(674,108,o),
(645,108,qs),
(375,108,l)
);
},
{
closed = 1;
nodes = (
(78,1296,l),
(78,1188,l),
(260,1188,l),
(260,108,l),
(78,108,l),
(78,0,l),
(645,0,ls),
(677,0,o),
(780,5,o),
(900,30,o),
(1024,83,o),
(1077,134,qs),
(1151,205,o),
(1268,465,o),
(1268,672,qs),
(1268,702,o),
(1261,803,o),
(1234,928,o),
(1176,1061,o),
(1126,1123,qs),
(1077,1181,o),
(974,1250,o),
(861,1284,o),
(730,1296,o),
(654,1296,qs)
);
}
);
width = 1381;
}
);
unicode = 68;
},
{
glyphname = uni0045;
layers = (
{
layerId = "FD843F08-4597-4AFB-9C66-7B47690262C1";
shapes = (
{
closed = 1;
nodes = (
(1225,1296,l),
(131,1296,l),
(131,1188,l),
(327,1188,l),
(327,108,l),
(131,108,l),
(131,0,l),
(1245,0,l),
(1245,424,l),
(1139,424,l),
(1128,108,l),
(442,108,l),
(442,631,l),
(815,631,l),
(815,465,l),
(921,465,l),
(921,907,l),
(815,907,l),
(815,739,l),
(442,739,l),
(442,1188,l),
(1105,1188,l),
(1128,872,l),
(1234,872,l)
);
}
);
width = 1381;
}
);
unicode = 69;
},
{
glyphname = uni0046;
layers = (
{
layerId = "FD843F08-4597-4AFB-9C66-7B47690262C1";
shapes = (
{
closed = 1;
nodes = (
(1245,1296,l),
(166,1296,l),
(166,1188,l),
(352,1188,l),
(352,108,l),
(166,108,l),
(166,0,l),
(767,0,l),
(767,108,l),
(467,108,l),
(467,631,l),
(840,631,l),
(840,465,l),
(946,465,l),
(946,907,l),
(840,907,l),
(840,739,l),
(467,739,l),
(467,1188,l),
(1126,1188,l),
(1153,882,l),
(1257,882,l)
);
}
);
width = 1381;
}
);
unicode = 70;
},
{
glyphname = uni0047;
layers = (
{
layerId = "FD843F08-4597-4AFB-9C66-7B47690262C1";
shapes = (
{
closed = 1;
nodes = (
(1091,1321,l),
(1082,1245,o),
(1075,1209,o),
(1057,1209,qs),
(1047,1209,o),
(1029,1218,o),
(1011,1236,q),
(944,1289,o),
(806,1335,o),
(723,1335,qs),
(575,1335,o),
(348,1218,o),
(191,1024,o),
(110,776,o),
(110,642,qs),
(110,527,o),
(177,288,o),
(327,87,o),
(571,-39,o),
(748,-39,qs),
(958,-39,o),
(1220,74,q),
(1220,460,l),
(1331,460,l),
(1331,569,l),
(762,569,l),
(762,460,l),
(1103,460,l),
(1103,150,l),
(967,104,o),
(808,76,o),
(750,76,qs),
(619,76,o),
(426,166,o),
(297,320,o),
(235,527,o),
(235,645,qs),
(235,771,o),
(311,983,o),
(442,1135,o),
(617,1220,o),
(718,1220,qs),
(840,1220,o),
(985,1137,o),
(1066,1024,o),
(1096,902,o),
(1103,863,q),
(1202,882,l),
(1197,923,o),
(1188,1034,o),
(1188,1091,qs),
(1188,1114,o),
(1190,1169,o),
(1195,1225,o),
(1197,1268,o),
(1197,1278,q),
(1197,1282,o),
(1199,1314,o),
(1202,1321,q)
);
}
);
width = 1381;
}
);
unicode = 71;
},
{
glyphname = uni0048;
layers = (
{
layerId = "FD843F08-4597-4AFB-9C66-7B47690262C1";
shapes = (
{
closed = 1;
nodes = (
(550,1296,l),
(90,1296,l),
(90,1188,l),
(262,1188,l),
(262,108,l),
(90,108,l),
(90,0,l),
(550,0,l),
(550,108,l),
(378,108,l),
(378,615,l),
(1004,615,l),
(1004,108,l),
(831,108,l),
(831,0,l),
(1294,0,l),
(1294,108,l),
(1119,108,l),
(1119,1188,l),
(1294,1188,l),
(1294,1296,l),
(831,1296,l),
(831,1188,l),
(1004,1188,l),
(1004,723,l),
(378,723,l),
(378,1188,l),
(550,1188,l)
);
}
);
width = 1381;
}
);
unicode = 72;
},
{
glyphname = uni0049;
layers = (
{
layerId = "FD843F08-4597-4AFB-9C66-7B47690262C1";
shapes = (
{
closed = 1;
nodes = (
(1151,1296,l),
(230,1296,l),
(230,1188,l),
(633,1188,l),
(633,108,l),
(230,108,l),
(230,0,l),
(1151,0,l),
(1151,108,l),
(748,108,l),
(748,1188,l),
(1151,1188,l)
);
}
);
width = 1381;
}
);
unicode = 73;
},
{
glyphname = uni004A;
layers = (
{
layerId = "FD843F08-4597-4AFB-9C66-7B47690262C1";
shapes = (
{
closed = 1;
nodes = (
(1333,1296,l),
(472,1296,l),
(472,1188,l),
(925,1188,l),
(925,470,ls),
(925,401,o),
(916,260,o),
(861,147,o),
(744,76,o),
(638,76,qs),
(578,76,o),
(433,106,o),
(366,147,qs),
(297,189,o),
(260,295,o),
(258,382,qs),
(249,605,l),
(136,605,l),
(157,108,l),
(200,90,l),
(297,46,o),
(525,-39,o),
(663,-39,qs),
(700,-39,o),
(785,-23,o),
(868,12,o),
(946,69,o),
(974,108,q),
(1020,180,o),
(1040,373,o),
(1040,470,qs),
(1040,1188,l),
(1333,1188,l)
);
}
);
width = 1381;
}
);
unicode = 74;
},
{
glyphname = uni004B;
layers = (
{
layerId = "FD843F08-4597-4AFB-9C66-7B47690262C1";
shapes = (
{
closed = 1;
nodes = (
(642,1296,l),
(138,1296,l),
(138,1188,l),
(331,1188,l),
(331,108,l),
(138,108,l),
(138,0,l),
(642,0,l),
(642,108,l),
(447,108,l),
(447,472,l),
(605,624,l),
(707,573,o),
(843,426,o),
(909,311,q),
(935,269,o),
(1022,97,o),
(1059,0,q),
(1354,0,l),
(1354,108,l),
(1142,108,l),
(1073,265,o),
(946,472,o),
(831,605,o),
(727,679,o),
(684,702,q),
(1183,1188,l),
(1287,1188,l),
(1287,1296,l),
(838,1296,l),
(838,1188,l),
(1027,1188,l),
(447,624,l),
(447,1188,l),
(642,1188,l)
);
}
);
width = 1381;
}
);
unicode = 75;
},
{
glyphname = uni004C;
layers = (
{
layerId = "FD843F08-4597-4AFB-9C66-7B47690262C1";
shapes = (
{
closed = 1;
nodes = (
(764,1296,l),
(136,1296,l),
(136,1188,l),
(366,1188,l),
(366,108,l),
(136,108,l),
(136,0,l),
(1248,0,l),
(1273,573,l),
(1165,573,l),
(1133,108,l),
(481,108,l),
(481,1188,l),
(764,1188,l)
);
}
);
width = 1381;
}
);
unicode = 76;
},
{
glyphname = uni004D;
layers = (
{
layerId = "FD843F08-4597-4AFB-9C66-7B47690262C1";
shapes = (
{
closed = 1;
nodes = (
(403,1296,l),
(18,1296,l),
(18,1188,l),
(182,1188,l),
(143,108,l),
(2,108,l),
(2,0,l),
(490,0,l),
(490,108,l),
(244,108,l),
(279,1188,l),
(320,1188,l),
(619,331,l),
(739,331,l),
(1061,1188,l),
(1103,1188,l),
(1137,108,l),
(891,108,l),
(891,0,l),
(1379,0,l),
(1379,108,l),
(1238,108,l),
(1199,1188,l),
(1363,1188,l),
(1363,1296,l),
(992,1296,l),
(707,516,l),
(665,516,l)
);
}
);
width = 1381;
}
);
unicode = 77;
},
{
glyphname = uni004E;
layers = (
{
layerId = "FD843F08-4597-4AFB-9C66-7B47690262C1";
shapes = (
{
closed = 1;
nodes = (
(458,1296,l),
(64,1296,l),
(64,1188,l),
(244,1188,l),
(244,108,l),
(64,108,l),
(64,0,l),
(610,0,l),
(610,108,l),
(350,108,l),
(350,1188,l),
(389,1188,l),
(1006,-30,l),
(1211,-30,l),
(1211,1188,l),
(1360,1188,l),
(1360,1296,l),
(847,1296,l),
(847,1188,l),
(1105,1188,l),
(1105,97,l),
(1064,97,l)
);
}
);
width = 1381;
}
);
unicode = 78;
},
{
glyphname = uni004F;
layers = (
{
layerId = "FD843F08-4597-4AFB-9C66-7B47690262C1";
shapes = (
{
closed = 1;
nodes = (
(223,748,o),
(281,953,o),
(396,1116,o),
(571,1220,o),
(691,1220,qs),
(803,1220,o),
(976,1123,o),
(1096,965,o),
(1158,757,o),
(1158,649,qs),
(1158,541,o),
(1098,336,o),
(978,175,o),
(803,76,o),
(691,76,qs),
(575,76,o),
(401,177,o),
(283,341,o),
(223,546,o),
(223,649,qs)
);
},
{
closed = 1;
nodes = (
(99,504,o),
(182,256,o),
(336,69,o),
(555,-39,o),
(691,-39,qs),
(829,-39,o),
(1047,71,o),
(1199,258,o),
(1282,509,o),
(1282,647,qs),
(1282,787,o),
(1202,1036,o),
(1047,1225,o),
(829,1335,o),
(691,1335,qs),
(555,1335,o),
(336,1227,o),
(182,1040,o),
(99,790,o),
(99,647,qs)
);
}
);
width = 1381;
}
);
unicode = 79;
},
{
glyphname = uni0050;
layers = (
{
layerId = "FD843F08-4597-4AFB-9C66-7B47690262C1";
shapes = (
{
closed = 1;
nodes = (
(465,1188,l),
(691,1188,ls),
(753,1188,o),
(838,1181,o),
(900,1169,o),
(946,1153,o),
(967,1142,q),
(1013,1119,o),
(1105,992,o),
(1105,898,qs),
(1105,815,o),
(1040,704,o),
(1008,679,qs),
(948,631,o),
(737,617,o),
(596,617,qs),
(465,617,l)
);
},
{
closed = 1;
nodes = (
(163,1296,l),
(163,1188,l),
(350,1188,l),
(350,108,l),
(163,108,l),
(163,0,l),
(803,0,l),
(803,108,l),
(465,108,l),
(465,509,l),
(594,509,ls),
(697,509,o),
(838,511,o),
(939,525,o),
(1020,552,o),
(1061,578,q),
(1098,599,o),
(1160,668,o),
(1204,750,o),
(1229,845,o),
(1229,893,qs),
(1229,999,o),
(1119,1188,o),
(1031,1236,qs),
(969,1271,o),
(815,1296,o),
(691,1296,qs)
);
}
);
width = 1381;
}
);
unicode = 80;
},
{
glyphname = uni0051;
layers = (
{
layerId = "FD843F08-4597-4AFB-9C66-7B47690262C1";
shapes = (
{
closed = 1;
nodes = (
(223,748,o),
(281,953,o),
(396,1116,o),
(571,1220,o),
(691,1220,qs),
(803,1220,o),
(976,1123,o),
(1096,965,o),
(1158,757,o),
(1158,649,qs),
(1158,541,o),
(1098,336,o),
(978,175,o),
(803,76,o),
(691,76,qs),
(575,76,o),
(401,177,o),
(283,341,o),
(223,546,o),
(223,649,qs)
);
},
{
closed = 1;
nodes = (
(1188,-120,l),
(1156,-140,o),
(1075,-180,o),
(1017,-180,qs),
(1004,-180,o),
(981,-177,o),
(948,-166,o),
(900,-147,o),
(859,-131,q),
(799,-106,o),
(697,-85,o),
(656,-85,qs),
(638,-85,o),
(617,-87,o),
(605,-87,q),
(605,-83,l),
(610,-83,l),
(608,-87,o),
(612,-83,o),
(615,-78,q),
(633,-60,o),
(642,-51,o),
(651,-39,q),
(831,-41,o),
(1073,81,o),
(1220,279,o),
(1282,520,o),
(1282,638,qs),
(1282,796,o),
(1190,1054,o),
(1029,1236,o),
(813,1335,o),
(688,1335,qs),
(573,1335,o),
(359,1243,o),
(196,1066,o),
(99,810,o),
(99,647,qs),
(99,527,o),
(159,313,o),
(269,140,o),
(426,14,o),
(523,-16,q),
(518,-21,o),
(488,-60,o),
(437,-113,o),
(368,-175,o),
(327,-203,q),
(380,-288,l),
(460,-242,o),
(575,-193,o),
(651,-193,qs),
(695,-193,o),
(771,-214,o),
(891,-265,o),
(974,-295,o),
(1027,-295,qs),
(1107,-295,o),
(1220,-230,o),
(1259,-203,q)
);
}
);
width = 1381;
}
);
unicode = 81;
},
{
glyphname = uni0052;
layers = (
{
layerId = "FD843F08-4597-4AFB-9C66-7B47690262C1";
shapes = (
{
closed = 1;
nodes = (
(407,1188,l),
(691,1188,ls),
(753,1188,o),
(833,1181,o),
(884,1172,o),
(914,1158,o),
(928,1149,q),
(974,1116,o),
(1024,1013,o),
(1024,955,qs),
(1024,859,o),
(932,755,o),
(806,709,o),
(668,702,o),
(622,702,qs),
(407,702,l)
);
},
{
closed = 1;
nodes = (
(104,1296,l),
(104,1188,l),
(292,1188,l),
(292,108,l),
(104,108,l),
(104,0,l),
(612,0,l),
(612,108,l),
(407,108,l),
(407,594,l),
(573,594,ls),
(619,594,o),
(681,571,o),
(734,523,o),
(785,447,o),
(819,394,qs),
(831,375,o),
(884,290,o),
(946,182,o),
(1013,58,o),
(1040,0,q),
(1328,0,l),
(1328,108,l),
(1126,108,l),
(1091,163,o),
(1001,308,o),
(912,447,o),
(826,564,o),
(796,596,q),
(895,605,o),
(1031,681,o),
(1114,783,o),
(1149,898,o),
(1149,948,qs),
(1149,1034,o),
(1068,1192,o),
(948,1275,o),
(806,1296,o),
(695,1296,qs)
);
}
);
width = 1381;
}
);
unicode = 82;
},
{
glyphname = uni0053;
layers = (
{
layerId = "FD843F08-4597-4AFB-9C66-7B47690262C1";
shapes = (
{
closed = 1;
nodes = (
(1064,1321,l),
(1064,1317,o),
(1061,1303,o),
(1059,1291,qs),
(1047,1236,o),
(1040,1209,o),
(1024,1209,qs),
(1017,1209,o),
(999,1220,o),
(971,1241,q),
(960,1250,o),
(914,1282,o),
(845,1312,o),
(748,1335,o),
(686,1335,qs),
(587,1335,o),
(419,1271,o),
(297,1160,o),
(228,1017,o),
(228,939,qs),
(228,824,o),
(336,688,o),
(493,615,o),
(670,587,o),
(737,580,qs),
(780,575,o),
(893,557,o),
(990,509,o),
(1057,419,o),
(1057,343,qs),
(1057,299,o),
(1022,205,o),
(939,127,o),
(799,76,o),
(693,76,qs),
(569,76,o),
(442,157,o),
(410,198,qs),
(371,249,o),
(341,359,o),
(331,403,q),
(228,403,l),
(230,378,o),
(237,311,o),
(244,239,o),
(249,177,o),
(249,159,qs),
(249,136,ls),
(249,110,o),
(239,9,o),
(228,-46,q),
(331,-46,l),
(341,12,o),
(348,41,o),
(352,58,q),
(357,62,o),
(368,76,o),
(375,76,q),
(380,76,o),
(391,69,o),
(394,67,q),
(410,53,o),
(460,18,o),
(536,-16,o),
(640,-39,o),
(709,-39,qs),
(794,-39,o),
(962,7,o),
(1096,104,o),
(1181,251,o),
(1181,352,qs),
(1181,451,o),
(1098,580,o),
(978,658,o),
(831,688,o),
(702,702,qs),
(661,707,o),
(541,725,o),
(430,776,o),
(352,868,o),
(352,948,qs),
(352,992,o),
(394,1087,o),
(479,1167,o),
(610,1220,o),
(700,1220,qs),
(769,1220,o),
(866,1190,o),
(935,1149,o),
(978,1100,o),
(992,1080,q),
(1031,1020,o),
(1059,900,o),
(1064,863,q),
(1167,882,l),
(1156,981,o),
(1146,1116,o),
(1146,1156,qs),
(1146,1199,o),
(1156,1268,o),
(1167,1321,q)
);
}
);
width = 1381;
}
);
unicode = 83;
},
{
glyphname = uni0054;
layers = (
{
layerId = "FD843F08-4597-4AFB-9C66-7B47690262C1";
shapes = (
{
closed = 1;
nodes = (
(1243,1296,l),
(138,1296,l),
(99,753,l),
(209,739,l),
(242,1188,l),
(633,1188,l),
(633,108,l),
(355,108,l),
(355,0,l),
(1027,0,l),
(1027,108,l),
(748,108,l),
(748,1188,l),
(1139,1188,l),
(1172,739,l),
(1282,753,l)
);
}
);
width = 1381;
}
);
unicode = 84;
},
{
glyphname = uni0055;
layers = (
{
layerId = "FD843F08-4597-4AFB-9C66-7B47690262C1";
shapes = (
{
closed = 1;
nodes = (
(571,1296,l),
(55,1296,l),
(55,1188,l),
(221,1188,l),
(221,539,ls),
(221,500,o),
(223,396,o),
(237,288,o),
(269,182,o),
(299,140,qs),
(338,85,o),
(440,16,o),
(546,-25,o),
(649,-39,o),
(691,-39,qs),
(767,-39,o),
(893,-7,o),
(992,44,o),
(1061,101,o),
(1080,129,q),
(1098,154,o),
(1128,216,o),
(1151,306,o),
(1162,428,o),
(1162,516,qs),
(1162,1188,l),
(1328,1188,l),
(1328,1296,l),
(813,1296,l),
(813,1188,l),
(1047,1188,l),
(1047,516,ls),
(1047,437,o),
(1036,283,o),
(1001,221,q),
(969,157,o),
(824,76,o),
(688,76,qs),
(555,76,o),
(412,170,o),
(380,239,qs),
(348,306,o),
(336,467,o),
(336,539,qs),
(336,1188,l),
(571,1188,l)
);
}
);
width = 1381;
}
);
unicode = 85;
},
{
glyphname = uni0056;
layers = (
{
layerId = "FD843F08-4597-4AFB-9C66-7B47690262C1";
shapes = (
{
closed = 1;
nodes = (
(506,1296,l),
(14,1296,l),
(14,1188,l),
(173,1188,l),
(624,0,l),
(767,0,l),
(1222,1188,l),
(1367,1188,l),
(1367,1296,l),
(877,1296,l),
(877,1188,l),
(1112,1188,l),
(697,129,l),
(290,1188,l),
(506,1188,l)
);
}
);
width = 1381;
}
);
unicode = 86;
},
{
glyphname = uni0057;
layers = (
{
layerId = "FD843F08-4597-4AFB-9C66-7B47690262C1";
shapes = (
{
closed = 1;
nodes = (
(458,1296,l),
(5,1296,l),
(5,1188,l),
(113,1188,l),
(274,0,l),
(389,0,l),
(686,838,l),
(691,838,l),
(983,0,l),
(1098,0,l),
(1271,1188,l),
(1377,1188,l),
(1377,1296,l),
(928,1296,l),
(928,1188,l),
(1162,1188,l),
(1029,221,l),
(1024,221,l),
(734,1059,l),
(656,1059,l),
(359,221,l),
(355,221,l),
(226,1188,l),
(458,1188,l)
);
}
);
width = 1381;
}
);
unicode = 87;
},
{
glyphname = uni0058;
layers = (
{
layerId = "FD843F08-4597-4AFB-9C66-7B47690262C1";
shapes = (
{
closed = 1;
nodes = (
(566,1296,l),
(120,1296,l),
(120,1188,l),
(242,1188,l),
(628,681,l),
(193,108,l),
(76,108,l),
(76,0,l),
(566,0,l),
(566,108,l),
(322,108,l),
(693,596,l),
(1047,108,l),
(840,108,l),
(840,0,l),
(1305,0,l),
(1305,108,l),
(1186,108,l),
(757,681,l),
(1144,1188,l),
(1261,1188,l),
(1261,1296,l),
(840,1296,l),
(840,1188,l),
(1015,1188,l),
(693,767,l),
(378,1188,l),
(566,1188,l)
);
}
);
width = 1381;
}
);
unicode = 88;
},
{
glyphname = uni0059;
layers = (
{
layerId = "FD843F08-4597-4AFB-9C66-7B47690262C1";
shapes = (
{
closed = 1;
nodes = (
(525,1296,l),
(74,1296,l),
(74,1188,l),
(219,1188,l),
(635,502,l),
(635,108,l),
(361,108,l),
(361,0,l),
(1022,0,l),
(1022,108,l),
(750,108,l),
(750,502,l),
(1162,1188,l),
(1308,1188,l),
(1308,1296,l),
(861,1296,l),
(861,1188,l),
(1040,1188,l),
(697,617,l),
(350,1188,l),
(525,1188,l)
);
}
);
width = 1381;
}
);
unicode = 89;
},
{
glyphname = uni005A;
layers = (
{
layerId = "FD843F08-4597-4AFB-9C66-7B47690262C1";
shapes = (
{
closed = 1;
nodes = (
(1135,1296,l),
(209,1296,l),
(209,852,l),
(318,852,l),
(318,1188,l),
(988,1188,l),
(193,108,l),
(193,0,l),
(1188,0,l),
(1188,481,l),
(1080,481,l),
(1080,108,l),
(331,108,l),
(1135,1202,l)
);
}
);
width = 1381;
}
);
unicode = 90;
},
{
glyphname = uni005B;
layers = (
{
layerId = "FD843F08-4597-4AFB-9C66-7B47690262C1";
shapes = (
{
closed = 1;
nodes = (
(1116,1505,l),
(711,1505,l),
(711,-216,l),
(1116,-216,l),
(1116,-101,l),
(826,-101,l),
(826,1390,l),
(1116,1390,l)
);
}
);
width = 1381;
}
);
unicode = 91;
},
{
glyphname = uni005C;
layers = (
{
layerId = "FD843F08-4597-4AFB-9C66-7B47690262C1";
shapes = (
{
closed = 1;
nodes = (
(1176,-274,l),
(313,1623,l),
(214,1579,l),
(1077,-320,l)
);
}
);
width = 1381;
}
);
unicode = 92;
},
{
glyphname = uni005D;
layers = (
{
layerId = "FD843F08-4597-4AFB-9C66-7B47690262C1";
shapes = (
{
closed = 1;
nodes = (
(265,-216,l),
(670,-216,l),
(670,1505,l),
(265,1505,l),
(265,1390,l),
(555,1390,l),
(555,-101,l),
(265,-101,l)
);
}
);
width = 1381;
}
);
unicode = 93;
},
{
glyphname = uni005E;
layers = (
{
layerId = "FD843F08-4597-4AFB-9C66-7B47690262C1";
shapes = (
{
closed = 1;
nodes = (
(315,355,l),
(691,1158,l),
(1066,355,l),
(1213,355,l),
(776,1296,l),
(605,1296,l),
(168,355,l)
);
}
);
width = 1381;
}
);
unicode = 94;
},
{
glyphname = uni005F;
layers = (
{
layerId = "FD843F08-4597-4AFB-9C66-7B47690262C1";
shapes = (
{
closed = 1;
nodes = (
(1492,-173,l),
(-110,-173,l),
(-110,-288,l),
(1492,-288,l)
);
}
);
width = 1381;
}
);
unicode = 95;
},
{
glyphname = uni0060;
layers = (
{
layerId = "FD843F08-4597-4AFB-9C66-7B47690262C1";
shapes = (
{
closed = 1;
nodes = (
(684,1423,l),
(437,1423,l),
(741,1158,l),
(861,1158,l)
);
}
);
width = 1381;
}
);
unicode = 96;
},
{
glyphname = uni0061;
layers = (
{
layerId = "FD843F08-4597-4AFB-9C66-7B47690262C1";
shapes = (
{
closed = 1;
nodes = (
(946,320,l),
(872,237,o),
(737,140,o),
(622,92,o),
(532,78,o),
(504,78,qs),
(456,78,o),
(368,113,o),
(299,170,o),
(260,246,o),
(260,290,qs),
(260,299,o),
(274,378,o),
(348,463,o),
(504,529,o),
(647,529,qs),
(744,529,o),
(907,511,o),
(946,504,q)
);
},
{
closed = 1;
nodes = (
(1061,108,l),
(1061,681,ls),
(1061,716,o),
(1050,833,o),
(976,951,o),
(817,1036,o),
(670,1036,qs),
(532,1036,o),
(304,965,o),
(230,932,q),
(274,829,l),
(412,889,o),
(605,925,o),
(668,925,qs),
(771,925,o),
(886,870,o),
(937,792,o),
(946,709,o),
(946,681,qs),
(946,610,l),
(893,619,o),
(785,631,o),
(695,638,o),
(631,640,o),
(624,640,qs),
(481,640,o),
(292,566,o),
(182,458,o),
(136,338,o),
(136,292,qs),
(136,232,o),
(186,117,o),
(283,25,o),
(419,-32,o),
(506,-32,qs),
(578,-32,o),
(707,5,o),
(817,62,o),
(912,134,o),
(946,166,q),
(946,0,l),
(1266,0,l),
(1266,108,l)
);
}
);
width = 1381;
}
);
unicode = 97;
},
{
glyphname = uni0062;
layers = (
{
layerId = "FD843F08-4597-4AFB-9C66-7B47690262C1";
shapes = (
{
closed = 1;
nodes = (
(341,569,o),
(403,711,o),
(511,819,o),
(656,884,o),
(741,884,qs),
(824,884,o),
(967,819,o),
(1070,711,o),
(1128,566,o),
(1128,488,qs),
(1128,410,o),
(1073,267,o),
(971,157,o),
(829,92,o),
(744,92,qs),
(656,92,o),
(509,157,o),
(403,265,o),
(341,410,o),
(341,490,qs)
);
},
{
closed = 1;
nodes = (
(338,1448,l),
(12,1427,l),
(12,1319,l),
(223,1331,l),
(223,108,l),
(39,108,l),
(39,0,l),
(338,0,l),
(338,177,l),
(359,154,o),
(421,85,o),
(518,23,o),
(651,-23,o),
(746,-23,qs),
(859,-23,o),
(1045,64,o),
(1179,207,o),
(1252,389,o),
(1252,486,qs),
(1252,592,o),
(1172,780,o),
(1031,918,o),
(843,999,o),
(737,999,qs),
(610,999,o),
(414,893,o),
(343,796,q),
(338,796,l)
);
}
);
width = 1381;
}
);
unicode = 98;
},
{
glyphname = uni0063;
layers = (
{
layerId = "FD843F08-4597-4AFB-9C66-7B47690262C1";
shapes = (
{
closed = 1;
nodes = (
(1098,1020,l),
(1087,974,o),
(1084,946,q),
(1082,935,o),
(1070,895,o),
(1061,895,q),
(1059,895,o),
(1052,902,q),
(948,985,o),
(780,1024,o),
(714,1024,qs),
(573,1024,o),
(366,930,o),
(230,778,o),
(163,589,o),
(163,497,qs),
(163,387,o),
(242,196,o),
(384,51,o),
(582,-32,o),
(704,-32,qs),
(801,-32,o),
(971,16,o),
(1114,87,o),
(1227,163,o),
(1264,191,q),
(1204,279,l),
(1077,191,o),
(840,83,o),
(716,83,qs),
(601,83,o),
(440,159,o),
(336,281,o),
(288,428,o),
(288,500,qs),
(288,573,o),
(341,721,o),
(449,838,o),
(615,909,o),
(725,909,qs),
(836,909,o),
(969,852,o),
(1040,773,o),
(1068,691,o),
(1075,668,q),
(1084,628,l),
(1190,645,l),
(1183,734,o),
(1183,796,qs),
(1183,856,o),
(1199,974,o),
(1204,1008,q)
);
}
);
width = 1381;
}
);
unicode = 99;
},
{
glyphname = uni0064;
layers = (
{
layerId = "FD843F08-4597-4AFB-9C66-7B47690262C1";
shapes = (
{
closed = 1;
nodes = (
(1022,398,o),
(960,256,o),
(852,152,o),
(711,92,o),
(633,92,qs),
(555,92,o),
(414,150,o),
(308,256,o),
(246,403,o),
(246,490,qs),
(246,580,o),
(311,725,o),
(417,829,o),
(557,884,o),
(633,884,qs),
(730,884,o),
(875,810,o),
(971,693,o),
(1022,552,o),
(1022,483,qs)
);
},
{
closed = 1;
nodes = (
(1142,1443,l),
(649,1400,l),
(656,1296,l),
(1027,1319,l),
(1027,801,l),
(1022,801,l),
(958,898,o),
(737,999,o),
(628,999,qs),
(534,999,o),
(355,928,o),
(209,794,o),
(122,605,o),
(122,488,qs),
(122,384,o),
(200,198,o),
(338,60,o),
(525,-23,o),
(633,-23,qs),
(649,-23,o),
(734,-18,o),
(847,18,o),
(969,97,o),
(1022,170,q),
(1027,170,l),
(1027,0,l),
(1337,0,l),
(1337,108,l),
(1142,108,l)
);
}
);
width = 1381;
}
);
unicode = 100;
},
{
glyphname = uni0065;
layers = (
{
layerId = "FD843F08-4597-4AFB-9C66-7B47690262C1";
shapes = (
{
closed = 1;
nodes = (
(295,571,l),
(302,610,o),
(350,727,o),
(447,836,o),
(601,914,o),
(716,914,qs),
(819,914,o),
(969,849,o),
(1066,748,o),
(1114,626,o),
(1114,571,q)
);
},
{
closed = 1;
nodes = (
(1234,232,l),
(1197,214,o),
(1087,161,o),
(953,113,o),
(803,78,o),
(732,78,qs),
(599,78,o),
(430,166,o),
(334,285,o),
(297,417,o),
(295,463,q),
(1234,463,l),
(1234,474,o),
(1238,539,o),
(1238,566,qs),
(1238,645,o),
(1174,808,o),
(1043,941,o),
(847,1024,o),
(716,1024,qs),
(589,1024,o),
(387,939,o),
(246,792,o),
(170,599,o),
(170,493,qs),
(170,391,o),
(239,200,o),
(380,55,o),
(589,-32,o),
(730,-32,qs),
(810,-32,o),
(971,0,o),
(1116,48,o),
(1241,106,o),
(1287,131,q)
);
}
);
width = 1381;
}
);
unicode = 101;
},
{
glyphname = uni0066;
layers = (
{
layerId = "FD843F08-4597-4AFB-9C66-7B47690262C1";
shapes = (
{
closed = 1;
nodes = (
(463,962,l),
(223,962,l),
(223,854,l),
(463,854,l),
(463,108,l),
(223,108,l),
(223,0,l),
(1068,0,l),
(1068,108,l),
(578,108,l),
(578,854,l),
(1068,854,l),
(1068,962,l),
(578,962,l),
(578,1084,ls),
(578,1130,o),
(585,1218,o),
(626,1284,o),
(714,1324,o),
(794,1324,qs),
(868,1324,o),
(1040,1305,o),
(1116,1287,q),
(1165,1402,l),
(1091,1416,o),
(921,1439,o),
(824,1439,qs),
(700,1439,o),
(555,1383,o),
(483,1289,o),
(463,1162,o),
(463,1091,qs)
);
}
);
width = 1381;
}
);
unicode = 102;
},
{
glyphname = uni0067;
layers = (
{
layerId = "FD843F08-4597-4AFB-9C66-7B47690262C1";
shapes = (
{
closed = 1;
nodes = (
(971,435,o),
(918,302,o),
(822,200,o),
(686,138,o),
(605,138,qs),
(529,138,o),
(394,196,o),
(292,297,o),
(232,433,o),
(232,513,qs),
(232,596,o),
(295,732,o),
(398,829,o),
(532,884,o),
(605,884,qs),
(677,884,o),
(810,831,o),
(912,732,o),
(971,592,o),
(971,506,qs)
);
},
{
closed = 1;
nodes = (
(1273,990,l),
(971,990,l),
(971,822,l),
(967,822,l),
(918,889,o),
(799,960,o),
(691,994,o),
(610,999,o),
(601,999,qs),
(504,999,o),
(327,925,o),
(191,796,o),
(108,617,o),
(108,511,qs),
(108,414,o),
(184,237,o),
(315,101,o),
(495,23,o),
(601,23,qs),
(677,23,o),
(803,64,o),
(895,124,o),
(955,184,o),
(967,203,q),
(971,203,l),
(971,69,ls),
(971,-48,o),
(905,-180,o),
(769,-242,o),
(559,-253,o),
(414,-253,q),
(414,-361,l),
(559,-361,ls),
(714,-361,o),
(916,-306,o),
(1038,-198,o),
(1087,-37,o),
(1087,69,qs),
(1087,882,l),
(1273,882,l)
);
}
);
width = 1381;
}
);
unicode = 103;
},
{
glyphname = uni0068;
layers = (
{
layerId = "FD843F08-4597-4AFB-9C66-7B47690262C1";
shapes = (
{
closed = 1;
nodes = (
(396,1448,l),
(58,1420,l),
(67,1312,l),
(281,1331,l),
(281,108,l),
(87,108,l),
(87,0,l),
(578,0,l),
(578,108,l),
(396,108,l),
(396,725,l),
(437,760,o),
(529,824,o),
(633,877,o),
(739,909,o),
(794,909,qs),
(898,909,o),
(1015,760,o),
(1015,635,qs),
(1015,108,l),
(819,108,l),
(819,0,l),
(1324,0,l),
(1324,108,l),
(1130,108,l),
(1130,645,ls),
(1130,727,o),
(1084,868,o),
(994,969,o),
(868,1024,o),
(790,1024,qs),
(727,1024,o),
(617,994,o),
(520,946,o),
(433,889,o),
(396,861,q)
);
}
);
width = 1381;
}
);
unicode = 104;
},
{
glyphname = uni0069;
layers = (
{
layerId = "FD843F08-4597-4AFB-9C66-7B47690262C1";
shapes = (
{
closed = 1;
nodes = (
(587,1510,l),
(587,1236,l),
(753,1236,l),
(753,1510,l)
);
},
{
closed = 1;
nodes = (
(753,990,l),
(299,990,l),
(299,882,l),
(638,882,l),
(638,108,l),
(232,108,l),
(232,0,l),
(1151,0,l),
(1151,108,l),
(753,108,l)
);
}
);
width = 1381;
}
);
unicode = 105;
},
{
glyphname = uni006A;
layers = (
{
layerId = "FD843F08-4597-4AFB-9C66-7B47690262C1";
shapes = (
{
closed = 1;
nodes = (
(686,1510,l),
(686,1236,l),
(852,1236,l),
(852,1510,l)
);
},
{
closed = 1;
nodes = (
(898,990,l),
(196,990,l),
(196,882,l),
(783,882,l),
(783,108,ls),
(783,60,o),
(773,-60,o),
(716,-163,o),
(589,-232,o),
(474,-232,qs),
(387,-232,o),
(228,-209,o),
(182,-198,q),
(157,-308,l),
(223,-322,o),
(375,-348,o),
(467,-348,qs),
(628,-348,o),
(803,-244,o),
(884,-104,o),
(898,46,o),
(898,92,qs)
);
}
);
width = 1381;
}
);
unicode = 106;
},
{
glyphname = uni006B;
layers = (
{
layerId = "FD843F08-4597-4AFB-9C66-7B47690262C1";
shapes = (
{
closed = 1;
nodes = (
(426,1448,l),
(83,1418,l),
(92,1310,l),
(311,1328,l),
(311,108,l),
(120,108,l),
(120,0,l),
(426,0,l),
(426,421,l),
(555,520,l),
(638,442,o),
(760,325,o),
(854,230,o),
(930,150,o),
(965,108,q),
(817,108,l),
(817,0,l),
(1296,0,l),
(1296,108,l),
(1103,108,l),
(1070,147,o),
(971,260,o),
(849,387,o),
(711,523,o),
(642,585,q),
(1029,882,l),
(1209,882,l),
(1209,990,l),
(727,990,l),
(727,882,l),
(856,882,l),
(856,877,l),
(426,550,l)
);
}
);
width = 1381;
}
);
unicode = 107;
},
{
glyphname = uni006C;
layers = (
{
layerId = "FD843F08-4597-4AFB-9C66-7B47690262C1";
shapes = (
{
closed = 1;
nodes = (
(748,1406,l),
(246,1374,l),
(258,1268,l),
(633,1296,l),
(633,108,l),
(232,108,l),
(232,0,l),
(1149,0,l),
(1149,108,l),
(748,108,l)
);
}
);
width = 1381;
}
);
unicode = 108;
},
{
glyphname = uni006D;
layers = (
{
layerId = "FD843F08-4597-4AFB-9C66-7B47690262C1";
shapes = (
{
closed = 1;
nodes = (
(262,990,l),
(0,990,l),
(0,882,l),
(157,882,l),
(157,108,l),
(0,108,l),
(0,0,l),
(428,0,l),
(428,108,l),
(272,108,l),
(272,771,l),
(285,790,o),
(327,833,o),
(382,872,o),
(451,900,o),
(493,900,qs),
(550,900,o),
(612,845,o),
(640,767,o),
(645,672,o),
(645,635,qs),
(645,0,l),
(902,0,l),
(902,108,l),
(760,108,l),
(760,748,l),
(824,838,o),
(937,900,o),
(985,900,qs),
(1040,900,o),
(1100,852,o),
(1128,771,o),
(1133,674,o),
(1133,626,qs),
(1133,0,l),
(1379,0,l),
(1379,108,l),
(1248,108,l),
(1248,626,ls),
(1248,691,o),
(1241,780,o),
(1227,843,o),
(1204,891,o),
(1188,916,qs),
(1158,962,o),
(1043,1015,o),
(983,1015,qs),
(902,1015,o),
(771,930,o),
(721,870,q),
(688,939,o),
(564,1015,o),
(490,1015,qs),
(449,1015,o),
(378,992,o),
(327,962,o),
(295,937,o),
(292,935,q),
(262,909,l)
);
}
);
width = 1381;
}
);
unicode = 109;
},
{
glyphname = uni006E;
layers = (
{
layerId = "FD843F08-4597-4AFB-9C66-7B47690262C1";
shapes = (
{
closed = 1;
nodes = (
(382,990,l),
(78,990,l),
(78,882,l),
(267,882,l),
(267,108,l),
(78,108,l),
(78,0,l),
(575,0,l),
(575,108,l),
(382,108,l),
(382,725,l),
(460,787,o),
(582,859,o),
(679,898,o),
(753,909,o),
(780,909,qs),
(884,909,o),
(1006,762,o),
(1006,635,qs),
(1006,108,l),
(808,108,l),
(808,0,l),
(1305,0,l),
(1305,108,l),
(1121,108,l),
(1121,645,ls),
(1121,727,o),
(1073,868,o),
(983,969,o),
(856,1024,o),
(778,1024,qs),
(716,1024,o),
(605,994,o),
(506,946,o),
(419,889,o),
(382,861,q)
);
}
);
width = 1381;
}
);
unicode = 110;
},
{
glyphname = uni006F;
layers = (
{
layerId = "FD843F08-4597-4AFB-9C66-7B47690262C1";
shapes = (
{
closed = 1;
nodes = (
(244,585,o),
(302,734,o),
(417,852,o),
(582,921,o),
(691,921,qs),
(801,921,o),
(969,849,o),
(1080,732,o),
(1137,580,o),
(1137,502,qs),
(1137,421,o),
(1080,272,o),
(969,154,o),
(801,83,o),
(691,83,qs),
(582,83,o),
(414,152,o),
(302,269,o),
(244,421,o),
(244,502,qs)
);
},
{
closed = 1;
nodes = (
(120,398,o),
(193,207,o),
(336,58,o),
(550,-32,o),
(691,-32,qs),
(836,-32,o),
(1050,60,o),
(1190,212,o),
(1261,403,o),
(1261,502,qs),
(1261,601,o),
(1190,792,o),
(1050,944,o),
(836,1036,o),
(691,1036,qs),
(550,1036,o),
(336,946,o),
(193,799,o),
(120,605,o),
(120,502,qs)
);
}
);
width = 1381;
}
);
unicode = 111;
},
{
glyphname = uni0070;
layers = (
{
layerId = "FD843F08-4597-4AFB-9C66-7B47690262C1";
shapes = (
{
closed = 1;
nodes = (
(338,589,o),
(401,734,o),
(509,840,o),
(661,905,o),
(750,905,qs),
(847,905,o),
(992,833,o),
(1089,721,o),
(1137,578,o),
(1137,506,qs),
(1137,419,o),
(1073,269,o),
(967,161,o),
(826,99,o),
(748,99,qs),
(681,99,o),
(536,152,o),
(417,256,o),
(338,410,o),
(338,511,qs)
);
},
{
closed = 1;
nodes = (
(348,990,l),
(44,990,l),
(44,882,l),
(232,882,l),
(232,-253,l),
(44,-253,l),
(44,-361,l),
(691,-361,l),
(691,-253,l),
(348,-253,l),
(348,182,l),
(352,182,l),
(412,108,o),
(541,28,o),
(656,-9,o),
(739,-16,o),
(753,-16,qs),
(845,-16,o),
(1029,60,o),
(1172,198,o),
(1261,389,o),
(1261,504,qs),
(1261,603,o),
(1190,787,o),
(1054,932,o),
(866,1020,o),
(748,1020,qs),
(656,1020,o),
(520,974,o),
(424,912,o),
(366,847,o),
(352,826,q),
(348,826,l)
);
}
);
width = 1381;
}
);
unicode = 112;
},
{
glyphname = uni0071;
layers = (
{
layerId = "FD843F08-4597-4AFB-9C66-7B47690262C1";
shapes = (
{
closed = 1;
nodes = (
(1043,410,o),
(965,256,o),
(845,152,o),
(700,99,o),
(633,99,qs),
(555,99,o),
(414,161,o),
(306,269,o),
(244,419,o),
(244,506,qs),
(244,578,o),
(292,721,o),
(389,833,o),
(534,905,o),
(631,905,qs),
(721,905,o),
(872,840,o),
(981,734,o),
(1043,589,o),
(1043,511,qs)
);
},
{
closed = 1;
nodes = (
(1337,882,l),
(1337,990,l),
(1034,990,l),
(1034,826,l),
(1029,826,l),
(1015,847,o),
(958,912,o),
(861,974,o),
(725,1020,o),
(633,1020,qs),
(516,1020,o),
(327,932,o),
(191,787,o),
(120,603,o),
(120,504,qs),
(120,389,o),
(209,198,o),
(352,60,o),
(534,-16,o),
(628,-16,qs),
(642,-16,o),
(725,-9,o),
(840,28,o),
(969,108,o),
(1029,182,q),
(1034,182,l),
(1034,-253,l),
(691,-253,l),
(691,-361,l),
(1337,-361,l),
(1337,-253,l),
(1149,-253,l),
(1149,882,l)
);
}
);
width = 1381;
}
);
unicode = 113;
},
{
glyphname = uni0072;
layers = (
{
layerId = "FD843F08-4597-4AFB-9C66-7B47690262C1";
shapes = (
{
closed = 1;
nodes = (
(573,990,l),
(191,990,l),
(191,882,l),
(458,882,l),
(458,108,l),
(173,108,l),
(173,0,l),
(1011,0,l),
(1011,108,l),
(573,108,l),
(573,612,l),
(603,645,o),
(697,746,o),
(817,840,o),
(955,907,o),
(1031,907,qs),
(1066,907,o),
(1114,891,o),
(1146,866,o),
(1167,836,o),
(1176,822,q),
(1176,817,o),
(1183,808,o),
(1186,806,q),
(1308,895,l),
(1289,918,o),
(1245,962,o),
(1183,999,o),
(1103,1022,o),
(1050,1022,qs),
(967,1022,o),
(826,969,o),
(709,891,o),
(612,799,o),
(573,760,q)
);
}
);
width = 1381;
}
);
unicode = 114;
},
{
glyphname = uni0073;
layers = (
{
layerId = "FD843F08-4597-4AFB-9C66-7B47690262C1";
shapes = (
{
closed = 1;
nodes = (
(1006,1036,l),
(1001,1024,o),
(997,1011,o),
(992,988,q),
(988,976,o),
(969,932,o),
(951,932,qs),
(937,932,o),
(905,948,o),
(900,953,q),
(868,971,o),
(739,1020,o),
(635,1020,qs),
(546,1020,o),
(394,976,o),
(288,898,o),
(228,792,o),
(228,730,qs),
(228,626,o),
(343,509,o),
(500,451,o),
(661,435,o),
(707,433,qs),
(778,430,o),
(900,421,o),
(988,391,o),
(1036,331,o),
(1036,281,qs),
(1036,214,o),
(955,136,o),
(845,94,o),
(730,81,o),
(695,81,qs),
(575,81,o),
(433,145,o),
(357,232,o),
(329,325,o),
(325,355,q),
(223,343,l),
(228,304,o),
(237,189,o),
(237,115,qs),
(237,58,o),
(228,0,o),
(223,-30,q),
(325,-30,l),
(336,9,o),
(355,67,o),
(371,67,q),
(375,67,o),
(378,64,q),
(382,62,l),
(403,51,o),
(465,18,o),
(552,-14,o),
(658,-35,o),
(721,-35,qs),
(796,-35,o),
(951,2,o),
(1080,81,o),
(1160,203,o),
(1160,285,qs),
(1160,375,o),
(1070,479,o),
(955,529,o),
(847,543,o),
(826,543,q),
(725,548,o),
(552,562,o),
(424,601,o),
(352,672,o),
(352,734,qs),
(352,806,o),
(500,905,o),
(638,905,qs),
(757,905,o),
(895,854,o),
(967,783,o),
(992,700,o),
(999,665,q),
(1100,677,l),
(1096,707,o),
(1089,773,o),
(1089,822,qs),
(1089,889,o),
(1103,983,o),
(1110,1020,q)
);
}
);
width = 1381;
}
);
unicode = 115;
},
{
glyphname = uni0074;
layers = (
{
layerId = "FD843F08-4597-4AFB-9C66-7B47690262C1";
shapes = (
{
closed = 1;
nodes = (
(513,1296,l),
(398,1296,l),
(398,958,l),
(242,958,l),
(242,849,l),
(398,849,l),
(398,414,ls),
(398,299,o),
(419,131,o),
(479,71,qs),
(516,35,o),
(654,-32,o),
(764,-32,qs),
(877,-32,o),
(1128,48,o),
(1238,99,q),
(1197,203,l),
(1096,161,o),
(953,113,o),
(852,90,o),
(780,83,o),
(753,83,qs),
(663,83,o),
(564,138,o),
(520,230,o),
(513,350,o),
(513,414,qs),
(513,849,l),
(1070,849,l),
(1070,958,l),
(513,958,l)
);
}
);
width = 1381;
}
);
unicode = 116;
},
{
glyphname = uni0075;
layers = (
{
layerId = "FD843F08-4597-4AFB-9C66-7B47690262C1";
shapes = (
{
closed = 1;
nodes = (
(378,990,l),
(74,990,l),
(74,882,l),
(262,882,l),
(262,380,ls),
(262,311,o),
(292,166,o),
(371,46,o),
(509,-32,o),
(617,-32,qs),
(684,-32,o),
(794,2,o),
(884,51,o),
(953,106,o),
(978,127,q),
(978,0,l),
(1280,0,l),
(1280,108,l),
(1093,108,l),
(1093,990,l),
(780,990,l),
(780,882,l),
(978,882,l),
(978,283,l),
(882,180,o),
(704,83,o),
(608,83,qs),
(520,83,o),
(428,159,o),
(384,258,o),
(378,357,o),
(378,380,qs)
);
}
);
width = 1381;
}
);
unicode = 117;
},
{
glyphname = uni0076;
layers = (
{
layerId = "FD843F08-4597-4AFB-9C66-7B47690262C1";
shapes = (
{
closed = 1;
nodes = (
(539,990,l),
(48,990,l),
(48,882,l),
(219,882,l),
(638,0,l),
(746,0,l),
(1162,882,l),
(1333,882,l),
(1333,990,l),
(866,990,l),
(866,882,l),
(1047,882,l),
(697,134,l),
(352,882,l),
(539,882,l)
);
}
);
width = 1381;
}
);
unicode = 118;
},
{
glyphname = uni0077;
layers = (
{
layerId = "FD843F08-4597-4AFB-9C66-7B47690262C1";
shapes = (
{
closed = 1;
nodes = (
(417,990,l),
(5,990,l),
(5,882,l),
(104,882,l),
(364,0,l),
(477,0,l),
(691,594,l),
(909,0,l),
(1029,0,l),
(1287,882,l),
(1377,882,l),
(1377,990,l),
(985,990,l),
(985,882,l),
(1179,882,l),
(971,175,l),
(967,175,l),
(739,810,l),
(658,810,l),
(433,184,l),
(428,184,l),
(226,882,l),
(417,882,l)
);
}
);
width = 1381;
}
);
unicode = 119;
},
{
glyphname = uni0078;
layers = (
{
layerId = "FD843F08-4597-4AFB-9C66-7B47690262C1";
shapes = (
{
closed = 1;
nodes = (
(539,990,l),
(94,990,l),
(94,882,l),
(242,882,l),
(608,518,l),
(203,108,l),
(60,108,l),
(60,0,l),
(513,0,l),
(513,108,l),
(352,108,l),
(686,444,l),
(1017,108,l),
(854,108,l),
(854,0,l),
(1321,0,l),
(1321,108,l),
(1176,108,l),
(762,518,l),
(1123,882,l),
(1264,882,l),
(1264,990,l),
(840,990,l),
(840,882,l),
(974,882,l),
(686,594,l),
(398,882,l),
(539,882,l)
);
}
);
width = 1381;
}
);
unicode = 120;
},
{
glyphname = uni0079;
layers = (
{
layerId = "FD843F08-4597-4AFB-9C66-7B47690262C1";
shapes = (
{
closed = 1;
nodes = (
(486,990,l),
(55,990,l),
(55,882,l),
(196,882,l),
(624,62,l),
(447,-244,l),
(92,-244,l),
(92,-352,l),
(783,-352,l),
(783,-244,l),
(578,-244,l),
(1222,882,l),
(1356,882,l),
(1356,990,l),
(935,990,l),
(935,882,l),
(1091,882,l),
(691,182,l),
(327,882,l),
(486,882,l)
);
}
);
width = 1381;
}
);
unicode = 121;
},
{
glyphname = uni007A;
layers = (
{
layerId = "FD843F08-4597-4AFB-9C66-7B47690262C1";
shapes = (
{
closed = 1;
nodes = (
(1142,990,l),
(262,990,l),
(262,677,l),
(371,677,l),
(371,882,l),
(978,882,l),
(239,108,l),
(239,0,l),
(1142,0,l),
(1142,320,l),
(1034,320,l),
(1034,108,l),
(396,108,l),
(1142,891,l)
);
}
);
width = 1381;
}
);
unicode = 122;
},
{
glyphname = uni007B;
layers = (
{
layerId = "FD843F08-4597-4AFB-9C66-7B47690262C1";
shapes = (
{
closed = 1;
nodes = (
(1061,1501,l),
(1038,1501,o),
(914,1496,o),
(783,1443,o),
(681,1324,o),
(681,1209,qs),
(681,1188,o),
(686,1156,o),
(693,1114,o),
(707,1054,o),
(716,1006,q),
(718,997,o),
(725,962,o),
(732,916,o),
(737,870,o),
(737,849,qs),
(737,778,o),
(628,709,o),
(541,700,q),
(541,582,l),
(557,580,o),
(624,569,o),
(688,539,o),
(737,483,o),
(737,437,qs),
(737,398,o),
(723,313,o),
(716,276,q),
(714,269,o),
(707,244,o),
(700,214,o),
(695,189,o),
(695,182,q),
(686,143,o),
(681,83,o),
(681,67,qs),
(681,-25,o),
(780,-170,o),
(872,-200,qs),
(928,-219,o),
(969,-219,qs),
(1061,-219,l),
(1061,-108,l),
(1024,-108,o),
(935,-101,o),
(854,-69,o),
(801,0,o),
(801,62,qs),
(801,101,o),
(810,177,o),
(829,251,q),
(847,331,l),
(849,343,o),
(859,405,o),
(859,433,qs),
(859,474,o),
(836,539,o),
(796,587,o),
(753,624,o),
(732,640,q),
(753,656,o),
(799,695,o),
(836,744,o),
(859,808,o),
(859,849,qs),
(859,877,o),
(849,939,o),
(847,951,q),
(829,1031,l),
(810,1105,o),
(801,1181,o),
(801,1218,qs),
(801,1280,o),
(852,1349,o),
(928,1383,o),
(1020,1390,o),
(1061,1390,q)
);
}
);
width = 1381;
}
);
unicode = 123;
},
{
glyphname = uni007C;
layers = (
{
layerId = "FD843F08-4597-4AFB-9C66-7B47690262C1";
shapes = (
{
closed = 1;
nodes = (
(753,-426,l),
(753,1549,l),
(631,1549,l),
(631,-426,l)
);
}
);
width = 1381;
}
);
unicode = 124;
},
{
glyphname = uni007D;
layers = (
{
layerId = "FD843F08-4597-4AFB-9C66-7B47690262C1";
shapes = (
{
closed = 1;
nodes = (
(320,-219,l),
(343,-219,o),
(467,-214,o),
(599,-163,o),
(700,-41,o),
(700,74,qs),
(700,94,o),
(695,127,o),
(688,168,o),
(674,228,o),
(665,276,q),
(663,285,o),
(656,320,o),
(649,366,o),
(645,412,o),
(645,433,qs),
(645,504,o),
(753,573,o),
(840,582,q),
(840,700,l),
(822,702,o),
(757,714,o),
(693,744,o),
(645,799,o),
(645,845,qs),
(645,884,o),
(658,969,o),
(665,1006,q),
(668,1013,o),
(674,1038,o),
(681,1068,o),
(686,1093,o),
(686,1100,q),
(695,1139,o),
(700,1199,o),
(700,1215,qs),
(700,1308,o),
(601,1453,o),
(509,1482,qs),
(453,1501,o),
(410,1501,qs),
(320,1501,l),
(320,1390,l),
(357,1390,o),
(447,1383,o),
(525,1351,o),
(580,1282,o),
(580,1220,qs),
(580,1181,o),
(571,1105,o),
(552,1031,q),
(534,951,l),
(532,939,o),
(523,877,o),
(523,849,qs),
(523,767,o),
(608,672,o),
(649,642,q),
(628,626,o),
(582,587,o),
(546,539,o),
(523,474,o),
(523,433,qs),
(523,405,o),
(532,343,o),
(534,331,q),
(552,251,l),
(571,177,o),
(580,101,o),
(580,64,qs),
(580,2,o),
(529,-67,o),
(453,-101,o),
(361,-108,o),
(320,-108,q)
);
}
);
width = 1381;
}
);
unicode = 125;
},
{
glyphname = uni007E;
layers = (
{
layerId = "FD843F08-4597-4AFB-9C66-7B47690262C1";
shapes = (
{
closed = 1;
nodes = (
(1107,891,l),
(1105,889,o),
(1096,875,o),
(1096,870,q),
(1066,817,o),
(1008,757,o),
(955,725,o),
(914,716,o),
(900,716,qs),
(889,716,o),
(863,721,o),
(826,734,o),
(767,757,o),
(721,776,q),
(631,815,o),
(529,849,o),
(479,849,qs),
(424,849,o),
(341,806,o),
(274,739,o),
(221,656,o),
(198,617,q),
(274,527,l),
(322,610,o),
(410,718,o),
(479,718,qs),
(495,718,o),
(525,714,o),
(566,700,o),
(631,672,o),
(686,649,qs),
(746,624,o),
(822,599,o),
(868,587,o),
(893,585,o),
(902,585,qs),
(960,585,o),
(1052,635,o),
(1123,704,o),
(1172,778,o),
(1186,803,q)
);
}
);
width = 1381;
}
);
unicode = 126;
},
{
glyphname = uni00A1;
layers = (
{
layerId = "FD843F08-4597-4AFB-9C66-7B47690262C1";
shapes = (
{
closed = 1;
nodes = (
(757,753,o),
(849,833,o),
(849,893,qs),
(849,953,o),
(757,1036,o),
(691,1036,qs),
(624,1036,o),
(532,955,o),
(532,895,qs),
(532,836,o),
(622,753,o),
(691,753,qs)
);
},
{
closed = 1;
nodes = (
(638,552,l),
(594,-318,l),
(785,-318,l),
(744,552,l)
);
}
);
width = 1381;
}
);
unicode = 161;
},
{
glyphname = uni00A2;
layers = (
{
layerId = "FD843F08-4597-4AFB-9C66-7B47690262C1";
shapes = (
{
closed = 1;
nodes = (
(651,315,l),
(601,327,o),
(500,366,o),
(453,426,qs),
(412,479,o),
(375,599,o),
(375,649,qs),
(375,656,o),
(384,746,o),
(435,856,o),
(548,960,o),
(651,983,q)
);
},
{
closed = 1;
nodes = (
(764,990,l),
(794,990,o),
(895,965,o),
(941,932,q),
(971,912,o),
(1006,854,o),
(1024,796,o),
(1029,741,o),
(1029,721,q),
(1137,734,l),
(1133,787,o),
(1130,849,o),
(1130,872,qs),
(1130,918,o),
(1144,1017,o),
(1151,1059,q),
(1043,1070,l),
(1043,1066,o),
(1038,1043,q),
(1038,1043,o),
(1036,1034,q),
(1036,1024,o),
(1029,1006,o),
(1022,990,o),
(1015,990,q),
(1011,990,o),
(1006,997,o),
(1001,999,q),
(997,1004,o),
(962,1034,o),
(905,1064,o),
(819,1091,o),
(764,1096,q),
(764,1409,l),
(651,1409,l),
(651,1096,l),
(555,1080,o),
(407,997,o),
(308,877,o),
(256,727,o),
(256,647,qs),
(256,564,o),
(302,435,o),
(336,382,q),
(364,343,o),
(421,285,o),
(493,244,o),
(587,214,o),
(651,200,q),
(651,-131,l),
(764,-131,l),
(764,200,l),
(833,212,o),
(932,235,o),
(1017,267,o),
(1103,315,o),
(1158,352,q),
(1160,352,o),
(1169,359,o),
(1172,359,q),
(1116,453,l),
(1054,414,o),
(967,368,o),
(891,341,o),
(815,322,o),
(764,313,q)
);
}
);
width = 1381;
}
);
unicode = 162;
},
{
glyphname = uni00A3;
layers = (
{
layerId = "FD843F08-4597-4AFB-9C66-7B47690262C1";
shapes = (
{
closed = 1;
nodes = (
(221,780,l),
(221,672,l),
(463,672,l),
(490,585,o),
(490,495,qs),
(490,467,o),
(481,375,o),
(442,258,o),
(364,122,o),
(297,53,q),
(373,-46,l),
(470,9,o),
(587,44,o),
(633,44,qs),
(670,44,o),
(734,25,o),
(799,2,qs),
(854,-18,o),
(928,-32,o),
(960,-32,qs),
(1008,-32,o),
(1089,-7,o),
(1151,30,o),
(1199,71,o),
(1215,87,q),
(1149,170,l),
(1093,124,o),
(1008,76,o),
(953,76,qs),
(928,76,o),
(872,92,o),
(822,110,q),
(760,136,o),
(686,152,o),
(645,152,qs),
(592,152,o),
(513,124,o),
(481,108,q),
(477,113,l),
(497,140,o),
(539,214,o),
(575,308,o),
(599,428,o),
(599,504,qs),
(599,552,o),
(589,626,o),
(578,672,q),
(1105,672,l),
(1105,780,l),
(546,780,l),
(527,833,o),
(504,907,o),
(490,965,o),
(483,1008,o),
(483,1034,qs),
(483,1080,o),
(523,1174,o),
(599,1250,o),
(714,1296,o),
(787,1296,qs),
(861,1296,o),
(994,1255,o),
(1020,1241,q),
(1038,1229,o),
(1050,1190,o),
(1050,1176,qs),
(1050,1167,o),
(1047,1128,o),
(1045,1100,q),
(1149,1112,l),
(1153,1195,o),
(1174,1305,o),
(1192,1370,q),
(1089,1370,l),
(1082,1354,o),
(1075,1347,o),
(1070,1347,q),
(1066,1347,o),
(1050,1351,o),
(1045,1354,q),
(997,1372,o),
(870,1409,o),
(783,1409,qs),
(700,1409,o),
(552,1351,o),
(437,1250,o),
(371,1112,o),
(371,1031,qs),
(371,978,o),
(396,872,o),
(430,780,q)
);
}
);
width = 1381;
}
);
unicode = 163;
},
{
glyphname = uni00A4;
layers = (
{
layerId = "FD843F08-4597-4AFB-9C66-7B47690262C1";
shapes = (
{
closed = 1;
nodes = (
(994,592,o),
(951,483,o),
(872,398,o),
(757,348,o),
(688,348,qs),
(619,348,o),
(506,398,o),
(430,483,o),
(389,592,o),
(389,651,qs),
(389,707,o),
(430,815,o),
(509,900,o),
(619,953,o),
(691,953,qs),
(760,953,o),
(872,902,o),
(953,817,o),
(994,709,o),
(994,651,qs)
);
},
{
closed = 1;
nodes = (
(1209,219,l),
(1020,403,l),
(1031,419,o),
(1059,465,o),
(1084,527,o),
(1103,612,o),
(1103,668,qs),
(1103,693,o),
(1077,817,o),
(1020,898,q),
(1209,1084,l),
(1128,1160,l),
(941,976,l),
(928,985,o),
(884,1015,o),
(822,1043,o),
(741,1061,o),
(691,1061,qs),
(645,1061,o),
(511,1031,o),
(440,976,q),
(253,1160,l),
(173,1084,l),
(361,898,l),
(336,863,o),
(281,744,o),
(281,633,qs),
(281,615,o),
(302,490,o),
(361,403,q),
(173,219,l),
(253,140,l),
(440,325,l),
(479,295,o),
(557,260,o),
(624,244,o),
(677,239,o),
(691,239,qs),
(727,239,o),
(870,267,o),
(941,325,q),
(1128,140,l)
);
}
);
width = 1381;
}
);
unicode = 164;
},
{
glyphname = uni00A5;
layers = (
{
layerId = "FD843F08-4597-4AFB-9C66-7B47690262C1";
shapes = (
{
closed = 1;
nodes = (
(753,108,l),
(753,320,l),
(1084,320,l),
(1084,428,l),
(753,428,l),
(753,562,l),
(1084,562,l),
(1084,670,l),
(753,670,l),
(753,700,l),
(1169,1257,l),
(1308,1257,l),
(1308,1365,l),
(861,1365,l),
(861,1257,l),
(1036,1257,l),
(697,808,l),
(352,1257,l),
(527,1257,l),
(527,1365,l),
(74,1365,l),
(74,1257,l),
(214,1257,l),
(642,700,l),
(642,670,l),
(304,670,l),
(304,562,l),
(642,562,l),
(642,428,l),
(304,428,l),
(304,320,l),
(642,320,l),
(642,108,l),
(368,108,l),
(368,0,l),
(1027,0,l),
(1027,108,l)
);
}
);
width = 1381;
}
);
unicode = 165;
},
{
glyphname = uni00A6;
layers = (
{
layerId = "FD843F08-4597-4AFB-9C66-7B47690262C1";
shapes = (
{
closed = 1;
nodes = (
(753,-426,l),
(753,433,l),
(631,433,l),
(631,-426,l)
);
},
{
closed = 1;
nodes = (
(753,691,l),
(753,1549,l),
(631,1549,l),
(631,691,l)
);
}
);
width = 1381;
}
);
unicode = 166;
},
{
glyphname = uni00A7;
layers = (
{
layerId = "FD843F08-4597-4AFB-9C66-7B47690262C1";
shapes = (
{
closed = 1;
nodes = (
(866,582,ls),
(909,548,o),
(965,500,o),
(997,460,o),
(1008,424,o),
(1008,403,qs),
(1008,389,o),
(994,345,o),
(955,306,o),
(889,276,o),
(833,274,q),
(520,516,ls),
(447,571,o),
(405,635,o),
(405,665,q),
(405,670,o),
(410,711,o),
(442,760,o),
(509,803,o),
(571,810,q)
);
},
{
closed = 1;
nodes = (
(1080,990,l),
(1080,1296,l),
(739,1296,ls),
(700,1296,o),
(575,1282,o),
(523,1250,q),
(486,1225,o),
(417,1126,o),
(417,1052,qs),
(417,1038,o),
(433,941,o),
(472,898,q),
(433,891,o),
(366,845,o),
(315,780,o),
(285,702,o),
(285,663,qs),
(285,582,o),
(384,474,o),
(458,417,qs),
(767,180,ls),
(829,134,o),
(861,71,o),
(861,39,qs),
(861,0,o),
(826,-53,o),
(776,-85,o),
(709,-101,o),
(679,-101,qs),
(410,-101,l),
(410,122,l),
(302,122,l),
(302,-209,l),
(665,-209,ls),
(810,-209,o),
(981,-76,o),
(981,41,qs),
(981,97,o),
(948,161,o),
(937,180,q),
(992,191,o),
(1066,242,o),
(1110,306,o),
(1128,375,o),
(1128,403,qs),
(1128,447,o),
(1100,518,o),
(1050,580,o),
(978,640,o),
(937,672,qs),
(619,916,ls),
(587,941,o),
(536,1008,o),
(536,1054,qs),
(536,1105,o),
(575,1158,o),
(631,1183,o),
(688,1188,o),
(707,1188,qs),
(971,1188,l),
(971,990,l)
);
}
);
width = 1381;
}
);
unicode = 167;
},
{
glyphname = uni00A8;
layers = (
{
layerId = "FD843F08-4597-4AFB-9C66-7B47690262C1";
shapes = (
{
closed = 1;
nodes = (
(757,1430,l),
(757,1181,l),
(923,1181,l),
(923,1430,l)
);
},
{
closed = 1;
nodes = (
(458,1430,l),
(458,1181,l),
(624,1181,l),
(624,1430,l)
);
}
);
width = 1381;
}
);
unicode = 168;
},
{
glyphname = uni00A9;
layers = (
{
layerId = "FD843F08-4597-4AFB-9C66-7B47690262C1";
shapes = (
{
closed = 1;
nodes = (
(810,1248,o),
(1022,1156,o),
(1179,999,o),
(1271,785,o),
(1271,665,qs),
(1271,546,o),
(1179,334,o),
(1020,177,o),
(810,85,o),
(691,85,qs),
(571,85,o),
(361,177,o),
(203,334,o),
(110,546,o),
(110,665,qs),
(110,787,o),
(203,999,o),
(361,1158,o),
(571,1248,o),
(691,1248,qs)
);
},
{
closed = 1;
nodes = (
(555,1335,o),
(311,1232,o),
(129,1052,o),
(23,808,o),
(23,668,qs),
(23,529,o),
(129,285,o),
(311,104,o),
(552,-2,o),
(691,-2,qs),
(829,-2,o),
(1073,104,o),
(1252,285,o),
(1358,529,o),
(1358,668,qs),
(1358,806,o),
(1252,1050,o),
(1073,1232,o),
(829,1335,o),
(691,1335,qs)
);
},
{
closed = 1;
nodes = (
(990,787,l),
(990,1011,l),
(930,1031,o),
(776,1061,o),
(718,1061,qs),
(619,1061,o),
(470,994,o),
(371,886,o),
(320,744,o),
(320,668,qs),
(320,587,o),
(371,444,o),
(467,336,o),
(603,272,o),
(688,272,qs),
(737,272,o),
(836,297,o),
(921,350,o),
(988,428,o),
(1008,483,q),
(953,506,l),
(941,483,o),
(907,428,o),
(854,378,o),
(776,343,o),
(721,343,qs),
(654,343,o),
(550,396,o),
(477,488,o),
(437,610,o),
(437,677,qs),
(437,741,o),
(474,856,o),
(548,944,o),
(656,994,o),
(727,994,qs),
(787,994,o),
(884,955,o),
(902,925,q),
(914,907,o),
(921,838,o),
(925,787,q)
);
}
);
width = 1381;
}
);
unicode = 169;
},
{
glyphname = uni00AA;
layers = (
{
layerId = "FD843F08-4597-4AFB-9C66-7B47690262C1";
shapes = (
{
closed = 1;
nodes = (
(971,695,l),
(410,695,l),
(410,612,l),
(971,612,l)
);
},
{
closed = 1;
nodes = (
(796,974,l),
(700,863,o),
(594,863,qs),
(550,863,o),
(486,916,o),
(486,953,qs),
(486,1001,o),
(585,1057,o),
(665,1057,qs),
(693,1057,o),
(748,1052,o),
(796,1045,q)
);
},
{
closed = 1;
nodes = (
(472,1199,l),
(536,1227,o),
(628,1252,o),
(672,1252,qs),
(739,1252,o),
(796,1202,o),
(796,1144,qs),
(796,1128,l),
(746,1135,o),
(688,1139,o),
(654,1139,qs),
(536,1139,o),
(398,1036,o),
(398,953,qs),
(398,879,o),
(513,780,o),
(594,780,qs),
(647,780,o),
(737,815,o),
(796,861,q),
(796,796,l),
(983,796,l),
(983,879,l),
(884,879,l),
(884,1151,ls),
(884,1335,o),
(674,1335,qs),
(622,1335,o),
(520,1310,o),
(440,1278,q)
);
}
);
width = 1381;
}
);
unicode = 170;
},
{
glyphname = uni00AB;
layers = (
{
layerId = "FD843F08-4597-4AFB-9C66-7B47690262C1";
shapes = (
{
closed = 1;
nodes = (
(863,115,l),
(1112,115,l),
(801,619,l),
(1112,1121,l),
(863,1121,l),
(552,619,l)
);
},
{
closed = 1;
nodes = (
(426,115,l),
(677,115,l),
(366,619,l),
(677,1121,l),
(426,1121,l),
(115,619,l)
);
}
);
width = 1227;
}
);
unicode = 171;
},
{
glyphname = uni00AC;
layers = (
{
layerId = "FD843F08-4597-4AFB-9C66-7B47690262C1";
shapes = (
{
closed = 1;
nodes = (
(1195,1008,l),
(207,1008,l),
(207,893,l),
(1080,893,l),
(1080,389,l),
(1195,389,l)
);
}
);
width = 1381;
}
);
unicode = 172;
},
{
glyphname = uni00AE;
layers = (
{
layerId = "FD843F08-4597-4AFB-9C66-7B47690262C1";
shapes = (
{
closed = 1;
nodes = (
(808,1248,o),
(1020,1158,o),
(1179,1001,o),
(1271,790,o),
(1271,668,qs),
(1271,548,o),
(1181,338,o),
(1022,180,o),
(810,87,o),
(691,87,qs),
(569,87,o),
(359,180,o),
(200,338,o),
(110,548,o),
(110,668,qs),
(110,787,o),
(203,999,o),
(361,1158,o),
(571,1248,o),
(691,1248,qs)
);
},
{
closed = 1;
nodes = (
(555,1335,o),
(311,1232,o),
(129,1052,o),
(23,808,o),
(23,668,qs),
(23,529,o),
(129,288,o),
(308,106,o),
(552,0,o),
(691,0,qs),
(829,0,o),
(1073,106,o),
(1252,288,o),
(1358,529,o),
(1358,668,qs),
(1358,808,o),
(1252,1052,o),
(1070,1232,o),
(829,1335,o),
(691,1335,qs)
);
},
{
closed = 1;
nodes = (
(566,711,l),
(566,969,ls),
(566,1004,o),
(596,1017,o),
(661,1017,qs),
(684,1017,o),
(748,1011,o),
(808,983,o),
(849,923,o),
(849,870,qs),
(849,780,o),
(723,711,o),
(619,711,qs)
);
},
{
closed = 1;
nodes = (
(368,1073,l),
(368,1015,l),
(394,1013,o),
(428,1011,o),
(433,1011,q),
(447,1011,o),
(449,1008,q),
(460,1004,o),
(463,990,o),
(463,962,qs),
(463,426,ls),
(463,387,o),
(442,373,o),
(401,368,q),
(398,366,o),
(384,366,qs),
(373,366,o),
(368,364,q),
(368,311,l),
(661,311,l),
(661,364,l),
(642,366,o),
(587,371,o),
(582,373,q),
(571,380,o),
(566,396,o),
(566,426,qs),
(566,656,l),
(608,656,ls),
(649,656,o),
(697,649,o),
(734,615,o),
(767,548,o),
(790,486,qs),
(819,405,o),
(882,311,o),
(948,311,qs),
(1040,311,l),
(1040,366,l),
(1011,366,o),
(974,368,o),
(946,389,o),
(921,433,o),
(902,474,qs),
(866,557,o),
(815,654,o),
(778,679,q),
(843,695,o),
(914,753,o),
(946,815,o),
(953,866,o),
(953,877,qs),
(953,948,o),
(884,1029,o),
(792,1066,o),
(704,1073,o),
(686,1073,qs)
);
}
);
width = 1381;
}
);
unicode = 174;
},
{
glyphname = uni00AF;
layers = (
{
layerId = "FD843F08-4597-4AFB-9C66-7B47690262C1";
shapes = (
{
closed = 1;
nodes = (
(1082,1363,l),
(299,1363,l),
(299,1248,l),
(1082,1248,l)
);
}
);
width = 1381;
}
);
unicode = 175;
},
{
glyphname = uni00B0;
layers = (
{
layerId = "FD843F08-4597-4AFB-9C66-7B47690262C1";
shapes = (
{
closed = 1;
nodes = (
(465,1126,o),
(500,1209,o),
(562,1268,o),
(642,1303,o),
(691,1303,qs),
(787,1303,o),
(916,1174,o),
(916,1077,qs),
(916,1029,o),
(882,948,o),
(822,886,o),
(739,852,o),
(691,852,qs),
(594,852,o),
(465,981,o),
(465,1077,qs)
);
},
{
closed = 1;
nodes = (
(338,1001,o),
(394,875,o),
(488,780,o),
(617,725,o),
(691,725,qs),
(764,725,o),
(893,780,o),
(988,877,o),
(1043,1004,o),
(1043,1075,qs),
(1043,1146,o),
(990,1275,o),
(895,1372,o),
(767,1430,o),
(691,1430,qs),
(617,1430,o),
(488,1374,o),
(394,1278,o),
(338,1149,o),
(338,1075,qs)
);
}
);
width = 1381;
}
);
unicode = 176;
},
{
glyphname = uni00B1;
layers = (
{
layerId = "FD843F08-4597-4AFB-9C66-7B47690262C1";
shapes = (
{
closed = 1;
nodes = (
(1229,186,l),
(152,186,l),
(152,71,l),
(1229,71,l)
);
},
{
closed = 1;
nodes = (
(748,1326,l),
(633,1326,l),
(633,875,l),
(152,875,l),
(152,760,l),
(633,760,l),
(633,308,l),
(748,308,l),
(748,760,l),
(1229,760,l),
(1229,875,l),
(748,875,l)
);
}
);
width = 1381;
}
);
unicode = 177;
},
{
glyphname = uni00B2;
layers = (
{
layerId = "FD843F08-4597-4AFB-9C66-7B47690262C1";
shapes = (
{
closed = 1;
nodes = (
(935,794,l),
(845,794,l),
(845,663,l),
(525,663,l),
(684,808,ls),
(760,877,o),
(859,974,o),
(914,1054,o),
(937,1126,o),
(937,1169,qs),
(937,1225,o),
(895,1319,o),
(822,1388,o),
(723,1430,o),
(668,1430,qs),
(511,1430,o),
(412,1303,q),
(412,1195,l),
(509,1195,l),
(506,1222,l),
(509,1268,o),
(601,1337,o),
(665,1337,qs),
(737,1337,o),
(838,1241,o),
(838,1172,qs),
(838,1139,o),
(826,1091,o),
(792,1036,o),
(721,965,o),
(663,912,qs),
(640,891,o),
(571,829,o),
(497,762,o),
(428,700,o),
(405,679,q),
(384,661,l),
(384,571,l),
(935,571,l)
);
}
);
width = 1381;
}
);
unicode = 178;
},
{
glyphname = uni00B3;
layers = (
{
layerId = "FD843F08-4597-4AFB-9C66-7B47690262C1";
shapes = (
{
closed = 1;
nodes = (
(447,1255,l),
(481,1278,ls),
(534,1314,o),
(605,1337,o),
(645,1337,qs),
(707,1337,o),
(790,1264,o),
(790,1206,qs),
(790,1137,o),
(732,1093,qs),
(707,1075,o),
(651,1064,o),
(589,1061,q),
(589,969,l),
(645,969,ls),
(734,969,o),
(831,889,o),
(831,813,qs),
(831,739,o),
(730,642,o),
(649,642,qs),
(601,642,o),
(493,674,o),
(419,709,q),
(382,624,l),
(426,605,ls),
(504,573,o),
(594,550,o),
(645,550,qs),
(769,550,o),
(928,695,o),
(928,813,qs),
(928,948,o),
(799,1029,q),
(886,1103,o),
(886,1209,qs),
(886,1305,o),
(748,1430,o),
(645,1430,qs),
(587,1430,o),
(483,1388,o),
(398,1333,q)
);
}
);
width = 1381;
}
);
unicode = 179;
},
{
glyphname = uni00B4;
layers = (
{
layerId = "FD843F08-4597-4AFB-9C66-7B47690262C1";
shapes = (
{
closed = 1;
nodes = (
(617,1158,l),
(946,1423,l),
(700,1423,l),
(495,1158,l)
);
}
);
width = 1381;
}
);
unicode = 180;
},
{
glyphname = mu;
layers = (
{
layerId = "FD843F08-4597-4AFB-9C66-7B47690262C1";
shapes = (
{
closed = 1;
nodes = (
(387,990,l),
(83,990,l),
(83,893,l),
(272,893,l),
(272,-343,l),
(384,-343,l),
(384,108,l),
(405,92,o),
(419,78,o),
(440,58,q),
(449,46,o),
(495,16,o),
(562,-12,o),
(640,-32,o),
(681,-32,qs),
(762,-32,o),
(923,35,o),
(967,94,q),
(985,122,l),
(990,122,l),
(990,0,l),
(1294,0,l),
(1294,94,l),
(1103,94,l),
(1103,990,l),
(799,990,l),
(799,893,l),
(988,893,l),
(988,449,ls),
(988,403,o),
(983,329,o),
(969,269,o),
(944,216,o),
(923,189,qs),
(884,138,o),
(741,83,o),
(677,83,qs),
(612,83,o),
(483,138,o),
(440,196,q),
(424,216,o),
(403,258,o),
(391,315,o),
(387,394,o),
(387,449,qs)
);
}
);
width = 1381;
}
);
unicode = 956;
},
{
glyphname = uni00B6;
layers = (
{
layerId = "FD843F08-4597-4AFB-9C66-7B47690262C1";
shapes = (
{
closed = 1;
nodes = (
(626,670,l),
(552,663,o),
(470,718,o),
(428,794,o),
(419,868,o),
(419,882,qs),
(419,1020,ls),
(419,1096,o),
(456,1179,o),
(513,1218,o),
(587,1227,o),
(626,1227,q)
);
},
{
closed = 1;
nodes = (
(1022,-108,l),
(1022,1227,l),
(1133,1227,l),
(1133,1296,l),
(656,1296,ls),
(582,1296,o),
(433,1284,o),
(311,1220,o),
(232,1080,o),
(232,953,qs),
(232,843,o),
(306,702,o),
(421,624,o),
(559,596,o),
(626,601,q),
(626,-108,l),
(483,-108,l),
(483,-177,l),
(773,-177,l),
(773,-108,l),
(730,-108,l),
(730,1227,l),
(918,1227,l),
(918,-108,l),
(875,-108,l),
(875,-177,l),
(1142,-177,l),
(1142,-108,l)
);
}
);
width = 1381;
}
);
unicode = 182;
},
{
glyphname = uni00B7;
layers = (
{
layerId = "FD843F08-4597-4AFB-9C66-7B47690262C1";
shapes = (
{
closed = 1;
nodes = (
(658,854,o),
(596,833,o),
(546,792,o),
(513,734,o),
(513,697,qs),
(513,658,o),
(546,601,o),
(599,562,o),
(661,541,o),
(691,541,qs),
(723,541,o),
(785,562,o),
(836,603,o),
(868,661,o),
(868,697,qs),
(868,732,o),
(838,790,o),
(787,831,o),
(725,854,o),
(691,854,qs)
);
}
);
width = 1381;
}
);
unicode = 183;
},
{
glyphname = uni00B8;
layers = (
{
layerId = "FD843F08-4597-4AFB-9C66-7B47690262C1";
shapes = (
{
closed = 1;
nodes = (
(748,-5,l),
(645,-5,l),
(628,-143,l),
(695,-147,o),
(794,-168,o),
(794,-200,qs),
(794,-216,o),
(755,-230,o),
(737,-230,qs),
(716,-230,ls),
(642,-230,o),
(518,-207,o),
(481,-198,q),
(465,-299,l),
(497,-306,o),
(633,-334,o),
(718,-334,qs),
(783,-334,o),
(859,-299,o),
(893,-256,o),
(902,-212,o),
(902,-200,qs),
(902,-193,o),
(895,-154,o),
(863,-108,o),
(799,-67,o),
(741,-58,q)
);
}
);
width = 1381;
}
);
unicode = 184;
},
{
glyphname = uni00B9;
layers = (
{
layerId = "FD843F08-4597-4AFB-9C66-7B47690262C1";
shapes = (
{
closed = 1;
nodes = (
(691,1430,l),
(410,1305,l),
(447,1222,l),
(656,1314,l),
(656,663,l),
(421,663,l),
(421,571,l),
(981,571,l),
(981,663,l),
(750,663,l),
(750,1430,l)
);
}
);
width = 1381;
}
);
unicode = 185;
},
{
glyphname = uni00BA;
layers = (
{
layerId = "FD843F08-4597-4AFB-9C66-7B47690262C1";
shapes = (
{
closed = 1;
nodes = (
(971,695,l),
(410,695,l),
(410,612,l),
(971,612,l)
);
},
{
closed = 1;
nodes = (
(488,1144,o),
(601,1252,o),
(691,1252,qs),
(780,1252,o),
(893,1144,o),
(893,1059,qs),
(893,971,o),
(780,863,o),
(691,863,qs),
(601,863,o),
(488,971,o),
(488,1059,qs)
);
},
{
closed = 1;
nodes = (
(396,932,o),
(559,780,o),
(691,780,qs),
(822,780,o),
(985,932,o),
(985,1057,qs),
(985,1181,o),
(822,1335,o),
(691,1335,qs),
(559,1335,o),
(396,1181,o),
(396,1057,qs)
);
}
);
width = 1381;
}
);
unicode = 186;
},
{
glyphname = uni00BB;
layers = (
{
layerId = "FD843F08-4597-4AFB-9C66-7B47690262C1";
shapes = (
{
closed = 1;
nodes = (
(364,115,l),
(677,619,l),
(364,1121,l),
(115,1121,l),
(428,619,l),
(115,115,l)
);
},
{
closed = 1;
nodes = (
(801,115,l),
(1112,619,l),
(801,1121,l),
(552,1121,l),
(861,619,l),
(552,115,l)
);
}
);
width = 1227;
}
);
unicode = 187;
},
{
glyphname = uni00BC;
layers = (
{
layerId = "FD843F08-4597-4AFB-9C66-7B47690262C1";
shapes = (
{
closed = 1;
nodes = (
(1377,1411,l),
(1312,1457,l),
(138,-157,l),
(203,-207,l)
);
},
{
closed = 1;
nodes = (
(297,1432,l),
(60,1333,l),
(97,1255,l),
(265,1324,l),
(265,661,l),
(87,661,l),
(87,573,l),
(527,573,l),
(527,661,l),
(352,661,l),
(352,1432,l)
);
},
{
closed = 1;
nodes = (
(1144,555,l),
(1144,106,l),
(875,106,l),
(1139,555,l)
);
},
{
closed = 1;
nodes = (
(1232,106,l),
(1232,681,l),
(1121,681,l),
(778,113,l),
(778,21,l),
(1144,21,l),
(1144,-94,l),
(990,-94,l),
(990,-177,l),
(1354,-177,l),
(1354,-94,l),
(1232,-94,l),
(1232,21,l),
(1354,21,l),
(1354,106,l)
);
}
);
width = 1381;
}
);
unicode = 188;
},
{
glyphname = uni00BD;
layers = (
{
layerId = "FD843F08-4597-4AFB-9C66-7B47690262C1";
shapes = (
{
closed = 1;
nodes = (
(1358,41,l),
(1280,41,l),
(1280,-90,l),
(955,-90,l),
(999,-48,l),
(1142,78,ls),
(1266,189,o),
(1360,341,o),
(1360,421,qs),
(1360,477,o),
(1321,571,o),
(1252,640,o),
(1156,679,o),
(1100,679,qs),
(955,679,o),
(856,555,q),
(856,451,l),
(944,451,l),
(944,463,o),
(941,474,o),
(941,479,q),
(941,525,o),
(1036,592,o),
(1096,592,qs),
(1172,592,o),
(1271,495,o),
(1271,421,qs),
(1271,382,o),
(1250,318,o),
(1218,279,q),
(1199,258,o),
(1160,219,o),
(1103,163,o),
(1020,85,o),
(962,30,qs),
(907,-21,o),
(859,-64,o),
(840,-78,o),
(838,-81,o),
(831,-87,q),
(831,-177,l),
(1358,-177,l)
);
},
{
closed = 1;
nodes = (
(1347,1411,l),
(1280,1457,l),
(108,-157,l),
(173,-207,l)
);
},
{
closed = 1;
nodes = (
(283,1432,l),
(44,1333,l),
(81,1255,l),
(249,1324,l),
(249,661,l),
(71,661,l),
(71,573,l),
(511,573,l),
(511,661,l),
(336,661,l),
(336,1432,l)
);
}
);
width = 1381;
}
);
unicode = 189;
},
{
glyphname = uni00BE;
layers = (
{
layerId = "FD843F08-4597-4AFB-9C66-7B47690262C1";
shapes = (
{
closed = 1;
nodes = (
(1393,1411,l),
(1328,1457,l),
(154,-157,l),
(219,-207,l)
);
},
{
closed = 1;
nodes = (
(110,1264,l),
(145,1284,ls),
(200,1317,o),
(274,1344,o),
(313,1344,qs),
(380,1344,o),
(465,1271,o),
(465,1211,qs),
(465,1135,o),
(405,1093,qs),
(380,1075,o),
(322,1064,o),
(262,1061,q),
(262,976,l),
(313,978,ls),
(410,983,o),
(506,893,o),
(506,815,qs),
(506,737,o),
(401,642,o),
(318,642,qs),
(267,642,o),
(163,670,o),
(85,707,q),
(51,626,l),
(92,610,ls),
(134,594,o),
(193,573,o),
(244,559,o),
(288,555,o),
(313,555,qs),
(437,555,o),
(599,700,o),
(599,815,qs),
(599,955,o),
(465,1031,q),
(513,1070,o),
(557,1156,o),
(557,1213,qs),
(557,1259,o),
(520,1340,o),
(453,1397,o),
(364,1432,o),
(313,1432,qs),
(256,1432,o),
(150,1390,o),
(67,1337,q)
);
},
{
closed = 1;
nodes = (
(1248,106,l),
(1248,681,l),
(1137,681,l),
(794,113,l),
(794,21,l),
(1160,21,l),
(1160,-94,l),
(1006,-94,l),
(1006,-177,l),
(1370,-177,l),
(1370,-94,l),
(1248,-94,l),
(1248,21,l),
(1370,21,l),
(1370,106,l)
);
},
{
closed = 1;
nodes = (
(1160,555,l),
(1160,106,l),
(891,106,l),
(1156,555,l)
);
}
);
width = 1381;
}
);
unicode = 190;
},
{
glyphname = uni00BF;
layers = (
{
layerId = "FD843F08-4597-4AFB-9C66-7B47690262C1";
shapes = (
{
closed = 1;
nodes = (
(824,753,o),
(916,833,o),
(916,893,qs),
(916,955,o),
(822,1036,o),
(757,1036,qs),
(693,1036,o),
(599,955,o),
(599,893,qs),
(599,833,o),
(691,753,o),
(757,753,qs)
);
},
{
closed = 1;
nodes = (
(1091,-7,l),
(976,-7,l),
(976,-154,l),
(918,-177,o),
(801,-209,o),
(716,-209,qs),
(619,-209,o),
(495,-157,o),
(424,-76,o),
(396,14,o),
(396,48,qs),
(396,127,o),
(467,230,o),
(573,297,o),
(702,336,o),
(760,350,q),
(771,352,o),
(801,359,o),
(806,361,q),
(806,585,l),
(693,585,l),
(693,447,l),
(635,430,o),
(490,380,o),
(364,292,o),
(276,157,o),
(276,55,qs),
(276,-18,o),
(331,-154,o),
(442,-258,o),
(608,-322,o),
(718,-322,qs),
(767,-322,o),
(852,-313,o),
(937,-292,o),
(1031,-262,o),
(1091,-242,q)
);
}
);
width = 1381;
}
);
unicode = 191;
},
{
glyphname = uni00C0;
layers = (
{
layerId = "FD843F08-4597-4AFB-9C66-7B47690262C1";
shapes = (
{
closed = 1;
nodes = (
(777,1304,l),
(1069,595,l),
(483,595,l)
);
},
{
closed = 1;
nodes = (
(849,1457,l),
(292,1457,l),
(292,1335,l),
(662,1335,l),
(163,121,l),
(26,121,l),
(26,0,l),
(556,0,l),
(556,121,l),
(292,121,l),
(437,481,l),
(1113,481,l),
(1260,121,l),
(996,121,l),
(996,0,l),
(1526,0,l),
(1526,121,l),
(1395,121,l)
);
},
{
closed = 1;
nodes = (
(769,1905,l),
(491,1905,l),
(833,1608,l),
(968,1608,l)
);
}
);
width = 1381;
}
);
unicode = 192;
},
{
glyphname = uni00C1;
layers = (
{
layerId = "FD843F08-4597-4AFB-9C66-7B47690262C1";
shapes = (
{
closed = 1;
nodes = (
(777,1304,l),
(1069,595,l),
(483,595,l)
);
},
{
closed = 1;
nodes = (
(849,1457,l),
(292,1457,l),
(292,1335,l),
(662,1335,l),
(163,121,l),
(26,121,l),
(26,0,l),
(556,0,l),
(556,121,l),
(292,121,l),
(437,481,l),
(1113,481,l),
(1260,121,l),
(996,121,l),
(996,0,l),
(1526,0,l),
(1526,121,l),
(1395,121,l)
);
},
{
closed = 1;
nodes = (
(694,1608,l),
(1063,1905,l),
(787,1905,l),
(556,1608,l)
);
}
);
width = 1381;
}
);
unicode = 193;
},
{
glyphname = uni00C2;
layers = (
{
layerId = "FD843F08-4597-4AFB-9C66-7B47690262C1";
shapes = (
{
closed = 1;
nodes = (
(777,1304,l),
(1069,595,l),
(483,595,l)
);
},
{
closed = 1;
nodes = (
(849,1457,l),
(292,1457,l),
(292,1335,l),
(662,1335,l),
(163,121,l),
(26,121,l),
(26,0,l),
(556,0,l),
(556,121,l),
(292,121,l),
(437,481,l),
(1113,481,l),
(1260,121,l),
(996,121,l),
(996,0,l),
(1526,0,l),
(1526,121,l),
(1395,121,l)
);
},
{
closed = 1;
nodes = (
(869,1913,l),
(670,1913,l),
(443,1667,l),
(528,1605,l),
(763,1776,l),
(1025,1605,l),
(1107,1669,l)
);
}
);
width = 1381;
}
);
unicode = 194;
},
{
glyphname = uni00C3;
layers = (
{
layerId = "FD843F08-4597-4AFB-9C66-7B47690262C1";
shapes = (
{
closed = 1;
nodes = (
(777,1304,l),
(1069,595,l),
(483,595,l)
);
},
{
closed = 1;
nodes = (
(849,1457,l),
(292,1457,l),
(292,1335,l),
(662,1335,l),
(163,121,l),
(26,121,l),
(26,0,l),
(556,0,l),
(556,121,l),
(292,121,l),
(437,481,l),
(1113,481,l),
(1260,121,l),
(996,121,l),
(996,0,l),
(1526,0,l),
(1526,121,l),
(1395,121,l)
);
},
{
closed = 1;
nodes = (
(1087,1908,l),
(1079,1886,o),
(1058,1835,o),
(1022,1786,o),
(973,1753,o),
(940,1753,qs),
(910,1753,o),
(846,1786,o),
(797,1822,q),
(755,1858,o),
(668,1910,o),
(606,1910,qs),
(509,1910,o),
(399,1778,o),
(362,1680,q),
(465,1644,l),
(465,1644,o),
(469,1651,q),
(471,1657,o),
(471,1659,q),
(491,1711,o),
(554,1794,o),
(606,1794,qs),
(634,1794,o),
(686,1765,o),
(747,1719,q),
(807,1672,o),
(888,1636,o),
(932,1636,qs),
(1014,1636,o),
(1154,1747,o),
(1185,1856,q),
(1185,1868,o),
(1190,1874,q)
);
}
);
width = 1381;
}
);
unicode = 195;
},
{
glyphname = uni00C4;
layers = (
{
layerId = "FD843F08-4597-4AFB-9C66-7B47690262C1";
shapes = (
{
closed = 1;
nodes = (
(777,1304,l),
(1069,595,l),
(483,595,l)
);
},
{
closed = 1;
nodes = (
(849,1457,l),
(292,1457,l),
(292,1335,l),
(662,1335,l),
(163,121,l),
(26,121,l),
(26,0,l),
(556,0,l),
(556,121,l),
(292,121,l),
(437,481,l),
(1113,481,l),
(1260,121,l),
(996,121,l),
(996,0,l),
(1526,0,l),
(1526,121,l),
(1395,121,l)
);
},
{
closed = 1;
nodes = (
(851,1913,l),
(851,1633,l),
(1037,1633,l),
(1037,1913,l)
);
},
{
closed = 1;
nodes = (
(515,1913,l),
(515,1633,l),
(701,1633,l),
(701,1913,l)
);
}
);
width = 1381;
}
);
unicode = 196;
},
{
glyphname = uni00C5;
layers = (
{
layerId = "FD843F08-4597-4AFB-9C66-7B47690262C1";
shapes = (
{
closed = 1;
nodes = (
(730,1697,o),
(778,1646,o),
(778,1609,qs),
(778,1572,o),
(730,1522,o),
(693,1522,qs),
(656,1522,o),
(603,1572,o),
(603,1609,qs),
(603,1651,o),
(656,1697,o),
(693,1697,qs)
);
},
{
closed = 1;
nodes = (
(617,1784,o),
(516,1683,o),
(516,1609,qs),
(516,1535,o),
(617,1434,o),
(691,1434,qs),
(764,1434,o),
(866,1535,o),
(866,1609,qs),
(866,1683,o),
(764,1784,o),
(691,1784,qs)
);
},
{
closed = 1;
nodes = (
(691,1160,l),
(951,529,l),
(430,529,l)
);
},
{
closed = 1;
nodes = (
(755,1296,l),
(260,1296,l),
(260,1188,l),
(589,1188,l),
(145,108,l),
(23,108,l),
(23,0,l),
(495,0,l),
(495,108,l),
(260,108,l),
(389,428,l),
(990,428,l),
(1121,108,l),
(886,108,l),
(886,0,l),
(1358,0,l),
(1358,108,l),
(1241,108,l)
);
}
);
width = 1381;
}
);
unicode = 197;
},
{
glyphname = uni00C6;
layers = (
{
layerId = "FD843F08-4597-4AFB-9C66-7B47690262C1";
shapes = (
{
closed = 1;
nodes = (
(695,1160,l),
(695,532,l),
(451,532,l),
(691,1160,l)
);
},
{
closed = 1;
nodes = (
(1264,1296,l),
(364,1296,l),
(364,1188,l),
(601,1188,l),
(166,108,l),
(44,108,l),
(44,0,l),
(486,0,l),
(486,108,l),
(281,108,l),
(412,424,l),
(695,424,l),
(695,0,l),
(1280,0,l),
(1280,428,l),
(1174,428,l),
(1160,108,l),
(810,108,l),
(810,633,l),
(960,633,l),
(960,465,l),
(1066,465,l),
(1066,909,l),
(960,909,l),
(960,741,l),
(810,741,l),
(810,1188,l),
(1139,1188,l),
(1160,882,l),
(1264,882,l)
);
}
);
width = 1381;
}
);
unicode = 198;
},
{
glyphname = uni00C7;
layers = (
{
layerId = "FD843F08-4597-4AFB-9C66-7B47690262C1";
shapes = (
{
closed = 1;
nodes = (
(815,-39,l),
(974,-25,o),
(1250,117,o),
(1367,228,q),
(1291,311,l),
(1261,285,o),
(1162,205,o),
(1031,129,o),
(866,76,o),
(769,76,qs),
(638,76,o),
(449,177,o),
(327,343,o),
(272,555,o),
(272,665,qs),
(272,808,o),
(359,1017,o),
(500,1153,o),
(672,1220,o),
(760,1220,qs),
(879,1220,o),
(1020,1137,o),
(1096,1024,o),
(1126,902,o),
(1133,863,q),
(1241,882,l),
(1229,974,o),
(1213,1176,o),
(1218,1321,q),
(1133,1321,l),
(1130,1305,o),
(1123,1268,o),
(1116,1234,o),
(1105,1211,o),
(1098,1211,q),
(1093,1211,o),
(1070,1225,o),
(1045,1245,o),
(1022,1264,o),
(1017,1268,q),
(944,1314,o),
(801,1335,o),
(764,1335,qs),
(633,1335,o),
(407,1238,o),
(242,1061,o),
(147,813,o),
(147,663,qs),
(147,562,o),
(203,329,o),
(334,124,o),
(552,-23,o),
(716,-39,q),
(702,-143,l),
(769,-147,o),
(868,-168,o),
(868,-200,qs),
(868,-216,o),
(829,-230,o),
(810,-230,qs),
(794,-230,ls),
(716,-230,o),
(601,-209,o),
(555,-198,q),
(539,-299,l),
(571,-306,o),
(707,-334,o),
(792,-334,qs),
(856,-334,o),
(932,-299,o),
(967,-253,o),
(976,-209,o),
(976,-200,qs),
(976,-166,o),
(941,-113,o),
(893,-76,o),
(838,-58,o),
(815,-58,q)
);
}
);
width = 1381;
}
);
unicode = 199;
},
{
glyphname = uni00C8;
layers = (
{
layerId = "FD843F08-4597-4AFB-9C66-7B47690262C1";
shapes = (
{
closed = 1;
nodes = (
(1377,1457,l),
(147,1457,l),
(147,1335,l),
(368,1335,l),
(368,121,l),
(147,121,l),
(147,0,l),
(1399,0,l),
(1399,477,l),
(1280,477,l),
(1268,121,l),
(497,121,l),
(497,709,l),
(916,709,l),
(916,523,l),
(1035,523,l),
(1035,1019,l),
(916,1019,l),
(916,831,l),
(497,831,l),
(497,1335,l),
(1242,1335,l),
(1268,980,l),
(1387,980,l)
);
},
{
closed = 1;
nodes = (
(769,1905,l),
(491,1905,l),
(833,1608,l),
(968,1608,l)
);
}
);
width = 1381;
}
);
unicode = 200;
},
{
glyphname = uni00C9;
layers = (
{
layerId = "FD843F08-4597-4AFB-9C66-7B47690262C1";
shapes = (
{
closed = 1;
nodes = (
(1377,1457,l),
(147,1457,l),
(147,1335,l),
(368,1335,l),
(368,121,l),
(147,121,l),
(147,0,l),
(1399,0,l),
(1399,477,l),
(1280,477,l),
(1268,121,l),
(497,121,l),
(497,709,l),
(916,709,l),
(916,523,l),
(1035,523,l),
(1035,1019,l),
(916,1019,l),
(916,831,l),
(497,831,l),
(497,1335,l),
(1242,1335,l),
(1268,980,l),
(1387,980,l)
);
},
{
closed = 1;
nodes = (
(694,1608,l),
(1063,1905,l),
(787,1905,l),
(556,1608,l)
);
}
);
width = 1381;
}
);
unicode = 201;
},
{
glyphname = uni00CA;
layers = (
{
layerId = "FD843F08-4597-4AFB-9C66-7B47690262C1";
shapes = (
{
closed = 1;
nodes = (
(1377,1457,l),
(147,1457,l),
(147,1335,l),
(368,1335,l),
(368,121,l),
(147,121,l),
(147,0,l),
(1399,0,l),
(1399,477,l),
(1280,477,l),
(1268,121,l),
(497,121,l),
(497,709,l),
(916,709,l),
(916,523,l),
(1035,523,l),
(1035,1019,l),
(916,1019,l),
(916,831,l),
(497,831,l),
(497,1335,l),
(1242,1335,l),
(1268,980,l),
(1387,980,l)
);
},
{
closed = 1;
nodes = (
(869,1913,l),
(670,1913,l),
(443,1667,l),
(528,1605,l),
(763,1776,l),
(1025,1605,l),
(1107,1669,l)
);
}
);
width = 1381;
}
);
unicode = 202;
},
{
glyphname = uni00CB;
layers = (
{
layerId = "FD843F08-4597-4AFB-9C66-7B47690262C1";
shapes = (
{
closed = 1;
nodes = (
(1377,1457,l),
(147,1457,l),
(147,1335,l),
(368,1335,l),
(368,121,l),
(147,121,l),
(147,0,l),
(1399,0,l),
(1399,477,l),
(1280,477,l),
(1268,121,l),
(497,121,l),
(497,709,l),
(916,709,l),
(916,523,l),
(1035,523,l),
(1035,1019,l),
(916,1019,l),
(916,831,l),
(497,831,l),
(497,1335,l),
(1242,1335,l),
(1268,980,l),
(1387,980,l)
);
},
{
closed = 1;
nodes = (
(851,1913,l),
(851,1633,l),
(1037,1633,l),
(1037,1913,l)
);
},
{
closed = 1;
nodes = (
(515,1913,l),
(515,1633,l),
(701,1633,l),
(701,1913,l)
);
}
);
width = 1381;
}
);
unicode = 203;
},
{
glyphname = uni00CC;
layers = (
{
layerId = "FD843F08-4597-4AFB-9C66-7B47690262C1";
shapes = (
{
closed = 1;
nodes = (
(1294,1457,l),
(259,1457,l),
(259,1335,l),
(711,1335,l),
(711,121,l),
(259,121,l),
(259,0,l),
(1294,0,l),
(1294,121,l),
(841,121,l),
(841,1335,l),
(1294,1335,l)
);
},
{
closed = 1;
nodes = (
(769,1905,l),
(491,1905,l),
(833,1608,l),
(968,1608,l)
);
}
);
width = 1381;
}
);
unicode = 204;
},
{
glyphname = uni00CD;
layers = (
{
layerId = "FD843F08-4597-4AFB-9C66-7B47690262C1";
shapes = (
{
closed = 1;
nodes = (
(1294,1457,l),
(259,1457,l),
(259,1335,l),
(711,1335,l),
(711,121,l),
(259,121,l),
(259,0,l),
(1294,0,l),
(1294,121,l),
(841,121,l),
(841,1335,l),
(1294,1335,l)
);
},
{
closed = 1;
nodes = (
(694,1608,l),
(1063,1905,l),
(787,1905,l),
(556,1608,l)
);
}
);
width = 1381;
}
);
unicode = 205;
},
{
glyphname = uni00CE;
layers = (
{
layerId = "FD843F08-4597-4AFB-9C66-7B47690262C1";
shapes = (
{
closed = 1;
nodes = (
(1294,1457,l),
(259,1457,l),
(259,1335,l),
(711,1335,l),
(711,121,l),
(259,121,l),
(259,0,l),
(1294,0,l),
(1294,121,l),
(841,121,l),
(841,1335,l),
(1294,1335,l)
);
},
{
closed = 1;
nodes = (
(869,1913,l),
(670,1913,l),
(443,1667,l),
(528,1605,l),
(763,1776,l),
(1025,1605,l),
(1107,1669,l)
);
}
);
width = 1381;
}
);
unicode = 206;
},
{
glyphname = uni00CF;
layers = (
{
layerId = "FD843F08-4597-4AFB-9C66-7B47690262C1";
shapes = (
{
closed = 1;
nodes = (
(1294,1457,l),
(259,1457,l),
(259,1335,l),
(711,1335,l),
(711,121,l),
(259,121,l),
(259,0,l),
(1294,0,l),
(1294,121,l),
(841,121,l),
(841,1335,l),
(1294,1335,l)
);
},
{
closed = 1;
nodes = (
(851,1913,l),
(851,1633,l),
(1037,1633,l),
(1037,1913,l)
);
},
{
closed = 1;
nodes = (
(515,1913,l),
(515,1633,l),
(701,1633,l),
(701,1913,l)
);
}
);
width = 1381;
}
);
unicode = 207;
},
{
glyphname = uni00D0;
layers = (
{
layerId = "FD843F08-4597-4AFB-9C66-7B47690262C1";
shapes = (
{
closed = 1;
nodes = (
(375,631,l),
(757,631,l),
(757,739,l),
(375,739,l),
(375,1188,l),
(656,1188,ls),
(755,1188,o),
(900,1162,o),
(960,1116,q),
(985,1096,o),
(1047,1029,o),
(1103,925,o),
(1142,773,o),
(1144,665,q),
(1144,506,o),
(1052,279,o),
(990,216,qs),
(948,175,o),
(852,131,o),
(757,110,o),
(674,108,o),
(645,108,qs),
(375,108,l)
);
},
{
closed = 1;
nodes = (
(78,631,l),
(260,631,l),
(260,108,l),
(78,108,l),
(78,0,l),
(645,0,ls),
(677,0,o),
(780,5,o),
(900,30,o),
(1024,83,o),
(1077,134,qs),
(1151,205,o),
(1268,465,o),
(1268,672,qs),
(1268,702,o),
(1261,803,o),
(1234,928,o),
(1176,1061,o),
(1126,1123,qs),
(1077,1181,o),
(974,1250,o),
(861,1284,o),
(730,1296,o),
(654,1296,qs),
(78,1296,l),
(78,1188,l),
(260,1188,l),
(260,739,l),
(78,739,l)
);
}
);
width = 1381;
}
);
unicode = 208;
},
{
glyphname = uni00D1;
layers = (
{
layerId = "FD843F08-4597-4AFB-9C66-7B47690262C1";
shapes = (
{
closed = 1;
nodes = (
(515,1457,l),
(72,1457,l),
(72,1335,l),
(274,1335,l),
(274,121,l),
(72,121,l),
(72,0,l),
(686,0,l),
(686,121,l),
(393,121,l),
(393,1335,l),
(437,1335,l),
(1131,-34,l),
(1361,-34,l),
(1361,1335,l),
(1529,1335,l),
(1529,1457,l),
(952,1457,l),
(952,1335,l),
(1242,1335,l),
(1242,109,l),
(1196,109,l)
);
},
{
closed = 1;
nodes = (
(1087,1908,l),
(1079,1886,o),
(1058,1835,o),
(1022,1786,o),
(973,1753,o),
(940,1753,qs),
(910,1753,o),
(846,1786,o),
(797,1822,q),
(755,1858,o),
(668,1910,o),
(606,1910,qs),
(509,1910,o),
(399,1778,o),
(362,1680,q),
(465,1644,l),
(465,1644,o),
(469,1651,q),
(471,1657,o),
(471,1659,q),
(491,1711,o),
(554,1794,o),
(606,1794,qs),
(634,1794,o),
(686,1765,o),
(747,1719,q),
(807,1672,o),
(888,1636,o),
(932,1636,qs),
(1014,1636,o),
(1154,1747,o),
(1185,1856,q),
(1185,1868,o),
(1190,1874,q)
);
}
);
width = 1381;
}
);
unicode = 209;
},
{
glyphname = uni00D2;
layers = (
{
layerId = "FD843F08-4597-4AFB-9C66-7B47690262C1";
shapes = (
{
closed = 1;
nodes = (
(251,841,o),
(316,1071,o),
(445,1254,o),
(642,1371,o),
(777,1371,qs),
(903,1371,o),
(1097,1262,o),
(1232,1085,o),
(1302,851,o),
(1302,729,qs),
(1302,608,o),
(1234,378,o),
(1099,197,o),
(903,85,o),
(777,85,qs),
(646,85,o),
(451,199,o),
(318,383,o),
(251,614,o),
(251,729,qs)
);
},
{
closed = 1;
nodes = (
(111,566,o),
(205,288,o),
(378,78,o),
(624,-44,o),
(777,-44,qs),
(932,-44,o),
(1177,80,o),
(1348,290,o),
(1441,572,o),
(1441,727,qs),
(1441,885,o),
(1351,1164,o),
(1177,1377,o),
(932,1501,o),
(777,1501,qs),
(624,1501,o),
(378,1379,o),
(205,1169,o),
(111,888,o),
(111,727,qs)
);
},
{
closed = 1;
nodes = (
(769,1905,l),
(491,1905,l),
(833,1608,l),
(968,1608,l)
);
}
);
width = 1381;
}
);
unicode = 210;
},
{
glyphname = uni00D3;
layers = (
{
layerId = "FD843F08-4597-4AFB-9C66-7B47690262C1";
shapes = (
{
closed = 1;
nodes = (
(251,841,o),
(316,1071,o),
(445,1254,o),
(642,1371,o),
(777,1371,qs),
(903,1371,o),
(1097,1262,o),
(1232,1085,o),
(1302,851,o),
(1302,729,qs),
(1302,608,o),
(1234,378,o),
(1099,197,o),
(903,85,o),
(777,85,qs),
(646,85,o),
(451,199,o),
(318,383,o),
(251,614,o),
(251,729,qs)
);
},
{
closed = 1;
nodes = (
(111,566,o),
(205,288,o),
(378,78,o),
(624,-44,o),
(777,-44,qs),
(932,-44,o),
(1177,80,o),
(1348,290,o),
(1441,572,o),
(1441,727,qs),
(1441,885,o),
(1351,1164,o),
(1177,1377,o),
(932,1501,o),
(777,1501,qs),
(624,1501,o),
(378,1379,o),
(205,1169,o),
(111,888,o),
(111,727,qs)
);
},
{
closed = 1;
nodes = (
(694,1608,l),
(1063,1905,l),
(787,1905,l),
(556,1608,l)
);
}
);
width = 1381;
}
);
unicode = 211;
},
{
glyphname = uni00D4;
layers = (
{
layerId = "FD843F08-4597-4AFB-9C66-7B47690262C1";
shapes = (
{
closed = 1;
nodes = (
(251,841,o),
(316,1071,o),
(445,1254,o),
(642,1371,o),
(777,1371,qs),
(903,1371,o),
(1097,1262,o),
(1232,1085,o),
(1302,851,o),
(1302,729,qs),
(1302,608,o),
(1234,378,o),
(1099,197,o),
(903,85,o),
(777,85,qs),
(646,85,o),
(451,199,o),
(318,383,o),
(251,614,o),
(251,729,qs)
);
},
{
closed = 1;
nodes = (
(111,566,o),
(205,288,o),
(378,78,o),
(624,-44,o),
(777,-44,qs),
(932,-44,o),
(1177,80,o),
(1348,290,o),
(1441,572,o),
(1441,727,qs),
(1441,885,o),
(1351,1164,o),
(1177,1377,o),
(932,1501,o),
(777,1501,qs),
(624,1501,o),
(378,1379,o),
(205,1169,o),
(111,888,o),
(111,727,qs)
);
},
{
closed = 1;
nodes = (
(869,1913,l),
(670,1913,l),
(443,1667,l),
(528,1605,l),
(763,1776,l),
(1025,1605,l),
(1107,1669,l)
);
}
);
width = 1381;
}
);
unicode = 212;
},
{
glyphname = uni00D5;
layers = (
{
layerId = "FD843F08-4597-4AFB-9C66-7B47690262C1";
shapes = (
{
closed = 1;
nodes = (
(251,841,o),
(316,1071,o),
(445,1254,o),
(642,1371,o),
(777,1371,qs),
(903,1371,o),
(1097,1262,o),
(1232,1085,o),
(1302,851,o),
(1302,729,qs),
(1302,608,o),
(1234,378,o),
(1099,197,o),
(903,85,o),
(777,85,qs),
(646,85,o),
(451,199,o),
(318,383,o),
(251,614,o),
(251,729,qs)
);
},
{
closed = 1;
nodes = (
(111,566,o),
(205,288,o),
(378,78,o),
(624,-44,o),
(777,-44,qs),
(932,-44,o),
(1177,80,o),
(1348,290,o),
(1441,572,o),
(1441,727,qs),
(1441,885,o),
(1351,1164,o),
(1177,1377,o),
(932,1501,o),
(777,1501,qs),
(624,1501,o),
(378,1379,o),
(205,1169,o),
(111,888,o),
(111,727,qs)
);
},
{
closed = 1;
nodes = (
(1087,1908,l),
(1079,1886,o),
(1058,1835,o),
(1022,1786,o),
(973,1753,o),
(940,1753,qs),
(910,1753,o),
(846,1786,o),
(797,1822,q),
(755,1858,o),
(668,1910,o),
(606,1910,qs),
(509,1910,o),
(399,1778,o),
(362,1680,q),
(465,1644,l),
(465,1644,o),
(469,1651,q),
(471,1657,o),
(471,1659,q),
(491,1711,o),
(554,1794,o),
(606,1794,qs),
(634,1794,o),
(686,1765,o),
(747,1719,q),
(807,1672,o),
(888,1636,o),
(932,1636,qs),
(1014,1636,o),
(1154,1747,o),
(1185,1856,q),
(1185,1868,o),
(1190,1874,q)
);
}
);
width = 1381;
}
);
unicode = 213;
},
{
glyphname = uni00D6;
layers = (
{
layerId = "FD843F08-4597-4AFB-9C66-7B47690262C1";
shapes = (
{
closed = 1;
nodes = (
(251,841,o),
(316,1071,o),
(445,1254,o),
(642,1371,o),
(777,1371,qs),
(903,1371,o),
(1097,1262,o),
(1232,1085,o),
(1302,851,o),
(1302,729,qs),
(1302,608,o),
(1234,378,o),
(1099,197,o),
(903,85,o),
(777,85,qs),
(646,85,o),
(451,199,o),
(318,383,o),
(251,614,o),
(251,729,qs)
);
},
{
closed = 1;
nodes = (
(111,566,o),
(205,288,o),
(378,78,o),
(624,-44,o),
(777,-44,qs),
(932,-44,o),
(1177,80,o),
(1348,290,o),
(1441,572,o),
(1441,727,qs),
(1441,885,o),
(1351,1164,o),
(1177,1377,o),
(932,1501,o),
(777,1501,qs),
(624,1501,o),
(378,1379,o),
(205,1169,o),
(111,888,o),
(111,727,qs)
);
},
{
closed = 1;
nodes = (
(851,1913,l),
(851,1633,l),
(1037,1633,l),
(1037,1913,l)
);
},
{
closed = 1;
nodes = (
(515,1913,l),
(515,1633,l),
(701,1633,l),
(701,1913,l)
);
}
);
width = 1381;
}
);
unicode = 214;
},
{
glyphname = uni00D7;
layers = (
{
layerId = "FD843F08-4597-4AFB-9C66-7B47690262C1";
shapes = (
{
closed = 1;
nodes = (
(272,1043,l),
(610,704,l),
(272,368,l),
(355,285,l),
(691,624,l),
(1027,285,l),
(1110,368,l),
(771,704,l),
(1110,1043,l),
(1027,1123,l),
(691,787,l),
(355,1123,l)
);
}
);
width = 1381;
}
);
unicode = 215;
},
{
glyphname = uni00D8;
layers = (
{
layerId = "FD843F08-4597-4AFB-9C66-7B47690262C1";
shapes = (
{
closed = 1;
nodes = (
(341,258,l),
(306,299,o),
(260,410,o),
(232,520,o),
(223,619,o),
(223,651,qs),
(223,760,o),
(285,965,o),
(405,1123,o),
(578,1220,o),
(688,1220,qs),
(718,1220,o),
(796,1211,o),
(877,1186,o),
(958,1137,o),
(992,1098,q)
);
},
{
closed = 1;
nodes = (
(1057,1015,l),
(1158,847,o),
(1158,645,qs),
(1158,527,o),
(1091,320,o),
(969,166,o),
(796,76,o),
(691,76,qs),
(631,76,o),
(541,99,o),
(472,131,o),
(424,166,o),
(407,180,q)
);
},
{
closed = 1;
nodes = (
(226,-53,l),
(341,85,l),
(444,2,o),
(631,-39,o),
(700,-39,qs),
(833,-39,o),
(1050,71,o),
(1202,258,o),
(1282,506,o),
(1282,642,qs),
(1282,658,o),
(1278,760,o),
(1250,898,o),
(1190,1050,o),
(1135,1116,q),
(1236,1245,l),
(1156,1305,l),
(1066,1192,l),
(1040,1211,o),
(978,1261,o),
(889,1305,o),
(771,1335,o),
(693,1335,qs),
(555,1335,o),
(336,1227,o),
(182,1038,o),
(99,787,o),
(99,645,qs),
(99,555,o),
(127,410,o),
(173,292,o),
(232,198,o),
(262,159,q),
(147,9,l)
);
}
);
width = 1381;
}
);
unicode = 216;
},
{
glyphname = uni00D9;
layers = (
{
layerId = "FD843F08-4597-4AFB-9C66-7B47690262C1";
shapes = (
{
closed = 1;
nodes = (
(642,1457,l),
(62,1457,l),
(62,1335,l),
(248,1335,l),
(248,606,ls),
(248,562,o),
(251,445,o),
(266,324,o),
(302,205,o),
(336,157,qs),
(380,96,o),
(495,18,o),
(614,-28,o),
(729,-44,o),
(777,-44,qs),
(862,-44,o),
(1004,-8,o),
(1115,49,o),
(1193,114,o),
(1214,145,q),
(1234,173,o),
(1268,243,o),
(1294,344,o),
(1306,481,o),
(1306,580,qs),
(1306,1335,l),
(1493,1335,l),
(1493,1457,l),
(914,1457,l),
(914,1335,l),
(1177,1335,l),
(1177,580,ls),
(1177,491,o),
(1164,318,o),
(1125,248,q),
(1089,176,o),
(926,85,o),
(773,85,qs),
(624,85,o),
(463,191,o),
(427,269,qs),
(391,344,o),
(378,525,o),
(378,606,qs),
(378,1335,l),
(642,1335,l)
);
},
{
closed = 1;
nodes = (
(769,1905,l),
(491,1905,l),
(833,1608,l),
(968,1608,l)
);
}
);
width = 1381;
}
);
unicode = 217;
},
{
glyphname = uni00DA;
layers = (
{
layerId = "FD843F08-4597-4AFB-9C66-7B47690262C1";
shapes = (
{
closed = 1;
nodes = (
(642,1457,l),
(62,1457,l),
(62,1335,l),
(248,1335,l),
(248,606,ls),
(248,562,o),
(251,445,o),
(266,324,o),
(302,205,o),
(336,157,qs),
(380,96,o),
(495,18,o),
(614,-28,o),
(729,-44,o),
(777,-44,qs),
(862,-44,o),
(1004,-8,o),
(1115,49,o),
(1193,114,o),
(1214,145,q),
(1234,173,o),
(1268,243,o),
(1294,344,o),
(1306,481,o),
(1306,580,qs),
(1306,1335,l),
(1493,1335,l),
(1493,1457,l),
(914,1457,l),
(914,1335,l),
(1177,1335,l),
(1177,580,ls),
(1177,491,o),
(1164,318,o),
(1125,248,q),
(1089,176,o),
(926,85,o),
(773,85,qs),
(624,85,o),
(463,191,o),
(427,269,qs),
(391,344,o),
(378,525,o),
(378,606,qs),
(378,1335,l),
(642,1335,l)
);
},
{
closed = 1;
nodes = (
(694,1608,l),
(1063,1905,l),
(787,1905,l),
(556,1608,l)
);
}
);
width = 1381;
}
);
unicode = 218;
},
{
glyphname = uni00DB;
layers = (
{
layerId = "FD843F08-4597-4AFB-9C66-7B47690262C1";
shapes = (
{
closed = 1;
nodes = (
(642,1457,l),
(62,1457,l),
(62,1335,l),
(248,1335,l),
(248,606,ls),
(248,562,o),
(251,445,o),
(266,324,o),
(302,205,o),
(336,157,qs),
(380,96,o),
(495,18,o),
(614,-28,o),
(729,-44,o),
(777,-44,qs),
(862,-44,o),
(1004,-8,o),
(1115,49,o),
(1193,114,o),
(1214,145,q),
(1234,173,o),
(1268,243,o),
(1294,344,o),
(1306,481,o),
(1306,580,qs),
(1306,1335,l),
(1493,1335,l),
(1493,1457,l),
(914,1457,l),
(914,1335,l),
(1177,1335,l),
(1177,580,ls),
(1177,491,o),
(1164,318,o),
(1125,248,q),
(1089,176,o),
(926,85,o),
(773,85,qs),
(624,85,o),
(463,191,o),
(427,269,qs),
(391,344,o),
(378,525,o),
(378,606,qs),
(378,1335,l),
(642,1335,l)
);
},
{
closed = 1;
nodes = (
(869,1913,l),
(670,1913,l),
(443,1667,l),
(528,1605,l),
(763,1776,l),
(1025,1605,l),
(1107,1669,l)
);
}
);
width = 1381;
}
);
unicode = 219;
},
{
glyphname = uni00DC;
layers = (
{
layerId = "FD843F08-4597-4AFB-9C66-7B47690262C1";
shapes = (
{
closed = 1;
nodes = (
(642,1457,l),
(62,1457,l),
(62,1335,l),
(248,1335,l),
(248,606,ls),
(248,562,o),
(251,445,o),
(266,324,o),
(302,205,o),
(336,157,qs),
(380,96,o),
(495,18,o),
(614,-28,o),
(729,-44,o),
(777,-44,qs),
(862,-44,o),
(1004,-8,o),
(1115,49,o),
(1193,114,o),
(1214,145,q),
(1234,173,o),
(1268,243,o),
(1294,344,o),
(1306,481,o),
(1306,580,qs),
(1306,1335,l),
(1493,1335,l),
(1493,1457,l),
(914,1457,l),
(914,1335,l),
(1177,1335,l),
(1177,580,ls),
(1177,491,o),
(1164,318,o),
(1125,248,q),
(1089,176,o),
(926,85,o),
(773,85,qs),
(624,85,o),
(463,191,o),
(427,269,qs),
(391,344,o),
(378,525,o),
(378,606,qs),
(378,1335,l),
(642,1335,l)
);
},
{
closed = 1;
nodes = (
(851,1913,l),
(851,1633,l),
(1037,1633,l),
(1037,1913,l)
);
},
{
closed = 1;
nodes = (
(515,1913,l),
(515,1633,l),
(701,1633,l),
(701,1913,l)
);
}
);
width = 1381;
}
);
unicode = 220;
},
{
glyphname = uni00DD;
layers = (
{
layerId = "FD843F08-4597-4AFB-9C66-7B47690262C1";
shapes = (
{
closed = 1;
nodes = (
(590,1457,l),
(83,1457,l),
(83,1335,l),
(246,1335,l),
(714,564,l),
(714,121,l),
(406,121,l),
(406,0,l),
(1149,0,l),
(1149,121,l),
(843,121,l),
(843,564,l),
(1306,1335,l),
(1470,1335,l),
(1470,1457,l),
(968,1457,l),
(968,1335,l),
(1169,1335,l),
(783,694,l),
(393,1335,l),
(590,1335,l)
);
},
{
closed = 1;
nodes = (
(694,1608,l),
(1063,1905,l),
(787,1905,l),
(556,1608,l)
);
}
);
width = 1381;
}
);
unicode = 221;
},
{
glyphname = uni00DE;
layers = (
{
layerId = "FD843F08-4597-4AFB-9C66-7B47690262C1";
shapes = (
{
closed = 1;
nodes = (
(465,962,l),
(691,962,ls),
(753,962,o),
(838,955,o),
(900,944,o),
(946,928,o),
(967,916,q),
(1013,893,o),
(1105,767,o),
(1105,672,qs),
(1105,589,o),
(1040,479,o),
(1008,453,qs),
(948,405,o),
(737,391,o),
(596,391,qs),
(465,391,l)
);
},
{
closed = 1;
nodes = (
(725,108,l),
(465,108,l),
(465,283,l),
(592,283,ls),
(695,283,o),
(836,285,o),
(939,299,o),
(1017,327,o),
(1059,352,q),
(1133,394,o),
(1229,575,o),
(1229,679,qs),
(1229,785,o),
(1133,953,o),
(1059,999,qs),
(1022,1022,o),
(946,1050,o),
(843,1066,o),
(697,1070,o),
(592,1070,qs),
(465,1070,l),
(465,1188,l),
(725,1188,l),
(725,1296,l),
(163,1296,l),
(163,1188,l),
(350,1188,l),
(350,108,l),
(163,108,l),
(163,0,l),
(725,0,l)
);
}
);
width = 1381;
}
);
unicode = 222;
},
{
glyphname = uni00DF;
layers = (
{
layerId = "FD843F08-4597-4AFB-9C66-7B47690262C1";
shapes = (
{
closed = 1;
nodes = (
(325,108,l),
(150,108,l),
(150,0,l),
(440,0,l),
(440,1020,ls),
(440,1107,o),
(486,1225,o),
(559,1294,o),
(649,1324,o),
(693,1324,qs),
(799,1324,o),
(905,1199,o),
(905,1107,qs),
(905,1020,o),
(824,923,o),
(718,872,o),
(615,859,o),
(592,856,q),
(592,750,l),
(1057,732,o),
(1057,382,qs),
(1057,304,o),
(1008,196,o),
(932,129,o),
(843,99,o),
(801,99,qs),
(709,99,o),
(580,154,o),
(539,180,q),
(539,60,l),
(566,41,o),
(691,-16,o),
(803,-16,qs),
(895,-16,o),
(1036,48,o),
(1133,154,o),
(1181,295,o),
(1181,371,qs),
(1181,495,o),
(1096,658,o),
(983,757,o),
(866,806,o),
(833,817,q),
(914,849,o),
(1024,1006,o),
(1024,1110,qs),
(1024,1176,o),
(978,1296,o),
(895,1386,o),
(773,1439,o),
(697,1439,qs),
(624,1439,o),
(490,1383,o),
(387,1280,o),
(325,1130,o),
(325,1038,qs)
);
}
);
width = 1381;
}
);
unicode = 223;
},
{
glyphname = uni00E0;
layers = (
{
layerId = "FD843F08-4597-4AFB-9C66-7B47690262C1";
shapes = (
{
closed = 1;
nodes = (
(1063.304,359.68,l),
(980.128,266.388,o),
(828.388,157.36,o),
(699.128,103.408,o),
(597.968,87.672,o),
(566.496,87.672,qs),
(512.544,87.672,o),
(413.632,127.012,o),
(336.076,191.08,o),
(292.24,276.504,o),
(292.24,325.96,qs),
(292.24,336.076,o),
(307.976,424.872,o),
(391.152,520.412,o),
(566.496,594.596,o),
(727.228,594.596,qs),
(836.256,594.596,o),
(1019.468,574.364,o),
(1063.304,566.496,q)
);
},
{
closed = 1;
nodes = (
(1192.564,121.392,l),
(1192.564,765.444,ls),
(1192.564,804.784,o),
(1180.2,936.292,o),
(1097.024,1068.924,o),
(918.308,1164.464,o),
(753.08,1164.464,qs),
(597.968,1164.464,o),
(341.696,1084.66,o),
(258.52,1047.568,q),
(307.976,931.796,l),
(463.088,999.236,o),
(680.02,1039.7,o),
(750.832,1039.7,qs),
(866.604,1039.7,o),
(995.864,977.88,o),
(1053.188,890.208,o),
(1063.304,796.916,o),
(1063.304,765.444,qs),
(1063.304,685.64,l),
(1003.732,695.756,o),
(882.34,709.244,o),
(781.18,717.112,o),
(709.244,719.36,o),
(701.376,719.36,qs),
(540.644,719.36,o),
(328.208,636.184,o),
(204.568,514.792,o),
(152.864,379.912,o),
(152.864,328.208,qs),
(152.864,260.768,o),
(209.064,131.508,o),
(318.092,28.1,o),
(470.956,-35.968,o),
(568.744,-35.968,qs),
(649.672,-35.968,o),
(794.668,5.62,o),
(918.308,69.688,o),
(1025.088,150.616,o),
(1063.304,186.584,q),
(1063.304,0,l),
(1422.984,0,l),
(1422.984,121.392,l)
);
},
{
closed = 1;
nodes = (
(768.816,1599.452,l),
(491.188,1599.452,l),
(832.884,1301.592,l),
(967.764,1301.592,l)
);
}
);
width = 1381;
}
);
unicode = 224;
},
{
glyphname = uni00E1;
layers = (
{
layerId = "FD843F08-4597-4AFB-9C66-7B47690262C1";
shapes = (
{
closed = 1;
nodes = (
(1063.304,359.68,l),
(980.128,266.388,o),
(828.388,157.36,o),
(699.128,103.408,o),
(597.968,87.672,o),
(566.496,87.672,qs),
(512.544,87.672,o),
(413.632,127.012,o),
(336.076,191.08,o),
(292.24,276.504,o),
(292.24,325.96,qs),
(292.24,336.076,o),
(307.976,424.872,o),
(391.152,520.412,o),
(566.496,594.596,o),
(727.228,594.596,qs),
(836.256,594.596,o),
(1019.468,574.364,o),
(1063.304,566.496,q)
);
},
{
closed = 1;
nodes = (
(1192.564,121.392,l),
(1192.564,765.444,ls),
(1192.564,804.784,o),
(1180.2,936.292,o),
(1097.024,1068.924,o),
(918.308,1164.464,o),
(753.08,1164.464,qs),
(597.968,1164.464,o),
(341.696,1084.66,o),
(258.52,1047.568,q),
(307.976,931.796,l),
(463.088,999.236,o),
(680.02,1039.7,o),
(750.832,1039.7,qs),
(866.604,1039.7,o),
(995.864,977.88,o),
(1053.188,890.208,o),
(1063.304,796.916,o),
(1063.304,765.444,qs),
(1063.304,685.64,l),
(1003.732,695.756,o),
(882.34,709.244,o),
(781.18,717.112,o),
(709.244,719.36,o),
(701.376,719.36,qs),
(540.644,719.36,o),
(328.208,636.184,o),
(204.568,514.792,o),
(152.864,379.912,o),
(152.864,328.208,qs),
(152.864,260.768,o),
(209.064,131.508,o),
(318.092,28.1,o),
(470.956,-35.968,o),
(568.744,-35.968,qs),
(649.672,-35.968,o),
(794.668,5.62,o),
(918.308,69.688,o),
(1025.088,150.616,o),
(1063.304,186.584,q),
(1063.304,0,l),
(1422.984,0,l),
(1422.984,121.392,l)
);
},
{
closed = 1;
nodes = (
(693.508,1301.592,l),
(1063.304,1599.452,l),
(786.8,1599.452,l),
(556.38,1301.592,l)
);
}
);
width = 1381;
}
);
unicode = 225;
},
{
glyphname = uni00E2;
layers = (
{
layerId = "FD843F08-4597-4AFB-9C66-7B47690262C1";
shapes = (
{
closed = 1;
nodes = (
(1063.304,359.68,l),
(980.128,266.388,o),
(828.388,157.36,o),
(699.128,103.408,o),
(597.968,87.672,o),
(566.496,87.672,qs),
(512.544,87.672,o),
(413.632,127.012,o),
(336.076,191.08,o),
(292.24,276.504,o),
(292.24,325.96,qs),
(292.24,336.076,o),
(307.976,424.872,o),
(391.152,520.412,o),
(566.496,594.596,o),
(727.228,594.596,qs),
(836.256,594.596,o),
(1019.468,574.364,o),
(1063.304,566.496,q)
);
},
{
closed = 1;
nodes = (
(1192.564,121.392,l),
(1192.564,765.444,ls),
(1192.564,804.784,o),
(1180.2,936.292,o),
(1097.024,1068.924,o),
(918.308,1164.464,o),
(753.08,1164.464,qs),
(597.968,1164.464,o),
(341.696,1084.66,o),
(258.52,1047.568,q),
(307.976,931.796,l),
(463.088,999.236,o),
(680.02,1039.7,o),
(750.832,1039.7,qs),
(866.604,1039.7,o),
(995.864,977.88,o),
(1053.188,890.208,o),
(1063.304,796.916,o),
(1063.304,765.444,qs),
(1063.304,685.64,l),
(1003.732,695.756,o),
(882.34,709.244,o),
(781.18,717.112,o),
(709.244,719.36,o),
(701.376,719.36,qs),
(540.644,719.36,o),
(328.208,636.184,o),
(204.568,514.792,o),
(152.864,379.912,o),
(152.864,328.208,qs),
(152.864,260.768,o),
(209.064,131.508,o),
(318.092,28.1,o),
(470.956,-35.968,o),
(568.744,-35.968,qs),
(649.672,-35.968,o),
(794.668,5.62,o),
(918.308,69.688,o),
(1025.088,150.616,o),
(1063.304,186.584,q),
(1063.304,0,l),
(1422.984,0,l),
(1422.984,121.392,l)
);
},
{
closed = 1;
nodes = (
(829.852,1607.32,l),
(630.904,1607.32,l),
(403.856,1361.164,l),
(489.28,1299.344,l),
(724.196,1470.192,l),
(986.088,1299.344,l),
(1068.14,1363.412,l)
);
}
);
width = 1381;
}
);
unicode = 226;
},
{
glyphname = uni00E3;
layers = (
{
layerId = "FD843F08-4597-4AFB-9C66-7B47690262C1";
shapes = (
{
closed = 1;
nodes = (
(1063.304,359.68,l),
(980.128,266.388,o),
(828.388,157.36,o),
(699.128,103.408,o),
(597.968,87.672,o),
(566.496,87.672,qs),
(512.544,87.672,o),
(413.632,127.012,o),
(336.076,191.08,o),
(292.24,276.504,o),
(292.24,325.96,qs),
(292.24,336.076,o),
(307.976,424.872,o),
(391.152,520.412,o),
(566.496,594.596,o),
(727.228,594.596,qs),
(836.256,594.596,o),
(1019.468,574.364,o),
(1063.304,566.496,q)
);
},
{
closed = 1;
nodes = (
(1192.564,121.392,l),
(1192.564,765.444,ls),
(1192.564,804.784,o),
(1180.2,936.292,o),
(1097.024,1068.924,o),
(918.308,1164.464,o),
(753.08,1164.464,qs),
(597.968,1164.464,o),
(341.696,1084.66,o),
(258.52,1047.568,q),
(307.976,931.796,l),
(463.088,999.236,o),
(680.02,1039.7,o),
(750.832,1039.7,qs),
(866.604,1039.7,o),
(995.864,977.88,o),
(1053.188,890.208,o),
(1063.304,796.916,o),
(1063.304,765.444,qs),
(1063.304,685.64,l),
(1003.732,695.756,o),
(882.34,709.244,o),
(781.18,717.112,o),
(709.244,719.36,o),
(701.376,719.36,qs),
(540.644,719.36,o),
(328.208,636.184,o),
(204.568,514.792,o),
(152.864,379.912,o),
(152.864,328.208,qs),
(152.864,260.768,o),
(209.064,131.508,o),
(318.092,28.1,o),
(470.956,-35.968,o),
(568.744,-35.968,qs),
(649.672,-35.968,o),
(794.668,5.62,o),
(918.308,69.688,o),
(1025.088,150.616,o),
(1063.304,186.584,q),
(1063.304,0,l),
(1422.984,0,l),
(1422.984,121.392,l)
);
},
{
closed = 1;
nodes = (
(1086.908,1601.7,l),
(1079.04,1580.344,o),
(1057.684,1528.64,o),
(1021.716,1480.308,o),
(973.384,1446.588,o),
(939.664,1446.588,qs),
(910.44,1446.588,o),
(846.372,1480.308,o),
(796.916,1516.276,q),
(755.328,1552.244,o),
(667.656,1603.948,o),
(605.836,1603.948,qs),
(509.172,1603.948,o),
(399.02,1472.44,o),
(361.928,1373.528,q),
(465.336,1337.56,l),
(465.336,1337.56,o),
(468.708,1345.428,q),
(470.956,1351.048,o),
(470.956,1353.296,q),
(491.188,1405,o),
(554.132,1488.176,o),
(605.836,1488.176,qs),
(633.936,1488.176,o),
(685.64,1458.952,o),
(747.46,1412.868,q),
(807.032,1365.66,o),
(887.96,1329.692,o),
(931.796,1329.692,qs),
(1013.848,1329.692,o),
(1154.348,1440.968,o),
(1184.696,1549.996,q),
(1184.696,1562.36,o),
(1190.316,1567.98,q)
);
}
);
width = 1381;
}
);
unicode = 227;
},
{
glyphname = uni00E4;
layers = (
{
layerId = "FD843F08-4597-4AFB-9C66-7B47690262C1";
shapes = (
{
closed = 1;
nodes = (
(1063.304,359.68,l),
(980.128,266.388,o),
(828.388,157.36,o),
(699.128,103.408,o),
(597.968,87.672,o),
(566.496,87.672,qs),
(512.544,87.672,o),
(413.632,127.012,o),
(336.076,191.08,o),
(292.24,276.504,o),
(292.24,325.96,qs),
(292.24,336.076,o),
(307.976,424.872,o),
(391.152,520.412,o),
(566.496,594.596,o),
(727.228,594.596,qs),
(836.256,594.596,o),
(1019.468,574.364,o),
(1063.304,566.496,q)
);
},
{
closed = 1;
nodes = (
(1192.564,121.392,l),
(1192.564,765.444,ls),
(1192.564,804.784,o),
(1180.2,936.292,o),
(1097.024,1068.924,o),
(918.308,1164.464,o),
(753.08,1164.464,qs),
(597.968,1164.464,o),
(341.696,1084.66,o),
(258.52,1047.568,q),
(307.976,931.796,l),
(463.088,999.236,o),
(680.02,1039.7,o),
(750.832,1039.7,qs),
(866.604,1039.7,o),
(995.864,977.88,o),
(1053.188,890.208,o),
(1063.304,796.916,o),
(1063.304,765.444,qs),
(1063.304,685.64,l),
(1003.732,695.756,o),
(882.34,709.244,o),
(781.18,717.112,o),
(709.244,719.36,o),
(701.376,719.36,qs),
(540.644,719.36,o),
(328.208,636.184,o),
(204.568,514.792,o),
(152.864,379.912,o),
(152.864,328.208,qs),
(152.864,260.768,o),
(209.064,131.508,o),
(318.092,28.1,o),
(470.956,-35.968,o),
(568.744,-35.968,qs),
(649.672,-35.968,o),
(794.668,5.62,o),
(918.308,69.688,o),
(1025.088,150.616,o),
(1063.304,186.584,q),
(1063.304,0,l),
(1422.984,0,l),
(1422.984,121.392,l)
);
},
{
closed = 1;
nodes = (
(811.868,1607.32,l),
(811.868,1327.444,l),
(998.452,1327.444,l),
(998.452,1607.32,l)
);
},
{
closed = 1;
nodes = (
(475.792,1607.32,l),
(475.792,1327.444,l),
(662.376,1327.444,l),
(662.376,1607.32,l)
);
}
);
width = 1381;
}
);
unicode = 228;
},
{
glyphname = uni00E5;
layers = (
{
layerId = "FD843F08-4597-4AFB-9C66-7B47690262C1";
shapes = (
{
closed = 1;
nodes = (
(729.719,1390.38,o),
(778.06,1339.74,o),
(778.06,1302.9,qs),
(778.06,1266.07,o),
(729.719,1215.43,o),
(692.888,1215.43,qs),
(656.056,1215.43,o),
(603.111,1266.07,o),
(603.111,1302.9,qs),
(603.111,1344.34,o),
(656.056,1390.38,o),
(692.888,1390.38,qs)
);
},
{
closed = 1;
nodes = (
(616.923,1477.85,o),
(515.637,1376.57,o),
(515.637,1302.9,qs),
(515.637,1229.24,o),
(616.923,1127.96,o),
(690.586,1127.96,qs),
(764.248,1127.96,o),
(865.534,1229.24,o),
(865.534,1302.9,qs),
(865.534,1376.57,o),
(764.248,1477.85,o),
(690.586,1477.85,qs)
);
},
{
closed = 1;
nodes = (
(946.102,319.971,l),
(872.44,237.101,o),
(736.625,140.419,o),
(621.527,92.078,o),
(531.751,78.266,o),
(504.127,78.266,qs),
(455.786,78.266,o),
(368.312,112.796,o),
(299.254,170.344,o),
(260.121,246.309,o),
(260.121,290.046,qs),
(260.121,299.254,o),
(273.932,377.52,o),
(347.595,462.692,o),
(504.127,529.449,o),
(646.849,529.449,qs),
(743.53,529.449,o),
(906.969,511.033,o),
(946.102,504.127,q)
);
},
{
closed = 1;
nodes = (
(1061.2,108.192,l),
(1061.2,681.378,ls),
(1061.2,715.907,o),
(1049.69,833.307,o),
(976.028,950.706,o),
(817.193,1035.88,o),
(669.868,1035.88,qs),
(531.751,1035.88,o),
(303.858,964.518,o),
(230.195,932.291,q),
(273.932,828.703,l),
(412.049,888.553,o),
(605.413,925.385,o),
(667.566,925.385,qs),
(771.154,925.385,o),
(886.252,870.138,o),
(936.894,791.871,o),
(946.102,709,o),
(946.102,681.377,qs),
(946.102,610.016,l),
(893.157,619.224,o),
(784.966,630.734,o),
(695.19,637.64,o),
(630.735,639.942,o),
(623.829,639.942,qs),
(481.108,639.942,o),
(292.348,566.279,o),
(181.854,458.087,o),
(135.815,338.386,o),
(135.815,292.347,qs),
(135.815,232.496,o),
(186.458,117.399,o),
(283.14,25.321,o),
(418.955,-32.228,o),
(506.429,-32.228,qs),
(577.79,-32.228,o),
(706.699,4.603,o),
(817.193,62.152,o),
(911.573,133.512,o),
(946.102,165.74,q),
(946.102,0,l),
(1266.07,0,l),
(1266.07,108.192,l)
);
}
);
width = 1381;
}
);
unicode = 229;
},
{
glyphname = uni00E6;
layers = (
{
layerId = "FD843F08-4597-4AFB-9C66-7B47690262C1";
shapes = (
{
closed = 1;
nodes = (
(736.625,575.488,l),
(738.927,649.15,o),
(757.342,771.154,o),
(807.985,833.307,qs),
(833.307,863.232,o),
(916.177,925.385,o),
(976.028,925.385,qs),
(1072.71,925.385,o),
(1176.3,748.134,o),
(1180.9,575.488,q)
);
},
{
closed = 1;
nodes = (
(621.527,204.874,l),
(603.111,188.76,o),
(547.865,145.023,o),
(481.108,103.588,o),
(400.54,75.964,o),
(359.105,75.964,qs),
(315.367,75.964,o),
(253.215,110.494,o),
(211.78,165.741,o),
(191.062,232.497,o),
(191.062,267.026,qs),
(191.062,296.952,o),
(211.78,379.822,o),
(269.328,451.183,o),
(368.312,501.826,o),
(446.579,501.826,qs),
(485.712,501.826,o),
(561.676,492.618,o),
(621.527,481.108,q)
);
},
{
closed = 1;
nodes = (
(1296,467.296,l),
(1302.9,607.715,o),
(1266.07,801.079,o),
(1201.62,927.687,o),
(1121.05,996.745,o),
(1045.09,1028.97,o),
(987.537,1035.88,o),
(978.33,1035.88,qs),
(923.083,1035.88,o),
(837.911,999.047,o),
(771.154,948.404,o),
(722.813,886.252,o),
(704.397,863.232,q),
(692.888,897.761,o),
(658.358,959.914,o),
(603.111,1008.25,o),
(517.939,1035.88,o),
(455.786,1035.88,qs),
(384.426,1035.88,o),
(241.705,1001.35,o),
(145.023,964.518,q),
(177.25,863.232,l),
(273.932,897.761,o),
(393.634,925.385,o),
(453.485,925.385,qs),
(506.429,925.385,o),
(570.884,890.855,o),
(607.715,826.401,o),
(621.527,732.021,o),
(621.527,672.17,qs),
(621.527,591.602,l),
(557.072,600.809,o),
(483.41,612.319,o),
(444.277,612.319,qs),
(349.897,612.319,o),
(211.78,547.865,o),
(122.003,448.881,o),
(75.964,324.575,o),
(75.964,267.026,qs),
(75.964,209.478,o),
(112.796,101.286,o),
(186.458,16.114,o),
(292.348,-34.529,o),
(361.406,-34.529,qs),
(391.332,-34.529,o),
(464.994,-20.718,o),
(552.468,16.114,o),
(651.452,85.172,o),
(704.397,138.117,q),
(715.907,122.003,o),
(759.644,64.455,o),
(831.005,9.208,o),
(932.291,-32.227,o),
(1001.35,-32.227,qs),
(1031.27,-32.227,o),
(1183.2,-13.812,o),
(1307.51,29.925,q),
(1266.07,128.909,l),
(1208.52,110.494,o),
(1075.01,78.266,o),
(1005.95,78.266,qs),
(973.726,78.266,o),
(863.232,105.89,o),
(810.287,174.948,qs),
(764.248,234.799,o),
(741.229,368.312,o),
(736.625,467.296,q)
);
}
);
width = 1381;
}
);
unicode = 230;
},
{
glyphname = uni00E7;
layers = (
{
layerId = "FD843F08-4597-4AFB-9C66-7B47690262C1";
shapes = (
{
closed = 1;
nodes = (
(759.644,-29.925,l),
(833.307,-23.02,o),
(959.914,13.812,o),
(1079.62,69.059,o),
(1199.32,142.721,o),
(1263.77,191.062,q),
(1203.92,278.536,l),
(1077.31,191.062,o),
(840.212,82.87,o),
(715.907,82.87,qs),
(603.111,82.87,o),
(441.975,158.835,o),
(338.387,278.536,o),
(287.744,425.861,o),
(287.744,499.524,qs),
(287.744,575.488,o),
(340.689,720.511,o),
(451.183,837.911,o),
(614.621,909.271,o),
(725.115,909.271,qs),
(748.134,909.271,o),
(812.589,904.667,o),
(883.95,888.553,o),
(957.612,858.628,o),
(989.839,833.307,q),
(1033.58,796.475,o),
(1065.8,706.699,o),
(1084.22,628.433,q),
(1190.11,644.547,l),
(1183.2,734.323,o),
(1183.2,796.475,qs),
(1183.2,856.326,o),
(1199.32,973.726,o),
(1203.92,1008.25,q),
(1098.03,1019.76,l),
(1079.62,925.385,l),
(1077.31,920.781,o),
(1068.11,895.459,o),
(1061.2,895.459,q),
(1061.2,895.459,o),
(1054.29,900.063,qs),
(1047.39,904.667,o),
(1031.27,916.177,o),
(1015.16,927.687,o),
(1012.86,929.989,q),
(941.498,980.632,o),
(803.381,1024.37,o),
(713.605,1024.37,qs),
(570.884,1024.37,o),
(363.708,927.687,o),
(230.195,775.758,o),
(163.439,589.3,o),
(163.439,497.222,qs),
(163.439,375.218,o),
(250.913,181.854,o),
(391.332,46.039,o),
(568.582,-27.623,o),
(658.358,-29.925,q),
(649.15,-154.231,l),
(660.66,-151.929,o),
(683.68,-149.627,o),
(702.095,-149.627,qs),
(711.303,-149.627,o),
(750.436,-158.835,o),
(750.436,-188.76,qs),
(750.436,-200.27,o),
(734.323,-230.195,o),
(706.699,-230.195,qs),
(690.586,-230.195,o),
(669.868,-220.987,o),
(633.037,-195.666,q),
(582.394,-280.838,l),
(610.017,-299.254,o),
(669.868,-331.481,o),
(715.907,-331.481,qs),
(757.342,-331.481,o),
(810.287,-301.556,o),
(840.212,-255.517,o),
(854.024,-204.874,o),
(854.024,-186.458,qs),
(854.024,-147.325,o),
(807.985,-71.361,o),
(759.644,-59.851,q)
);
}
);
width = 1381;
}
);
unicode = 231;
},
{
glyphname = uni00E8;
layers = (
{
layerId = "FD843F08-4597-4AFB-9C66-7B47690262C1";
shapes = (
{
closed = 1;
nodes = (
(331.58,641.804,l),
(339.448,685.64,o),
(393.4,817.148,o),
(502.428,939.664,o),
(675.524,1027.336,o),
(804.784,1027.336,qs),
(920.556,1027.336,o),
(1089.156,954.276,o),
(1198.184,840.752,o),
(1252.136,703.624,o),
(1252.136,641.804,q)
);
},
{
closed = 1;
nodes = (
(1387.016,260.768,l),
(1345.428,240.536,o),
(1221.788,180.964,o),
(1071.172,127.012,o),
(902.572,87.672,o),
(822.768,87.672,qs),
(673.276,87.672,o),
(483.32,186.584,o),
(375.416,320.34,o),
(333.828,468.708,o),
(331.58,520.412,q),
(1387.016,520.412,l),
(1387.016,532.776,o),
(1391.512,605.836,o),
(1391.512,636.184,qs),
(1391.512,724.98,o),
(1319.576,908.192,o),
(1172.332,1057.684,o),
(952.028,1150.976,o),
(804.784,1150.976,qs),
(662.036,1150.976,o),
(434.988,1055.436,o),
(276.504,890.208,o),
(191.08,673.276,o),
(191.08,554.132,qs),
(191.08,439.484,o),
(268.636,224.8,o),
(427.12,61.82,o),
(662.036,-35.968,o),
(820.52,-35.968,qs),
(910.44,-35.968,o),
(1091.404,0,o),
(1254.384,53.952,o),
(1394.884,119.144,o),
(1446.588,147.244,q)
);
},
{
closed = 1;
nodes = (
(807.816,1599.452,l),
(530.188,1599.452,l),
(871.884,1301.592,l),
(1006.764,1301.592,l)
);
}
);
width = 1381;
}
);
unicode = 232;
},
{
glyphname = uni00E9;
layers = (
{
layerId = "FD843F08-4597-4AFB-9C66-7B47690262C1";
shapes = (
{
closed = 1;
nodes = (
(331.58,641.804,l),
(339.448,685.64,o),
(393.4,817.148,o),
(502.428,939.664,o),
(675.524,1027.336,o),
(804.784,1027.336,qs),
(920.556,1027.336,o),
(1089.156,954.276,o),
(1198.184,840.752,o),
(1252.136,703.624,o),
(1252.136,641.804,q)
);
},
{
closed = 1;
nodes = (
(1387.016,260.768,l),
(1345.428,240.536,o),
(1221.788,180.964,o),
(1071.172,127.012,o),
(902.572,87.672,o),
(822.768,87.672,qs),
(673.276,87.672,o),
(483.32,186.584,o),
(375.416,320.34,o),
(333.828,468.708,o),
(331.58,520.412,q),
(1387.016,520.412,l),
(1387.016,532.776,o),
(1391.512,605.836,o),
(1391.512,636.184,qs),
(1391.512,724.98,o),
(1319.576,908.192,o),
(1172.332,1057.684,o),
(952.028,1150.976,o),
(804.784,1150.976,qs),
(662.036,1150.976,o),
(434.988,1055.436,o),
(276.504,890.208,o),
(191.08,673.276,o),
(191.08,554.132,qs),
(191.08,439.484,o),
(268.636,224.8,o),
(427.12,61.82,o),
(662.036,-35.968,o),
(820.52,-35.968,qs),
(910.44,-35.968,o),
(1091.404,0,o),
(1254.384,53.952,o),
(1394.884,119.144,o),
(1446.588,147.244,q)
);
},
{
closed = 1;
nodes = (
(693.508,1301.592,l),
(1063.304,1599.452,l),
(786.8,1599.452,l),
(556.38,1301.592,l)
);
}
);
width = 1381;
}
);
unicode = 233;
},
{
glyphname = uni00EA;
layers = (
{
layerId = "FD843F08-4597-4AFB-9C66-7B47690262C1";
shapes = (
{
closed = 1;
nodes = (
(331.58,641.804,l),
(339.448,685.64,o),
(393.4,817.148,o),
(502.428,939.664,o),
(675.524,1027.336,o),
(804.784,1027.336,qs),
(920.556,1027.336,o),
(1089.156,954.276,o),
(1198.184,840.752,o),
(1252.136,703.624,o),
(1252.136,641.804,q)
);
},
{
closed = 1;
nodes = (
(1387.016,260.768,l),
(1345.428,240.536,o),
(1221.788,180.964,o),
(1071.172,127.012,o),
(902.572,87.672,o),
(822.768,87.672,qs),
(673.276,87.672,o),
(483.32,186.584,o),
(375.416,320.34,o),
(333.828,468.708,o),
(331.58,520.412,q),
(1387.016,520.412,l),
(1387.016,532.776,o),
(1391.512,605.836,o),
(1391.512,636.184,qs),
(1391.512,724.98,o),
(1319.576,908.192,o),
(1172.332,1057.684,o),
(952.028,1150.976,o),
(804.784,1150.976,qs),
(662.036,1150.976,o),
(434.988,1055.436,o),
(276.504,890.208,o),
(191.08,673.276,o),
(191.08,554.132,qs),
(191.08,439.484,o),
(268.636,224.8,o),
(427.12,61.82,o),
(662.036,-35.968,o),
(820.52,-35.968,qs),
(910.44,-35.968,o),
(1091.404,0,o),
(1254.384,53.952,o),
(1394.884,119.144,o),
(1446.588,147.244,q)
);
},
{
closed = 1;
nodes = (
(868.852,1607.32,l),
(669.904,1607.32,l),
(442.856,1361.164,l),
(528.28,1299.344,l),
(763.196,1470.192,l),
(1025.088,1299.344,l),
(1107.14,1363.412,l)
);
}
);
width = 1381;
}
);
unicode = 234;
},
{
glyphname = uni00EB;
layers = (
{
layerId = "FD843F08-4597-4AFB-9C66-7B47690262C1";
shapes = (
{
closed = 1;
nodes = (
(331.58,641.804,l),
(339.448,685.64,o),
(393.4,817.148,o),
(502.428,939.664,o),
(675.524,1027.336,o),
(804.784,1027.336,qs),
(920.556,1027.336,o),
(1089.156,954.276,o),
(1198.184,840.752,o),
(1252.136,703.624,o),
(1252.136,641.804,q)
);
},
{
closed = 1;
nodes = (
(1387.016,260.768,l),
(1345.428,240.536,o),
(1221.788,180.964,o),
(1071.172,127.012,o),
(902.572,87.672,o),
(822.768,87.672,qs),
(673.276,87.672,o),
(483.32,186.584,o),
(375.416,320.34,o),
(333.828,468.708,o),
(331.58,520.412,q),
(1387.016,520.412,l),
(1387.016,532.776,o),
(1391.512,605.836,o),
(1391.512,636.184,qs),
(1391.512,724.98,o),
(1319.576,908.192,o),
(1172.332,1057.684,o),
(952.028,1150.976,o),
(804.784,1150.976,qs),
(662.036,1150.976,o),
(434.988,1055.436,o),
(276.504,890.208,o),
(191.08,673.276,o),
(191.08,554.132,qs),
(191.08,439.484,o),
(268.636,224.8,o),
(427.12,61.82,o),
(662.036,-35.968,o),
(820.52,-35.968,qs),
(910.44,-35.968,o),
(1091.404,0,o),
(1254.384,53.952,o),
(1394.884,119.144,o),
(1446.588,147.244,q)
);
},
{
closed = 1;
nodes = (
(850.868,1607.32,l),
(850.868,1327.444,l),
(1037.452,1327.444,l),
(1037.452,1607.32,l)
);
},
{
closed = 1;
nodes = (
(514.792,1607.32,l),
(514.792,1327.444,l),
(701.376,1327.444,l),
(701.376,1607.32,l)
);
}
);
width = 1381;
}
);
unicode = 235;
},
{
glyphname = uni00EC;
layers = (
{
layerId = "FD843F08-4597-4AFB-9C66-7B47690262C1";
shapes = (
{
closed = 1;
nodes = (
(752.738,989.839,l),
(299.254,989.839,l),
(299.254,881.648,l),
(637.641,881.648,l),
(637.641,108.192,l),
(232.497,108.192,l),
(232.497,0,l),
(1150.98,0,l),
(1150.98,108.192,l),
(752.738,108.192,l)
);
},
{
closed = 1;
nodes = (
(683.68,1422.61,l),
(437.371,1422.61,l),
(741.229,1157.88,l),
(860.93,1157.88,l)
);
}
);
width = 1381;
}
);
unicode = 236;
},
{
glyphname = uni00ED;
layers = (
{
layerId = "FD843F08-4597-4AFB-9C66-7B47690262C1";
shapes = (
{
closed = 1;
nodes = (
(752.738,989.839,l),
(299.254,989.839,l),
(299.254,881.648,l),
(637.641,881.648,l),
(637.641,108.192,l),
(232.497,108.192,l),
(232.497,0,l),
(1150.98,0,l),
(1150.98,108.192,l),
(752.738,108.192,l)
);
},
{
closed = 1;
nodes = (
(616.923,1157.88,l),
(946.102,1422.61,l),
(699.793,1422.61,l),
(494.92,1157.88,l)
);
}
);
width = 1381;
}
);
unicode = 237;
},
{
glyphname = uni00EE;
layers = (
{
layerId = "FD843F08-4597-4AFB-9C66-7B47690262C1";
shapes = (
{
closed = 1;
nodes = (
(752.738,989.839,l),
(299.254,989.839,l),
(299.254,881.648,l),
(637.641,881.648,l),
(637.641,108.192,l),
(232.497,108.192,l),
(232.497,0,l),
(1150.98,0,l),
(1150.98,108.192,l),
(752.738,108.192,l)
);
},
{
closed = 1;
nodes = (
(773.456,1429.51,l),
(596.206,1429.51,l),
(393.634,1210.83,l),
(469.598,1155.58,l),
(679.076,1307.51,l),
(911.573,1155.58,l),
(985.235,1213.13,l)
);
}
);
width = 1381;
}
);
unicode = 238;
},
{
glyphname = uni00EF;
layers = (
{
layerId = "FD843F08-4597-4AFB-9C66-7B47690262C1";
shapes = (
{
closed = 1;
nodes = (
(752.738,989.839,l),
(299.254,989.839,l),
(299.254,881.648,l),
(637.641,881.648,l),
(637.641,108.192,l),
(232.497,108.192,l),
(232.497,0,l),
(1150.98,0,l),
(1150.98,108.192,l),
(752.738,108.192,l)
);
},
{
closed = 1;
nodes = (
(757.342,1429.51,l),
(757.342,1180.9,l),
(923.083,1180.9,l),
(923.083,1429.51,l)
);
},
{
closed = 1;
nodes = (
(458.088,1429.51,l),
(458.088,1180.9,l),
(623.829,1180.9,l),
(623.829,1429.51,l)
);
}
);
width = 1381;
}
);
unicode = 239;
},
{
glyphname = uni00F0;
layers = (
{
layerId = "FD843F08-4597-4AFB-9C66-7B47690262C1";
shapes = (
{
closed = 1;
nodes = (
(244.007,584.696,o),
(303.858,738.927,o),
(416.653,856.326,o),
(582.394,927.687,o),
(690.586,927.687,qs),
(801.079,927.687,o),
(966.82,854.024,o),
(1079.62,734.323,o),
(1137.16,580.092,o),
(1137.16,501.826,qs),
(1137.16,421.257,o),
(1079.62,269.328,o),
(969.122,149.627,o),
(801.079,75.964,o),
(690.586,75.964,qs),
(582.394,75.964,o),
(416.653,147.325,o),
(301.556,267.026,o),
(244.007,418.955,o),
(244.007,501.826,qs)
);
},
{
closed = 1;
nodes = (
(490.316,1118.75,l),
(610.017,1307.51,l),
(692.888,1259.17,o),
(807.985,1176.3,o),
(893.157,1095.73,o),
(957.612,1019.76,o),
(989.839,978.33,q),
(985.235,973.726,l),
(934.593,999.047,o),
(759.644,1035.88,o),
(669.868,1035.88,qs),
(563.978,1035.88,o),
(366.01,964.518,o),
(211.78,826.401,o),
(119.702,628.433,o),
(119.702,501.826,qs),
(119.702,400.54,o),
(191.062,209.478,o),
(333.783,59.851,o),
(547.865,-32.227,o),
(690.586,-32.227,qs),
(810.287,-32.227,o),
(1019.76,41.435,o),
(1174,181.854,o),
(1261.47,389.03,o),
(1261.47,522.543,qs),
(1261.47,656.056,o),
(1194.71,879.346,o),
(1086.52,1063.5,o),
(955.31,1208.52,o),
(824.099,1316.72,o),
(709,1392.68,o),
(674.471,1413.4,q),
(764.247,1556.12,l),
(665.263,1620.57,l),
(570.883,1466.34,l),
(529.448,1487.06,o),
(462.691,1516.99,o),
(400.539,1542.31,o),
(333.782,1565.33,o),
(290.045,1579.14,q),
(250.912,1466.34,l),
(285.441,1454.83,o),
(340.688,1436.42,o),
(398.237,1413.4,o),
(462.691,1383.47,o),
(506.428,1362.76,q),
(391.331,1187.81,l)
);
}
);
width = 1381;
}
);
unicode = 240;
},
{
glyphname = uni00F1;
layers = (
{
layerId = "FD843F08-4597-4AFB-9C66-7B47690262C1";
shapes = (
{
closed = 1;
nodes = (
(429.368,1112.76,l),
(87.672,1112.76,l),
(87.672,991.368,l),
(300.108,991.368,l),
(300.108,121.392,l),
(87.672,121.392,l),
(87.672,0,l),
(646.3,0,l),
(646.3,121.392,l),
(429.368,121.392,l),
(429.368,814.9,l),
(517.04,884.588,o),
(654.168,965.516,o),
(763.196,1009.352,o),
(846.372,1021.716,o),
(876.72,1021.716,qs),
(993.616,1021.716,o),
(1130.744,856.488,o),
(1130.744,713.74,qs),
(1130.744,121.392,l),
(908.192,121.392,l),
(908.192,0,l),
(1466.82,0,l),
(1466.82,121.392,l),
(1260.004,121.392,l),
(1260.004,724.98,ls),
(1260.004,817.148,o),
(1206.052,975.632,o),
(1104.892,1089.156,o),
(962.144,1150.976,o),
(874.472,1150.976,qs),
(804.784,1150.976,o),
(680.02,1117.256,o),
(568.744,1063.304,o),
(470.956,999.236,o),
(429.368,967.764,q)
);
},
{
closed = 1;
nodes = (
(1086.908,1601.7,l),
(1079.04,1580.344,o),
(1057.684,1528.64,o),
(1021.716,1480.308,o),
(973.384,1446.588,o),
(939.664,1446.588,qs),
(910.44,1446.588,o),
(846.372,1480.308,o),
(796.916,1516.276,q),
(755.328,1552.244,o),
(667.656,1603.948,o),
(605.836,1603.948,qs),
(509.172,1603.948,o),
(399.02,1472.44,o),
(361.928,1373.528,q),
(465.336,1337.56,l),
(465.336,1337.56,o),
(468.708,1345.428,q),
(470.956,1351.048,o),
(470.956,1353.296,q),
(491.188,1405,o),
(554.132,1488.176,o),
(605.836,1488.176,qs),
(633.936,1488.176,o),
(685.64,1458.952,o),
(747.46,1412.868,q),
(807.032,1365.66,o),
(887.96,1329.692,o),
(931.796,1329.692,qs),
(1013.848,1329.692,o),
(1154.348,1440.968,o),
(1184.696,1549.996,q),
(1184.696,1562.36,o),
(1190.316,1567.98,q)
);
}
);
width = 1381;
}
);
unicode = 241;
},
{
glyphname = uni00F2;
layers = (
{
layerId = "FD843F08-4597-4AFB-9C66-7B47690262C1";
shapes = (
{
closed = 1;
nodes = (
(274.256,657.54,o),
(339.448,825.016,o),
(468.708,957.648,o),
(654.168,1035.204,o),
(776.684,1035.204,qs),
(900.324,1035.204,o),
(1089.156,954.276,o),
(1213.92,822.768,o),
(1277.988,651.92,o),
(1277.988,564.248,qs),
(1277.988,473.204,o),
(1213.92,305.728,o),
(1089.156,173.096,o),
(900.324,93.292,o),
(776.684,93.292,qs),
(654.168,93.292,o),
(465.336,170.848,o),
(339.448,302.356,o),
(274.256,473.204,o),
(274.256,564.248,qs)
);
},
{
closed = 1;
nodes = (
(134.88,447.352,o),
(216.932,232.668,o),
(377.664,65.192,o),
(618.2,-35.968,o),
(776.684,-35.968,qs),
(939.664,-35.968,o),
(1180.2,67.44,o),
(1337.56,238.288,o),
(1417.364,452.972,o),
(1417.364,564.248,qs),
(1417.364,675.524,o),
(1337.56,890.208,o),
(1180.2,1061.056,o),
(939.664,1164.464,o),
(776.684,1164.464,qs),
(618.2,1164.464,o),
(377.664,1063.304,o),
(216.932,898.076,o),
(134.88,680.02,o),
(134.88,564.248,qs)
);
},
{
closed = 1;
nodes = (
(768.816,1599.452,l),
(491.188,1599.452,l),
(832.884,1301.592,l),
(967.764,1301.592,l)
);
}
);
width = 1381;
}
);
unicode = 242;
},
{
glyphname = uni00F3;
layers = (
{
layerId = "FD843F08-4597-4AFB-9C66-7B47690262C1";
shapes = (
{
closed = 1;
nodes = (
(274.256,657.54,o),
(339.448,825.016,o),
(468.708,957.648,o),
(654.168,1035.204,o),
(776.684,1035.204,qs),
(900.324,1035.204,o),
(1089.156,954.276,o),
(1213.92,822.768,o),
(1277.988,651.92,o),
(1277.988,564.248,qs),
(1277.988,473.204,o),
(1213.92,305.728,o),
(1089.156,173.096,o),
(900.324,93.292,o),
(776.684,93.292,qs),
(654.168,93.292,o),
(465.336,170.848,o),
(339.448,302.356,o),
(274.256,473.204,o),
(274.256,564.248,qs)
);
},
{
closed = 1;
nodes = (
(134.88,447.352,o),
(216.932,232.668,o),
(377.664,65.192,o),
(618.2,-35.968,o),
(776.684,-35.968,qs),
(939.664,-35.968,o),
(1180.2,67.44,o),
(1337.56,238.288,o),
(1417.364,452.972,o),
(1417.364,564.248,qs),
(1417.364,675.524,o),
(1337.56,890.208,o),
(1180.2,1061.056,o),
(939.664,1164.464,o),
(776.684,1164.464,qs),
(618.2,1164.464,o),
(377.664,1063.304,o),
(216.932,898.076,o),
(134.88,680.02,o),
(134.88,564.248,qs)
);
},
{
closed = 1;
nodes = (
(693.508,1301.592,l),
(1063.304,1599.452,l),
(786.8,1599.452,l),
(556.38,1301.592,l)
);
}
);
width = 1381;
}
);
unicode = 243;
},
{
glyphname = uni00F4;
layers = (
{
layerId = "FD843F08-4597-4AFB-9C66-7B47690262C1";
shapes = (
{
closed = 1;
nodes = (
(274.256,657.54,o),
(339.448,825.016,o),
(468.708,957.648,o),
(654.168,1035.204,o),
(776.684,1035.204,qs),
(900.324,1035.204,o),
(1089.156,954.276,o),
(1213.92,822.768,o),
(1277.988,651.92,o),
(1277.988,564.248,qs),
(1277.988,473.204,o),
(1213.92,305.728,o),
(1089.156,173.096,o),
(900.324,93.292,o),
(776.684,93.292,qs),
(654.168,93.292,o),
(465.336,170.848,o),
(339.448,302.356,o),
(274.256,473.204,o),
(274.256,564.248,qs)
);
},
{
closed = 1;
nodes = (
(134.88,447.352,o),
(216.932,232.668,o),
(377.664,65.192,o),
(618.2,-35.968,o),
(776.684,-35.968,qs),
(939.664,-35.968,o),
(1180.2,67.44,o),
(1337.56,238.288,o),
(1417.364,452.972,o),
(1417.364,564.248,qs),
(1417.364,675.524,o),
(1337.56,890.208,o),
(1180.2,1061.056,o),
(939.664,1164.464,o),
(776.684,1164.464,qs),
(618.2,1164.464,o),
(377.664,1063.304,o),
(216.932,898.076,o),
(134.88,680.02,o),
(134.88,564.248,qs)
);
},
{
closed = 1;
nodes = (
(868.852,1607.32,l),
(669.904,1607.32,l),
(442.856,1361.164,l),
(528.28,1299.344,l),
(763.196,1470.192,l),
(1025.088,1299.344,l),
(1107.14,1363.412,l)
);
}
);
width = 1381;
}
);
unicode = 244;
},
{
glyphname = uni00F5;
layers = (
{
layerId = "FD843F08-4597-4AFB-9C66-7B47690262C1";
shapes = (
{
closed = 1;
nodes = (
(274.256,657.54,o),
(339.448,825.016,o),
(468.708,957.648,o),
(654.168,1035.204,o),
(776.684,1035.204,qs),
(900.324,1035.204,o),
(1089.156,954.276,o),
(1213.92,822.768,o),
(1277.988,651.92,o),
(1277.988,564.248,qs),
(1277.988,473.204,o),
(1213.92,305.728,o),
(1089.156,173.096,o),
(900.324,93.292,o),
(776.684,93.292,qs),
(654.168,93.292,o),
(465.336,170.848,o),
(339.448,302.356,o),
(274.256,473.204,o),
(274.256,564.248,qs)
);
},
{
closed = 1;
nodes = (
(134.88,447.352,o),
(216.932,232.668,o),
(377.664,65.192,o),
(618.2,-35.968,o),
(776.684,-35.968,qs),
(939.664,-35.968,o),
(1180.2,67.44,o),
(1337.56,238.288,o),
(1417.364,452.972,o),
(1417.364,564.248,qs),
(1417.364,675.524,o),
(1337.56,890.208,o),
(1180.2,1061.056,o),
(939.664,1164.464,o),
(776.684,1164.464,qs),
(618.2,1164.464,o),
(377.664,1063.304,o),
(216.932,898.076,o),
(134.88,680.02,o),
(134.88,564.248,qs)
);
},
{
closed = 1;
nodes = (
(1086.908,1601.7,l),
(1079.04,1580.344,o),
(1057.684,1528.64,o),
(1021.716,1480.308,o),
(973.384,1446.588,o),
(939.664,1446.588,qs),
(910.44,1446.588,o),
(846.372,1480.308,o),
(796.916,1516.276,q),
(755.328,1552.244,o),
(667.656,1603.948,o),
(605.836,1603.948,qs),
(509.172,1603.948,o),
(399.02,1472.44,o),
(361.928,1373.528,q),
(465.336,1337.56,l),
(465.336,1337.56,o),
(468.708,1345.428,q),
(470.956,1351.048,o),
(470.956,1353.296,q),
(491.188,1405,o),
(554.132,1488.176,o),
(605.836,1488.176,qs),
(633.936,1488.176,o),
(685.64,1458.952,o),
(747.46,1412.868,q),
(807.032,1365.66,o),
(887.96,1329.692,o),
(931.796,1329.692,qs),
(1013.848,1329.692,o),
(1154.348,1440.968,o),
(1184.696,1549.996,q),
(1184.696,1562.36,o),
(1190.316,1567.98,q)
);
}
);
width = 1381;
}
);
unicode = 245;
},
{
glyphname = uni00F6;
layers = (
{
layerId = "FD843F08-4597-4AFB-9C66-7B47690262C1";
shapes = (
{
closed = 1;
nodes = (
(274.256,657.54,o),
(339.448,825.016,o),
(468.708,957.648,o),
(654.168,1035.204,o),
(776.684,1035.204,qs),
(900.324,1035.204,o),
(1089.156,954.276,o),
(1213.92,822.768,o),
(1277.988,651.92,o),
(1277.988,564.248,qs),
(1277.988,473.204,o),
(1213.92,305.728,o),
(1089.156,173.096,o),
(900.324,93.292,o),
(776.684,93.292,qs),
(654.168,93.292,o),
(465.336,170.848,o),
(339.448,302.356,o),
(274.256,473.204,o),
(274.256,564.248,qs)
);
},
{
closed = 1;
nodes = (
(134.88,447.352,o),
(216.932,232.668,o),
(377.664,65.192,o),
(618.2,-35.968,o),
(776.684,-35.968,qs),
(939.664,-35.968,o),
(1180.2,67.44,o),
(1337.56,238.288,o),
(1417.364,452.972,o),
(1417.364,564.248,qs),
(1417.364,675.524,o),
(1337.56,890.208,o),
(1180.2,1061.056,o),
(939.664,1164.464,o),
(776.684,1164.464,qs),
(618.2,1164.464,o),
(377.664,1063.304,o),
(216.932,898.076,o),
(134.88,680.02,o),
(134.88,564.248,qs)
);
},
{
closed = 1;
nodes = (
(850.868,1607.32,l),
(850.868,1327.444,l),
(1037.452,1327.444,l),
(1037.452,1607.32,l)
);
},
{
closed = 1;
nodes = (
(514.792,1607.32,l),
(514.792,1327.444,l),
(701.376,1327.444,l),
(701.376,1607.32,l)
);
}
);
width = 1381;
}
);
unicode = 246;
},
{
glyphname = uni00F7;
layers = (
{
layerId = "FD843F08-4597-4AFB-9C66-7B47690262C1";
shapes = (
{
closed = 1;
nodes = (
(649.15,386.728,o),
(586.998,329.179,o),
(586.998,283.14,qs),
(586.998,239.403,o),
(649.15,179.552,o),
(690.586,179.552,qs),
(729.719,179.552,o),
(794.173,237.101,o),
(794.173,283.14,qs),
(794.173,329.179,o),
(729.719,386.728,o),
(690.586,386.728,qs)
);
},
{
closed = 1;
nodes = (
(1229.24,755.04,l),
(151.929,755.04,l),
(151.929,639.943,l),
(1229.24,639.943,l)
);
},
{
closed = 1;
nodes = (
(651.452,1215.43,o),
(586.998,1157.88,o),
(586.998,1111.84,qs),
(586.998,1070.41,o),
(646.849,1008.25,o),
(690.586,1008.25,qs),
(736.625,1008.25,o),
(794.173,1070.41,o),
(794.173,1111.84,qs),
(794.173,1157.88,o),
(732.021,1215.43,o),
(690.586,1215.43,qs)
);
}
);
width = 1381;
}
);
unicode = 247;
},
{
glyphname = uni00F8;
layers = (
{
layerId = "FD843F08-4597-4AFB-9C66-7B47690262C1";
shapes = (
{
closed = 1;
nodes = (
(331.481,241.705,l),
(278.536,308.462,o),
(244.007,455.786,o),
(244.007,501.826,qs),
(244.007,580.092,o),
(299.254,729.719,o),
(412.049,847.118,o),
(580.092,920.781,o),
(690.586,920.781,qs),
(743.53,920.781,o),
(819.495,909.271,o),
(877.044,888.553,o),
(927.687,863.232,o),
(955.31,849.42,q)
);
},
{
closed = 1;
nodes = (
(1045.09,764.248,l),
(1137.16,651.452,o),
(1137.16,501.826,qs),
(1137.16,421.257,o),
(1079.62,271.63,o),
(969.122,154.231,o),
(801.079,82.87,o),
(690.586,82.87,qs),
(630.735,82.87,o),
(547.865,96.682,o),
(488.014,117.4,o),
(444.277,142.721,o),
(423.559,156.533,q)
);
},
{
closed = 1;
nodes = (
(227.893,-32.227,l),
(333.783,73.662,l),
(389.03,34.529,o),
(508.731,-9.208,o),
(610.017,-29.925,o),
(683.68,-32.227,o),
(695.19,-32.227,qs),
(831.005,-32.227,o),
(1042.78,55.247,o),
(1187.81,204.874,o),
(1261.47,398.238,o),
(1261.47,501.826,qs),
(1261.47,527.147,o),
(1252.26,607.715,o),
(1226.94,702.095,o),
(1176.3,805.683,o),
(1134.86,854.024,q),
(1240.75,959.914,l),
(1153.28,1047.39,l),
(1040.48,932.291,l),
(966.82,992.141,o),
(771.154,1035.88,o),
(690.586,1035.88,qs),
(547.865,1035.88,o),
(336.085,943.8,o),
(191.062,796.475,o),
(119.702,603.111,o),
(119.702,504.127,qs),
(119.702,476.504,o),
(128.909,398.238,o),
(156.533,306.16,o),
(204.874,207.176,o),
(244.007,158.835,q),
(138.117,52.945,l)
);
}
);
width = 1381;
}
);
unicode = 248;
},
{
glyphname = uni00F9;
layers = (
{
layerId = "FD843F08-4597-4AFB-9C66-7B47690262C1";
shapes = (
{
closed = 1;
nodes = (
(424.872,1112.76,l),
(83.176,1112.76,l),
(83.176,991.368,l),
(294.488,991.368,l),
(294.488,427.12,ls),
(294.488,349.564,o),
(328.208,186.584,o),
(417.004,51.704,o),
(572.116,-35.968,o),
(693.508,-35.968,qs),
(768.816,-35.968,o),
(892.456,2.248,o),
(993.616,57.324,o),
(1071.172,119.144,o),
(1099.272,142.748,q),
(1099.272,0,l),
(1438.72,0,l),
(1438.72,121.392,l),
(1228.532,121.392,l),
(1228.532,1112.76,l),
(876.72,1112.76,l),
(876.72,991.368,l),
(1099.272,991.368,l),
(1099.272,318.092,l),
(991.368,202.32,o),
(791.296,93.292,o),
(683.392,93.292,qs),
(584.48,93.292,o),
(481.072,178.716,o),
(431.616,289.992,o),
(424.872,401.268,o),
(424.872,427.12,qs)
);
},
{
closed = 1;
nodes = (
(768.816,1599.452,l),
(491.188,1599.452,l),
(832.884,1301.592,l),
(967.764,1301.592,l)
);
}
);
width = 1381;
}
);
unicode = 249;
},
{
glyphname = uni00FA;
layers = (
{
layerId = "FD843F08-4597-4AFB-9C66-7B47690262C1";
shapes = (
{
closed = 1;
nodes = (
(424.872,1112.76,l),
(83.176,1112.76,l),
(83.176,991.368,l),
(294.488,991.368,l),
(294.488,427.12,ls),
(294.488,349.564,o),
(328.208,186.584,o),
(417.004,51.704,o),
(572.116,-35.968,o),
(693.508,-35.968,qs),
(768.816,-35.968,o),
(892.456,2.248,o),
(993.616,57.324,o),
(1071.172,119.144,o),
(1099.272,142.748,q),
(1099.272,0,l),
(1438.72,0,l),
(1438.72,121.392,l),
(1228.532,121.392,l),
(1228.532,1112.76,l),
(876.72,1112.76,l),
(876.72,991.368,l),
(1099.272,991.368,l),
(1099.272,318.092,l),
(991.368,202.32,o),
(791.296,93.292,o),
(683.392,93.292,qs),
(584.48,93.292,o),
(481.072,178.716,o),
(431.616,289.992,o),
(424.872,401.268,o),
(424.872,427.12,qs)
);
},
{
closed = 1;
nodes = (
(693.508,1301.592,l),
(1063.304,1599.452,l),
(786.8,1599.452,l),
(556.38,1301.592,l)
);
}
);
width = 1381;
}
);
unicode = 250;
},
{
glyphname = uni00FB;
layers = (
{
layerId = "FD843F08-4597-4AFB-9C66-7B47690262C1";
shapes = (
{
closed = 1;
nodes = (
(424.872,1112.76,l),
(83.176,1112.76,l),
(83.176,991.368,l),
(294.488,991.368,l),
(294.488,427.12,ls),
(294.488,349.564,o),
(328.208,186.584,o),
(417.004,51.704,o),
(572.116,-35.968,o),
(693.508,-35.968,qs),
(768.816,-35.968,o),
(892.456,2.248,o),
(993.616,57.324,o),
(1071.172,119.144,o),
(1099.272,142.748,q),
(1099.272,0,l),
(1438.72,0,l),
(1438.72,121.392,l),
(1228.532,121.392,l),
(1228.532,1112.76,l),
(876.72,1112.76,l),
(876.72,991.368,l),
(1099.272,991.368,l),
(1099.272,318.092,l),
(991.368,202.32,o),
(791.296,93.292,o),
(683.392,93.292,qs),
(584.48,93.292,o),
(481.072,178.716,o),
(431.616,289.992,o),
(424.872,401.268,o),
(424.872,427.12,qs)
);
},
{
closed = 1;
nodes = (
(868.852,1607.32,l),
(669.904,1607.32,l),
(442.856,1361.164,l),
(528.28,1299.344,l),
(763.196,1470.192,l),
(1025.088,1299.344,l),
(1107.14,1363.412,l)
);
}
);
width = 1381;
}
);
unicode = 251;
},
{
glyphname = uni00FC;
layers = (
{
layerId = "FD843F08-4597-4AFB-9C66-7B47690262C1";
shapes = (
{
closed = 1;
nodes = (
(424.872,1112.76,l),
(83.176,1112.76,l),
(83.176,991.368,l),
(294.488,991.368,l),
(294.488,427.12,ls),
(294.488,349.564,o),
(328.208,186.584,o),
(417.004,51.704,o),
(572.116,-35.968,o),
(693.508,-35.968,qs),
(768.816,-35.968,o),
(892.456,2.248,o),
(993.616,57.324,o),
(1071.172,119.144,o),
(1099.272,142.748,q),
(1099.272,0,l),
(1438.72,0,l),
(1438.72,121.392,l),
(1228.532,121.392,l),
(1228.532,1112.76,l),
(876.72,1112.76,l),
(876.72,991.368,l),
(1099.272,991.368,l),
(1099.272,318.092,l),
(991.368,202.32,o),
(791.296,93.292,o),
(683.392,93.292,qs),
(584.48,93.292,o),
(481.072,178.716,o),
(431.616,289.992,o),
(424.872,401.268,o),
(424.872,427.12,qs)
);
},
{
closed = 1;
nodes = (
(850.868,1607.32,l),
(850.868,1327.444,l),
(1037.452,1327.444,l),
(1037.452,1607.32,l)
);
},
{
closed = 1;
nodes = (
(514.792,1607.32,l),
(514.792,1327.444,l),
(701.376,1327.444,l),
(701.376,1607.32,l)
);
}
);
width = 1381;
}
);
unicode = 252;
},
{
glyphname = uni00FD;
layers = (
{
layerId = "FD843F08-4597-4AFB-9C66-7B47690262C1";
shapes = (
{
closed = 1;
nodes = (
(546.264,1112.76,l),
(61.82,1112.76,l),
(61.82,991.368,l),
(220.304,991.368,l),
(701.376,69.688,l),
(502.428,-274.256,l),
(103.408,-274.256,l),
(103.408,-395.648,l),
(880.092,-395.648,l),
(880.092,-274.256,l),
(649.672,-274.256,l),
(1373.528,991.368,l),
(1524.144,991.368,l),
(1524.144,1112.76,l),
(1050.94,1112.76,l),
(1050.94,991.368,l),
(1226.284,991.368,l),
(776.684,204.568,l),
(367.548,991.368,l),
(546.264,991.368,l)
);
},
{
closed = 1;
nodes = (
(693.508,1301.592,l),
(1063.304,1599.452,l),
(786.8,1599.452,l),
(556.38,1301.592,l)
);
}
);
width = 1381;
}
);
unicode = 253;
},
{
glyphname = uni00FE;
layers = (
{
layerId = "FD843F08-4597-4AFB-9C66-7B47690262C1";
shapes = (
{
closed = 1;
nodes = (
(338.387,589.3,o),
(400.54,734.323,o),
(508.731,840.212,o),
(660.66,904.667,o),
(750.436,904.667,qs),
(847.118,904.667,o),
(992.141,833.307,o),
(1088.82,720.511,o),
(1137.16,577.79,o),
(1137.16,506.429,qs),
(1137.16,418.955,o),
(1072.71,269.328,o),
(966.82,161.137,o),
(826.401,98.984,o),
(748.134,98.984,qs),
(681.378,98.984,o),
(536.355,151.929,o),
(416.653,255.517,o),
(338.387,409.747,o),
(338.387,511.033,qs)
);
},
{
closed = 1;
nodes = (
(347.595,826.401,l),
(347.595,1447.93,l),
(27.623,1427.21,l),
(27.623,1319.02,l),
(232.497,1328.23,l),
(232.497,-253.215,l),
(43.737,-253.215,l),
(43.737,-361.406,l),
(690.586,-361.406,l),
(690.586,-253.215,l),
(347.595,-253.215,l),
(347.595,181.854,l),
(352.199,181.854,l),
(412.049,108.192,o),
(540.959,27.623,o),
(656.056,-9.208,o),
(738.927,-16.114,o),
(752.738,-16.114,qs),
(844.816,-16.114,o),
(1028.97,59.851,o),
(1171.69,195.666,o),
(1261.47,386.728,o),
(1261.47,504.127,qs),
(1261.47,603.111,o),
(1187.81,789.57,o),
(1054.29,932.291,o),
(865.534,1019.76,o),
(748.134,1019.76,qs),
(656.056,1019.76,o),
(520.241,973.726,o),
(423.559,911.573,o),
(366.01,847.118,o),
(352.199,826.401,q)
);
}
);
width = 1381;
}
);
unicode = 254;
},
{
glyphname = uni00FF;
layers = (
{
layerId = "FD843F08-4597-4AFB-9C66-7B47690262C1";
shapes = (
{
closed = 1;
nodes = (
(757.342,1429.51,l),
(757.342,1180.9,l),
(923.083,1180.9,l),
(923.083,1429.51,l)
);
},
{
closed = 1;
nodes = (
(458.088,1429.51,l),
(458.088,1180.9,l),
(623.829,1180.9,l),
(623.829,1429.51,l)
);
},
{
closed = 1;
nodes = (
(377.52,989.839,l),
(73.662,989.839,l),
(73.662,881.648,l),
(262.423,881.648,l),
(262.423,379.822,ls),
(262.423,310.764,o),
(292.348,165.741,o),
(370.614,46.039,o),
(508.731,-32.227,o),
(616.923,-32.227,qs),
(683.68,-32.227,o),
(794.173,2.302,o),
(883.95,50.643,o),
(953.008,105.89,o),
(978.33,126.607,q),
(978.33,0,l),
(1279.89,0,l),
(1279.89,108.192,l),
(1093.43,108.192,l),
(1093.43,989.839,l),
(780.362,989.839,l),
(780.362,881.648,l),
(978.33,881.648,l),
(978.33,283.14,l),
(881.648,179.552,o),
(704.397,82.87,o),
(607.715,82.87,qs),
(520.241,82.87,o),
(428.163,158.835,o),
(384.426,257.819,o),
(377.52,356.803,o),
(377.52,379.822,qs)
);
}
);
width = 1381;
}
);
unicode = 255;
},
{
glyphname = uni0152;
layers = (
{
layerId = "FD843F08-4597-4AFB-9C66-7B47690262C1";
shapes = (
{
closed = 1;
nodes = (
(695.19,1187.81,l),
(695.19,108.192,l),
(593.904,108.192,ls),
(476.504,108.192,o),
(313.065,211.78,o),
(209.478,370.614,o),
(161.137,559.374,o),
(161.137,644.547,qs),
(161.137,752.738,o),
(223.289,950.706,o),
(342.991,1100.33,o),
(520.241,1187.81,o),
(635.339,1187.81,qs)
);
},
{
closed = 1;
nodes = (
(1236.15,1296,l),
(642.245,1296,ls),
(506.429,1296,o),
(283.14,1194.71,o),
(124.305,1015.16,o),
(36.831,775.758,o),
(36.831,637.641,qs),
(36.831,536.355,o),
(98.984,313.065,o),
(225.591,124.305,o),
(421.257,0,o),
(557.072,0,qs),
(1266.07,0,l),
(1266.07,425.861,l),
(1160.18,425.861,l),
(1146.37,108.192,l),
(810.287,108.192,l),
(810.287,633.037,l),
(959.914,633.037,l),
(959.914,464.994,l),
(1065.8,464.994,l),
(1065.8,909.271,l),
(959.914,909.271,l),
(959.914,741.229,l),
(810.287,741.229,l),
(810.287,1187.81,l),
(1114.14,1187.81,l),
(1134.86,881.648,l),
(1236.15,881.648,l)
);
}
);
width = 1381;
}
);
unicode = 338;
},
{
glyphname = uni0153;
layers = (
{
layerId = "FD843F08-4597-4AFB-9C66-7B47690262C1";
shapes = (
{
closed = 1;
nodes = (
(736.625,573.186,l),
(738.927,690.586,o),
(801.079,831.005,o),
(881.648,902.365,o),
(957.612,925.385,o),
(976.028,925.385,qs),
(1031.27,925.385,o),
(1109.54,865.534,o),
(1160.18,764.248,o),
(1183.2,637.641,o),
(1183.2,573.186,q)
);
},
{
closed = 1;
nodes = (
(621.527,464.994,o),
(619.225,389.03,o),
(605.413,296.952,o),
(575.488,202.572,o),
(520.241,124.305,o),
(435.069,75.964,o),
(372.916,75.964,qs),
(306.16,75.964,o),
(218.685,147.325,o),
(168.042,260.121,o),
(147.325,395.936,o),
(147.325,460.39,qs),
(147.325,540.959,o),
(174.948,706.699,o),
(237.101,842.514,o),
(333.783,927.687,o),
(405.144,927.687,qs),
(446.579,927.687,o),
(522.543,900.063,o),
(584.696,805.683,o),
(621.527,630.735,o),
(621.527,485.712,qs)
);
},
{
closed = 1;
nodes = (
(1293.7,471.9,l),
(1296,488.014,o),
(1298.3,550.167,o),
(1298.3,577.79,qs),
(1298.3,642.245,o),
(1263.77,801.079,o),
(1187.81,941.498,o),
(1065.8,1035.88,o),
(976.028,1035.88,qs),
(900.063,1035.88,o),
(743.53,943.8,o),
(690.586,847.118,q),
(683.68,863.232,o),
(644.547,927.687,o),
(575.488,989.839,o),
(474.202,1038.18,o),
(405.144,1038.18,qs),
(299.254,1038.18,o),
(154.231,939.196,o),
(64.455,773.456,o),
(23.02,563.978,o),
(23.02,453.485,qs),
(23.02,432.767,o),
(25.322,345.293,o),
(46.039,237.101,o),
(87.474,122.003,o),
(165.741,27.623,o),
(287.744,-34.529,o),
(375.218,-34.529,qs),
(458.088,-34.529,o),
(568.582,16.114,o),
(642.245,87.474,o),
(681.378,158.835,o),
(690.586,179.552,q),
(725.115,103.588,o),
(817.193,18.416,o),
(906.969,-23.02,o),
(985.235,-34.529,o),
(1005.95,-34.529,qs),
(1038.18,-34.529,o),
(1183.2,-13.812,o),
(1307.51,27.623,q),
(1266.07,126.607,l),
(1220.03,112.796,o),
(1075.01,75.964,o),
(1001.35,75.964,qs),
(962.216,75.964,o),
(870.138,110.494,o),
(787.268,197.968,o),
(734.323,352.199,o),
(736.625,471.9,q)
);
}
);
width = 1381;
}
);
unicode = 339;
},
{
glyphname = uni0160;
layers = (
{
layerId = "FD843F08-4597-4AFB-9C66-7B47690262C1";
shapes = (
{
closed = 1;
nodes = (
(607.715,1477.85,l),
(782.664,1477.85,l),
(985.235,1694.24,l),
(911.573,1751.79,l),
(699.793,1599.86,l),
(467.296,1749.48,l),
(393.634,1694.24,l)
);
},
{
closed = 1;
nodes = (
(1063.5,1321.32,l),
(1063.5,1314.41,o),
(1058.9,1291.4,qs),
(1047.39,1236.15,o),
(1040.48,1208.52,o),
(1024.37,1208.52,qs),
(1017.46,1208.52,o),
(999.047,1220.03,o),
(971.424,1240.75,q),
(959.914,1249.96,o),
(913.875,1282.19,o),
(844.816,1312.11,o),
(748.134,1335.13,o),
(685.982,1335.13,qs),
(586.998,1335.13,o),
(418.955,1270.68,o),
(296.952,1160.18,o),
(227.893,1017.46,o),
(227.893,939.196,qs),
(227.893,824.099,o),
(336.085,688.284,o),
(492.618,614.621,o),
(669.868,586.998,o),
(736.625,580.092,qs),
(780.362,575.488,o),
(893.157,557.072,o),
(989.839,508.731,o),
(1056.6,418.955,o),
(1056.6,342.991,qs),
(1056.6,299.254,o),
(1022.07,204.874,o),
(939.196,126.607,o),
(798.777,75.964,o),
(692.888,75.964,qs),
(568.582,75.964,o),
(441.975,156.533,o),
(409.747,197.968,qs),
(370.614,248.611,o),
(340.689,359.105,o),
(331.481,402.842,q),
(227.893,402.842,l),
(230.195,377.52,o),
(237.101,310.764,o),
(244.007,239.403,o),
(248.611,177.25,o),
(248.611,158.835,qs),
(248.611,135.815,ls),
(248.611,110.494,o),
(239.403,9.208,o),
(227.893,-46.039,q),
(331.481,-46.039,l),
(340.689,11.51,o),
(347.595,41.435,o),
(352.199,57.549,q),
(356.803,62.153,o),
(368.312,75.964,o),
(375.218,75.964,q),
(379.822,75.964,o),
(391.332,69.059,o),
(393.634,66.757,q),
(409.747,52.945,o),
(460.39,18.416,o),
(536.355,-16.114,o),
(639.943,-39.133,o),
(709.001,-39.133,qs),
(794.173,-39.133,o),
(962.216,6.906,o),
(1095.73,103.588,o),
(1180.9,250.913,o),
(1180.9,352.199,qs),
(1180.9,451.183,o),
(1098.03,580.092,o),
(978.33,658.358,o),
(831.005,688.284,o),
(702.095,702.095,qs),
(660.66,706.699,o),
(540.959,725.115,o),
(430.465,775.758,o),
(352.199,867.836,o),
(352.199,948.404,qs),
(352.199,992.141,o),
(393.634,1086.52,o),
(478.806,1167.09,o),
(610.017,1220.03,o),
(699.793,1220.03,qs),
(768.852,1220.03,o),
(865.534,1190.11,o),
(934.593,1148.67,o),
(978.33,1100.33,o),
(992.141,1079.62,qs),
(1031.27,1019.76,o),
(1058.9,900.063,o),
(1063.5,863.232,q),
(1167.09,881.648,l),
(1155.58,980.632,o),
(1146.37,1116.45,o),
(1146.37,1155.58,qs),
(1146.37,1199.32,o),
(1155.58,1268.38,o),
(1167.09,1321.32,q)
);
}
);
width = 1381;
}
);
unicode = 352;
},
{
glyphname = uni0161;
layers = (
{
layerId = "FD843F08-4597-4AFB-9C66-7B47690262C1";
shapes = (
{
closed = 1;
nodes = (
(607.715,1171.69,l),
(782.664,1171.69,l),
(985.235,1388.08,l),
(911.573,1445.63,l),
(699.793,1293.7,l),
(467.296,1443.32,l),
(393.634,1388.08,l)
);
},
{
closed = 1;
nodes = (
(1005.95,1035.88,l),
(1001.35,1024.37,o),
(996.745,1010.56,o),
(992.141,987.537,q),
(987.537,976.028,o),
(969.122,932.291,o),
(950.706,932.291,qs),
(936.894,932.291,o),
(904.667,948.404,o),
(900.063,953.008,q),
(867.836,971.424,o),
(738.927,1019.76,o),
(635.339,1019.76,qs),
(545.563,1019.76,o),
(393.634,976.028,o),
(287.744,897.761,o),
(227.893,791.871,o),
(227.893,729.719,qs),
(227.893,626.131,o),
(342.991,508.731,o),
(499.524,451.183,o),
(660.66,435.069,o),
(706.699,432.767,qs),
(778.06,430.465,o),
(900.063,421.257,o),
(987.537,391.332,o),
(1035.88,331.481,o),
(1035.88,280.838,qs),
(1035.88,214.082,o),
(955.31,135.815,o),
(844.816,94.38,o),
(729.719,80.568,o),
(695.19,80.568,qs),
(575.488,80.568,o),
(432.767,145.023,o),
(356.803,232.497,o),
(329.179,324.575,o),
(324.575,354.501,q),
(223.289,342.991,l),
(227.893,303.858,o),
(237.101,188.76,o),
(237.101,115.098,qs),
(237.101,57.549,o),
(227.893,0,o),
(223.289,-29.925,q),
(324.575,-29.925,l),
(336.085,9.208,o),
(354.501,66.757,o),
(370.614,66.757,q),
(375.218,66.757,o),
(377.52,64.455,q),
(382.124,62.153,l),
(402.842,50.643,o),
(464.994,18.416,o),
(552.468,-13.812,o),
(658.358,-34.529,o),
(720.511,-34.529,qs),
(796.475,-34.529,o),
(950.706,2.302,o),
(1079.62,80.568,o),
(1160.18,202.572,o),
(1160.18,285.442,qs),
(1160.18,375.218,o),
(1070.41,478.806,o),
(955.31,529.449,o),
(847.118,543.261,o),
(826.401,543.261,q),
(725.115,547.865,o),
(552.468,561.676,o),
(423.559,600.809,o),
(352.199,672.17,o),
(352.199,734.323,qs),
(352.199,805.683,o),
(499.524,904.667,o),
(637.641,904.667,qs),
(757.342,904.667,o),
(895.459,854.024,o),
(966.82,782.664,o),
(992.141,699.793,o),
(999.047,665.264,q),
(1100.33,676.774,l),
(1095.73,706.699,o),
(1088.82,773.456,o),
(1088.82,821.797,qs),
(1088.82,888.553,o),
(1102.64,982.934,o),
(1109.54,1019.76,q)
);
}
);
width = 1381;
}
);
unicode = 353;
},
{
glyphname = uni0178;
layers = (
{
layerId = "FD843F08-4597-4AFB-9C66-7B47690262C1";
shapes = (
{
closed = 1;
nodes = (
(590.1,1456.704,l),
(83.176,1456.704,l),
(83.176,1335.312,l),
(246.156,1335.312,l),
(713.74,564.248,l),
(713.74,121.392,l),
(405.764,121.392,l),
(405.764,0,l),
(1148.728,0,l),
(1148.728,121.392,l),
(843,121.392,l),
(843,564.248,l),
(1306.088,1335.312,l),
(1470.192,1335.312,l),
(1470.192,1456.704,l),
(967.764,1456.704,l),
(967.764,1335.312,l),
(1168.96,1335.312,l),
(783.428,693.508,l),
(393.4,1335.312,l),
(590.1,1335.312,l)
);
},
{
closed = 1;
nodes = (
(850.868,1913.32,l),
(850.868,1633.444,l),
(1037.452,1633.444,l),
(1037.452,1913.32,l)
);
},
{
closed = 1;
nodes = (
(514.792,1913.32,l),
(514.792,1633.444,l),
(701.376,1633.444,l),
(701.376,1913.32,l)
);
}
);
width = 1381;
}
);
unicode = 376;
},
{
glyphname = uni017D;
layers = (
{
layerId = "FD843F08-4597-4AFB-9C66-7B47690262C1";
shapes = (
{
closed = 1;
nodes = (
(607.715,1477.85,l),
(782.664,1477.85,l),
(985.235,1694.24,l),
(911.573,1751.79,l),
(699.793,1599.86,l),
(467.296,1749.48,l),
(393.634,1694.24,l)
);
},
{
closed = 1;
nodes = (
(1134.86,1296,l),
(209.478,1296,l),
(209.478,851.722,l),
(317.669,851.722,l),
(317.669,1187.81,l),
(987.537,1187.81,l),
(193.364,108.192,l),
(193.364,0,l),
(1187.81,0,l),
(1187.81,481.108,l),
(1079.62,481.108,l),
(1079.62,108.192,l),
(331.481,108.192,l),
(1134.86,1201.62,l)
);
}
);
width = 1381;
}
);
unicode = 381;
},
{
glyphname = uni017E;
layers = (
{
layerId = "FD843F08-4597-4AFB-9C66-7B47690262C1";
shapes = (
{
closed = 1;
nodes = (
(607.715,1171.69,l),
(782.664,1171.69,l),
(985.235,1388.08,l),
(911.573,1445.63,l),
(699.793,1293.7,l),
(467.296,1443.32,l),
(393.634,1388.08,l)
);
},
{
closed = 1;
nodes = (
(1141.77,989.839,l),
(262.423,989.839,l),
(262.423,676.774,l),
(370.614,676.774,l),
(370.614,881.648,l),
(978.33,881.648,l),
(239.403,108.192,l),
(239.403,0,l),
(1141.77,0,l),
(1141.77,319.971,l),
(1033.58,319.971,l),
(1033.58,108.192,l),
(395.936,108.192,l),
(1141.77,890.855,l)
);
}
);
width = 1381;
}
);
unicode = 382;
},
{
glyphname = uni0192;
layers = (
{
layerId = "FD843F08-4597-4AFB-9C66-7B47690262C1";
shapes = (
{
closed = 1;
nodes = (
(1171.69,1519.29,l),
(1125.65,1528.5,o),
(1024.37,1528.5,qs),
(849.42,1528.5,o),
(651.452,1438.72,o),
(552.468,1309.81,o),
(529.449,1167.09,o),
(529.449,1116.45,qs),
(529.449,978.33,l),
(283.14,978.33,l),
(283.14,881.648,l),
(529.449,881.648,l),
(529.449,133.513,ls),
(529.449,87.474,o),
(520.241,0,o),
(494.92,-32.227,q),
(458.088,-75.964,o),
(296.952,-117.4,o),
(220.987,-117.4,qs),
(181.854,-117.4,o),
(98.984,-108.192,o),
(64.455,-103.588,q),
(55.247,-218.685,l),
(80.568,-223.289,o),
(140.419,-227.893,o),
(170.344,-227.893,qs),
(269.328,-227.893,o),
(467.296,-186.458,o),
(543.261,-128.909,qs),
(607.715,-80.568,o),
(644.547,36.831,o),
(644.547,117.4,qs),
(644.547,881.648,l),
(1049.69,881.648,l),
(1049.69,978.33,l),
(644.547,978.33,l),
(644.547,1104.94,ls),
(644.547,1148.67,o),
(656.056,1256.87,o),
(722.813,1353.55,o),
(863.232,1420.3,o),
(994.443,1420.3,qs),
(1049.69,1420.3,o),
(1130.26,1408.79,o),
(1160.18,1401.89,q)
);
}
);
width = 1381;
}
);
unicode = 402;
},
{
glyphname = uni02C6;
layers = (
{
layerId = "FD843F08-4597-4AFB-9C66-7B47690262C1";
shapes = (
{
closed = 1;
nodes = (
(773,1430,l),
(596,1430,l),
(394,1211,l),
(470,1156,l),
(679,1308,l),
(912,1156,l),
(985,1213,l)
);
}
);
width = 1381;
}
);
unicode = 710;
},
{
glyphname = uni02DC;
layers = (
{
layerId = "FD843F08-4597-4AFB-9C66-7B47690262C1";
shapes = (
{
closed = 1;
nodes = (
(967,1425,l),
(960,1406,o),
(941,1360,o),
(909,1317,o),
(866,1287,o),
(836,1287,qs),
(810,1287,o),
(753,1317,o),
(709,1349,q),
(672,1381,o),
(594,1427,o),
(539,1427,qs),
(453,1427,o),
(355,1310,o),
(322,1222,q),
(414,1190,l),
(414,1190,o),
(417,1197,q),
(419,1202,o),
(419,1204,q),
(437,1250,o),
(493,1324,o),
(539,1324,qs),
(564,1324,o),
(610,1298,o),
(665,1257,q),
(718,1215,o),
(790,1183,o),
(829,1183,qs),
(902,1183,o),
(1027,1282,o),
(1054,1379,q),
(1054,1390,o),
(1059,1395,q)
);
}
);
width = 1381;
}
);
unicode = 732;
},
{
glyphname = uni1200;
layers = (
{
layerId = "FD843F08-4597-4AFB-9C66-7B47690262C1";
shapes = (
{
closed = 1;
nodes = (
(455,1337,l),
(455,124,ls),
(455,93,o),
(558,43,o),
(639,43,qs),
(709,43,o),
(816,91,o),
(816,116,qs),
(816,1283,l),
(713,1283,l),
(713,1337,l),
(1188,1337,l),
(1188,1283,l),
(1085,1283,l),
(1085,372,ls),
(1085,178,o),
(862,0,o),
(636,0,qs),
(568,0,o),
(424,-2,o),
(298,-10,o),
(205,-29,o),
(186,-48,q),
(186,1230,ls),
(186,1244,o),
(167,1283,o),
(136,1283,qs),
(83,1283,l),
(83,1337,l)
);
}
);
width = 1271;
}
);
unicode = 4608;
},
{
glyphname = uni1201;
layers = (
{
layerId = "FD843F08-4597-4AFB-9C66-7B47690262C1";
shapes = (
{
closed = 1;
nodes = (
(1084.88,756.314,l),
(1084.88,371.958,ls),
(1084.88,177.713,o),
(861.702,0,o),
(636.461,0,qs),
(564.136,0,o),
(423.619,-4.133,o),
(303.766,-16.532,o),
(210.776,-45.462,o),
(185.979,-70.259,q),
(185.979,1229.53,ls),
(185.979,1243.99,o),
(167.381,1283.25,o),
(136.385,1283.25,qs),
(82.657,1283.25,l),
(82.657,1336.98,l),
(454.615,1336.98,l),
(454.615,123.986,ls),
(454.615,92.989,o),
(557.937,43.395,o),
(638.527,43.395,qs),
(708.786,43.395,o),
(816.241,90.923,o),
(816.241,115.72,qs),
(816.241,1283.25,l),
(712.919,1283.25,l),
(712.919,1336.98,l),
(1188.2,1336.98,l),
(1188.2,1283.25,l),
(1084.88,1283.25,l),
(1084.88,915.429,l),
(1326.65,915.429,l),
(1326.65,648.86,l),
(1274.99,648.86,l),
(1274.99,692.255,o),
(1246.06,756.314,o),
(1194.4,756.314,qs)
);
}
);
width = 1410;
}
);
unicode = 4609;
},
{
glyphname = uni1202;
layers = (
{
layerId = "FD843F08-4597-4AFB-9C66-7B47690262C1";
shapes = (
{
closed = 1;
nodes = (
(1037.35,53.727,l),
(1101.41,53.727,ls),
(1146.87,53.727,o),
(1210.93,161.182,o),
(1223.33,266.57,q),
(1274.99,266.57,l),
(1274.99,0,l),
(727.384,0,l),
(727.384,53.727,l),
(768.713,53.727,l),
(768.713,690.188,l),
(750.115,671.59,o),
(702.587,642.66,o),
(650.926,621.996,o),
(599.265,611.664,o),
(580.667,611.664,qs),
(531.073,611.664,o),
(415.353,609.597,o),
(305.832,603.398,o),
(212.842,586.867,o),
(185.979,572.402,q),
(185.979,1283.25,l),
(82.657,1283.25,l),
(82.657,1336.98,l),
(444.283,1336.98,l),
(444.283,750.115,ls),
(444.283,721.185,o),
(469.08,683.989,o),
(508.342,663.325,o),
(555.87,655.059,o),
(580.667,655.059,qs),
(601.332,655.059,o),
(657.125,669.524,o),
(712.919,692.255,o),
(758.381,721.185,o),
(768.713,735.65,q),
(768.713,1283.25,l),
(665.391,1283.25,l),
(665.391,1336.98,l),
(1140.67,1336.98,l),
(1140.67,1283.25,l),
(1037.35,1283.25,l)
);
}
);
width = 1358;
}
);
unicode = 4610;
},
{
glyphname = uni1203;
layers = (
{
layerId = "FD843F08-4597-4AFB-9C66-7B47690262C1";
shapes = (
{
closed = 1;
nodes = (
(1037.35,1283.25,l),
(1037.35,43.395,l),
(1140.67,43.395,l),
(1140.67,0,l),
(665.391,0,l),
(665.391,43.395,l),
(768.713,43.395,l),
(768.713,694.321,l),
(717.052,657.125,o),
(619.93,615.797,o),
(580.667,615.797,qs),
(520.741,615.797,o),
(398.821,613.73,o),
(289.3,601.332,o),
(206.643,574.468,o),
(185.979,549.671,q),
(185.979,1283.25,l),
(82.657,1283.25,l),
(82.657,1336.98,l),
(444.283,1336.98,l),
(444.283,750.115,ls),
(444.283,721.185,o),
(469.08,683.989,o),
(508.342,663.325,o),
(555.87,655.059,o),
(580.667,655.059,qs),
(621.996,655.059,o),
(712.919,702.587,o),
(768.713,737.716,q),
(768.713,1283.25,l),
(665.391,1283.25,l),
(665.391,1336.98,l),
(1140.67,1336.98,l),
(1140.67,1283.25,l)
);
}
);
width = 1223;
}
);
unicode = 4611;
},
{
glyphname = uni1204;
layers = (
{
layerId = "FD843F08-4597-4AFB-9C66-7B47690262C1";
shapes = (
{
closed = 1;
nodes = (
(1037.35,483.545,l),
(1049.75,495.944,o),
(1091.08,508.342,o),
(1107.61,508.342,qs),
(1142.74,508.342,o),
(1202.66,493.877,o),
(1241.93,493.877,qs),
(1293.59,493.877,o),
(1361.78,516.608,q),
(1361.78,243.839,ls),
(1361.78,163.248,o),
(1334.92,66.126,o),
(1270.86,14.465,o),
(1165.47,0,o),
(1089.01,0,qs),
(727.384,0,l),
(727.384,43.395,l),
(768.713,43.395,l),
(768.713,694.321,l),
(717.052,657.125,o),
(619.93,615.797,o),
(580.667,615.797,qs),
(549.671,615.797,o),
(431.884,613.73,o),
(307.898,601.332,o),
(204.577,576.535,o),
(185.979,553.804,q),
(185.979,1283.25,l),
(82.657,1283.25,l),
(82.657,1336.98,l),
(444.283,1336.98,l),
(444.283,750.115,ls),
(444.283,721.185,o),
(469.08,683.989,o),
(508.342,663.325,o),
(555.87,655.059,o),
(580.667,655.059,qs),
(621.996,655.059,o),
(712.919,702.587,o),
(768.713,737.716,q),
(768.713,1283.25,l),
(665.391,1283.25,l),
(665.391,1336.98,l),
(1140.67,1336.98,l),
(1140.67,1283.25,l),
(1037.35,1283.25,l)
);
},
{
closed = 1;
nodes = (
(1037.35,76.458,ls),
(1037.35,47.528,o),
(1060.08,16.532,o),
(1093.14,16.532,qs),
(1128.27,16.532,o),
(1155.14,33.063,o),
(1161.33,70.259,q),
(1161.33,452.549,l),
(1142.74,487.678,o),
(1107.61,487.678,qs),
(1070.41,487.678,o),
(1037.35,450.482,q)
);
}
);
width = 1445;
}
);
unicode = 4612;
},
{
glyphname = uni1205;
layers = (
{
layerId = "FD843F08-4597-4AFB-9C66-7B47690262C1";
shapes = (
{
closed = 1;
nodes = (
(454.615,123.986,ls),
(454.615,92.989,o),
(557.937,43.395,o),
(638.527,43.395,qs),
(708.786,43.395,o),
(816.241,90.923,o),
(816.241,115.72,qs),
(816.241,1283.25,l),
(712.919,1283.25,l),
(712.919,1336.98,l),
(1188.2,1336.98,l),
(1188.2,1283.25,l),
(1084.88,1283.25,l),
(1084.88,371.958,ls),
(1084.88,177.713,o),
(861.702,0,o),
(636.461,0,qs),
(566.202,0,o),
(425.685,-2.066,o),
(305.832,-16.532,o),
(210.776,-47.528,o),
(185.979,-74.392,q),
(185.979,743.916,l),
(227.308,665.391,o),
(328.563,665.391,qs),
(345.094,665.391,o),
(380.223,686.055,o),
(407.087,721.185,o),
(425.685,760.447,o),
(425.685,779.045,q),
(411.22,768.713,o),
(361.626,743.916,o),
(326.496,743.916,qs),
(301.699,743.916,o),
(252.105,756.314,o),
(210.776,795.576,o),
(185.979,872.034,o),
(185.979,936.094,qs),
(185.979,1229.53,ls),
(185.979,1243.99,o),
(167.381,1283.25,o),
(136.385,1283.25,qs),
(82.657,1283.25,l),
(82.657,1336.98,l),
(454.615,1336.98,l)
);
}
);
width = 1271;
}
);
unicode = 4613;
},
{
glyphname = uni1206;
layers = (
{
layerId = "FD843F08-4597-4AFB-9C66-7B47690262C1";
shapes = (
{
closed = 1;
nodes = (
(454.615,1318.38,l),
(454.615,123.986,ls),
(454.615,92.989,o),
(557.937,43.395,o),
(638.527,43.395,qs),
(708.786,43.395,o),
(816.241,90.923,o),
(816.241,115.72,qs),
(816.241,1264.66,l),
(748.048,1264.66,l),
(748.048,1318.38,l),
(1084.88,1318.38,ls),
(1190.26,1318.38,o),
(1363.85,1330.78,o),
(1409.31,1359.71,q),
(1409.31,1053.88,ls),
(1409.31,960.891,o),
(1374.18,851.37,o),
(1295.65,793.51,o),
(1171.67,774.912,o),
(1084.88,772.846,q),
(1084.88,371.958,ls),
(1084.88,177.713,o),
(861.702,0,o),
(636.461,0,qs),
(564.136,0,o),
(419.486,-4.133,o),
(295.5,-16.532,o),
(204.577,-45.462,o),
(185.979,-70.259,q),
(185.979,1210.93,ls),
(185.979,1223.33,o),
(167.381,1264.66,o),
(136.385,1264.66,qs),
(82.657,1264.66,l),
(82.657,1318.38,l)
);
},
{
closed = 1;
nodes = (
(1084.88,859.636,ls),
(1084.88,830.706,o),
(1107.61,799.709,o),
(1140.67,799.709,qs),
(1175.8,799.709,o),
(1208.86,822.44,o),
(1208.86,853.436,qs),
(1208.86,1262.59,l),
(1190.26,1295.65,o),
(1155.14,1295.65,qs),
(1138.6,1295.65,o),
(1101.41,1285.32,o),
(1084.88,1268.79,q)
);
}
);
width = 1492;
}
);
unicode = 4614;
},
{
glyphname = uni1208;
layers = (
{
layerId = "FD843F08-4597-4AFB-9C66-7B47690262C1";
shapes = (
{
closed = 1;
nodes = (
(816,43,l),
(713,43,l),
(713,0,l),
(1188,0,l),
(1188,43,l),
(1085,43,l),
(1085,946,l),
(1060,946,o),
(1019,928,o),
(946,903,o),
(820,884,o),
(713,884,qs),
(676,884,o),
(595,862,o),
(525,818,o),
(469,758,o),
(455,721,q),
(455,1337,l),
(83,1337,l),
(83,1283,l),
(136,1283,ls),
(167,1283,o),
(186,1244,o),
(186,1230,qs),
(186,43,l),
(83,43,l),
(83,0,l),
(558,0,l),
(558,43,l),
(455,43,l),
(455,641,l),
(461,661,o),
(498,729,o),
(560,796,o),
(651,843,o),
(713,843,qs),
(758,843,o),
(816,820,q)
);
}
);
width = 1271;
}
);
unicode = 4616;
},
{
glyphname = uni1209;
layers = (
{
layerId = "FD843F08-4597-4AFB-9C66-7B47690262C1";
shapes = (
{
closed = 1;
nodes = (
(1322.52,380.223,l),
(1270.86,380.223,l),
(1270.86,423.619,o),
(1241.93,487.678,o),
(1190.26,487.678,qs),
(1084.88,487.678,l),
(1084.88,43.395,l),
(1188.2,43.395,l),
(1188.2,0,l),
(712.919,0,l),
(712.919,43.395,l),
(816.241,43.395,l),
(816.241,820.374,l),
(758.381,843.104,o),
(712.919,843.104,qs),
(650.926,843.104,o),
(560.003,795.576,o),
(498.01,729.45,o),
(460.814,661.258,o),
(454.615,640.594,q),
(454.615,43.395,l),
(557.937,43.395,l),
(557.937,0,l),
(82.657,0,l),
(82.657,43.395,l),
(185.979,43.395,l),
(185.979,1229.53,ls),
(185.979,1243.99,o),
(167.381,1283.25,o),
(136.385,1283.25,qs),
(82.657,1283.25,l),
(82.657,1336.98,l),
(454.615,1336.98,l),
(454.615,721.185,l),
(469.08,758.381,o),
(524.874,818.307,o),
(595.132,861.702,o),
(675.723,884.433,o),
(712.919,884.433,qs),
(820.374,884.433,o),
(946.426,903.031,o),
(1018.75,927.828,o),
(1060.08,946.426,o),
(1084.88,946.426,q),
(1084.88,646.793,l),
(1322.52,646.793,l)
);
}
);
width = 1406;
}
);
unicode = 4617;
},
{
glyphname = uni120A;
layers = (
{
layerId = "FD843F08-4597-4AFB-9C66-7B47690262C1";
shapes = (
{
closed = 1;
nodes = (
(1084.88,53.727,l),
(1148.94,53.727,ls),
(1194.4,53.727,o),
(1258.46,161.182,o),
(1270.86,266.57,q),
(1322.52,266.57,l),
(1322.52,0,l),
(774.912,0,l),
(774.912,53.727,l),
(816.241,53.727,l),
(816.241,820.374,l),
(758.381,843.104,o),
(712.919,843.104,qs),
(650.926,843.104,o),
(560.003,795.576,o),
(498.01,729.45,o),
(460.814,661.258,o),
(454.615,640.594,q),
(454.615,43.395,l),
(557.937,43.395,l),
(557.937,0,l),
(82.657,0,l),
(82.657,43.395,l),
(185.979,43.395,l),
(185.979,1229.53,ls),
(185.979,1243.99,o),
(167.381,1283.25,o),
(136.385,1283.25,qs),
(82.657,1283.25,l),
(82.657,1336.98,l),
(454.615,1336.98,l),
(454.615,721.185,l),
(469.08,758.381,o),
(524.874,818.307,o),
(595.132,861.702,o),
(675.723,884.433,o),
(712.919,884.433,qs),
(820.374,884.433,o),
(946.426,903.031,o),
(1018.75,927.828,o),
(1060.08,946.426,o),
(1084.88,946.426,q)
);
}
);
width = 1406;
}
);
unicode = 4618;
},
{
glyphname = uni120B;
layers = (
{
layerId = "FD843F08-4597-4AFB-9C66-7B47690262C1";
shapes = (
{
closed = 1;
nodes = (
(816.241,43.395,l),
(712.919,43.395,l),
(712.919,0,l),
(1188.2,0,l),
(1188.2,43.395,l),
(1084.88,43.395,l),
(1084.88,946.426,l),
(1060.08,946.426,o),
(1018.75,927.828,o),
(946.426,903.031,o),
(820.374,884.433,o),
(712.919,884.433,qs),
(675.723,884.433,o),
(595.132,861.702,o),
(524.874,818.307,o),
(469.08,758.381,o),
(454.615,721.185,q),
(454.615,1336.98,l),
(82.657,1336.98,l),
(82.657,1283.25,l),
(136.385,1283.25,ls),
(167.381,1283.25,o),
(185.979,1243.99,o),
(185.979,1229.53,qs),
(185.979,297.566,l),
(82.657,297.566,l),
(82.657,256.238,l),
(557.937,256.238,l),
(557.937,297.566,l),
(454.615,297.566,l),
(454.615,640.594,l),
(460.814,661.258,o),
(498.01,729.45,o),
(560.003,795.576,o),
(650.926,843.104,o),
(712.919,843.104,qs),
(758.381,843.104,o),
(816.241,820.374,q)
);
}
);
width = 1271;
}
);
unicode = 4619;
},
{
glyphname = uni120C;
layers = (
{
layerId = "FD843F08-4597-4AFB-9C66-7B47690262C1";
shapes = (
{
closed = 1;
nodes = (
(1084.88,483.545,l),
(1097.28,495.944,o),
(1138.6,508.342,o),
(1155.14,508.342,qs),
(1190.26,508.342,o),
(1246.06,504.209,o),
(1274.99,504.209,qs),
(1305.99,504.209,o),
(1372.11,512.475,o),
(1409.31,529.007,q),
(1409.31,243.839,ls),
(1409.31,163.248,o),
(1382.44,66.126,o),
(1318.38,14.465,o),
(1213,0,o),
(1136.54,0,qs),
(774.912,0,l),
(774.912,43.395,l),
(816.241,43.395,l),
(816.241,820.374,l),
(758.381,843.104,o),
(712.919,843.104,qs),
(650.926,843.104,o),
(560.003,795.576,o),
(498.01,729.45,o),
(460.814,661.258,o),
(454.615,640.594,q),
(454.615,43.395,l),
(557.937,43.395,l),
(557.937,0,l),
(82.657,0,l),
(82.657,43.395,l),
(185.979,43.395,l),
(185.979,1229.53,ls),
(185.979,1243.99,o),
(167.381,1283.25,o),
(136.385,1283.25,qs),
(82.657,1283.25,l),
(82.657,1336.98,l),
(454.615,1336.98,l),
(454.615,721.185,l),
(469.08,758.381,o),
(524.874,818.307,o),
(595.132,861.702,o),
(675.723,884.433,o),
(712.919,884.433,qs),
(820.374,884.433,o),
(946.426,903.031,o),
(1018.75,927.828,o),
(1060.08,946.426,o),
(1084.88,946.426,q)
);
},
{
closed = 1;
nodes = (
(1084.88,76.458,ls),
(1084.88,47.528,o),
(1107.61,16.532,o),
(1140.67,16.532,qs),
(1175.8,16.532,o),
(1202.66,33.063,o),
(1208.86,70.259,q),
(1208.86,452.549,l),
(1190.26,487.678,o),
(1155.14,487.678,qs),
(1117.94,487.678,o),
(1084.88,450.482,q)
);
}
);
width = 1492;
}
);
unicode = 4620;
},
{
glyphname = uni120D;
layers = (
{
layerId = "FD843F08-4597-4AFB-9C66-7B47690262C1";
shapes = (
{
closed = 1;
nodes = (
(454.615,483.545,l),
(467.014,495.944,o),
(508.342,508.342,o),
(524.874,508.342,qs),
(547.604,508.342,o),
(613.73,506.276,o),
(648.86,506.276,qs),
(692.255,506.276,o),
(766.646,514.542,o),
(779.045,531.073,q),
(779.045,243.839,ls),
(779.045,163.248,o),
(752.181,66.126,o),
(688.122,14.465,o),
(582.734,0,o),
(506.276,0,qs),
(144.65,0,l),
(144.65,43.395,l),
(185.979,43.395,l),
(185.979,1229.53,ls),
(185.979,1243.99,o),
(167.381,1283.25,o),
(136.385,1283.25,qs),
(82.657,1283.25,l),
(82.657,1336.98,l),
(454.615,1336.98,l),
(454.615,721.185,l),
(469.08,758.381,o),
(543.472,818.307,o),
(636.461,861.702,o),
(733.583,884.433,o),
(770.779,884.433,qs),
(878.234,884.433,o),
(1004.29,903.031,o),
(1076.61,927.828,o),
(1117.94,946.426,o),
(1142.74,946.426,q),
(1142.74,43.395,l),
(1246.06,43.395,l),
(1246.06,0,l),
(770.779,0,l),
(770.779,43.395,l),
(874.101,43.395,l),
(874.101,820.374,l),
(816.241,843.104,o),
(770.779,843.104,qs),
(708.786,843.104,o),
(599.265,795.576,o),
(514.542,729.45,o),
(460.814,661.258,o),
(454.615,640.594,q)
);
},
{
closed = 1;
nodes = (
(454.615,76.458,ls),
(454.615,47.528,o),
(477.346,16.532,o),
(510.409,16.532,qs),
(545.538,16.532,o),
(588.933,33.063,o),
(595.132,70.259,q),
(595.132,446.349,l),
(584.8,464.947,o),
(541.405,481.479,o),
(524.874,481.479,qs),
(487.678,481.479,o),
(454.615,444.283,q)
);
}
);
width = 1329;
}
);
unicode = 4621;
},
{
glyphname = uni120E;
layers = (
{
layerId = "FD843F08-4597-4AFB-9C66-7B47690262C1";
shapes = (
{
closed = 1;
nodes = (
(1157.2,613.73,l),
(1084.88,613.73,l),
(1084.88,43.395,l),
(1188.2,43.395,l),
(1188.2,0,l),
(712.919,0,l),
(712.919,43.395,l),
(816.241,43.395,l),
(816.241,820.374,l),
(758.381,843.104,o),
(712.919,843.104,qs),
(650.926,843.104,o),
(560.003,795.576,o),
(498.01,729.45,o),
(460.814,661.258,o),
(454.615,640.594,q),
(454.615,43.395,l),
(557.937,43.395,l),
(557.937,0,l),
(82.657,0,l),
(82.657,43.395,l),
(185.979,43.395,l),
(185.979,1229.53,ls),
(185.979,1243.99,o),
(167.381,1283.25,o),
(136.385,1283.25,qs),
(82.657,1283.25,l),
(82.657,1336.98,l),
(454.615,1336.98,l),
(454.615,721.185,l),
(469.08,758.381,o),
(524.874,818.307,o),
(595.132,861.702,o),
(675.723,884.433,o),
(712.919,884.433,qs),
(820.374,884.433,o),
(946.426,903.031,o),
(1018.75,927.828,o),
(1060.08,946.426,o),
(1084.88,946.426,q),
(1084.88,646.793,l),
(1390.71,646.793,ls),
(1452.7,646.793,o),
(1549.82,652.993,o),
(1582.89,669.524,q),
(1582.89,458.748,ls),
(1582.89,392.622,o),
(1562.22,312.031,o),
(1510.56,268.636,o),
(1425.84,256.238,o),
(1363.85,256.238,qs),
(1297.72,256.238,o),
(1215.06,266.57,o),
(1171.67,299.633,o),
(1157.2,361.626,o),
(1157.2,413.286,qs)
);
},
{
closed = 1;
nodes = (
(1320.45,318.231,l),
(1326.65,295.5,o),
(1355.58,278.968,o),
(1374.18,278.968,qs),
(1390.71,278.968,o),
(1417.57,293.433,o),
(1421.71,316.164,q),
(1421.71,599.265,l),
(1409.31,628.195,o),
(1374.18,628.195,qs),
(1361.78,628.195,o),
(1334.92,611.664,o),
(1320.45,599.265,q)
);
}
);
width = 1666;
}
);
unicode = 4622;
},
{
glyphname = uni120F;
layers = (
{
layerId = "FD843F08-4597-4AFB-9C66-7B47690262C1";
shapes = (
{
closed = 1;
nodes = (
(570.335,-66.126,l),
(570.335,138.451,l),
(816.241,138.451,l),
(816.241,820.374,l),
(758.381,843.104,o),
(712.919,843.104,qs),
(650.926,843.104,o),
(560.003,795.576,o),
(498.01,729.45,o),
(460.814,661.258,o),
(454.615,640.594,q),
(454.615,297.566,l),
(557.937,297.566,l),
(557.937,256.238,l),
(82.657,256.238,l),
(82.657,297.566,l),
(185.979,297.566,l),
(185.979,1229.53,ls),
(185.979,1243.99,o),
(167.381,1283.25,o),
(136.385,1283.25,qs),
(82.657,1283.25,l),
(82.657,1336.98,l),
(454.615,1336.98,l),
(454.615,721.185,l),
(469.08,758.381,o),
(524.874,818.307,o),
(595.132,861.702,o),
(675.723,884.433,o),
(712.919,884.433,qs),
(820.374,884.433,o),
(946.426,903.031,o),
(1018.75,927.828,o),
(1060.08,946.426,o),
(1084.88,946.426,q),
(1084.88,138.451,l),
(1345.25,138.451,l),
(1345.25,-66.126,l),
(1252.26,-66.126,l),
(1252.26,-47.528,o),
(1241.93,8.266,o),
(1208.86,59.926,o),
(1146.87,95.056,o),
(1095.21,95.056,qs),
(820.374,95.056,ls),
(770.779,95.056,o),
(708.786,59.926,o),
(673.657,8.266,o),
(663.325,-47.528,o),
(663.325,-66.126,q)
);
}
);
width = 1428;
}
);
unicode = 4623;
},
{
glyphname = uni1210;
layers = (
{
layerId = "FD843F08-4597-4AFB-9C66-7B47690262C1";
shapes = (
{
closed = 1;
nodes = (
(647,43,l),
(705,43,l),
(705,752,l),
(568,752,o),
(463,684,o),
(455,632,q),
(455,43,l),
(512,43,l),
(512,0,l),
(83,0,l),
(83,43,l),
(186,43,l),
(186,395,ls),
(186,556,o),
(374,775,o),
(570,798,q),
(705,798,l),
(705,1211,ls),
(705,1252,o),
(686,1283,o),
(653,1283,qs),
(599,1283,l),
(599,1337,l),
(973,1337,l),
(973,796,l),
(1174,796,o),
(1436,812,o),
(1490,860,q),
(1490,43,l),
(1593,43,l),
(1593,0,l),
(1163,0,l),
(1163,43,l),
(1221,43,l),
(1221,655,l),
(1217,674,o),
(1194,711,o),
(1141,738,o),
(1048,754,o),
(973,754,q),
(973,43,l),
(1031,43,l),
(1031,0,l),
(647,0,l)
);
}
);
width = 1676;
}
);
unicode = 4624;
},
{
glyphname = uni1211;
layers = (
{
layerId = "FD843F08-4597-4AFB-9C66-7B47690262C1";
shapes = (
{
closed = 1;
nodes = (
(1729.6,326.496,l),
(1677.94,326.496,l),
(1677.94,367.825,o),
(1649.01,431.884,o),
(1597.35,431.884,qs),
(1489.9,431.884,l),
(1489.9,43.395,l),
(1593.22,43.395,l),
(1593.22,0,l),
(1163.4,0,l),
(1163.4,43.395,l),
(1221.26,43.395,l),
(1221.26,655.059,l),
(1217.13,673.657,o),
(1194.4,710.853,o),
(1140.67,737.716,o),
(1047.68,754.248,o),
(973.289,754.248,q),
(973.289,43.395,l),
(1031.15,43.395,l),
(1031.15,0,l),
(646.793,0,l),
(646.793,43.395,l),
(704.653,43.395,l),
(704.653,752.181,l),
(568.269,752.181,o),
(462.881,683.989,o),
(454.615,632.328,q),
(454.615,43.395,l),
(512.475,43.395,l),
(512.475,0,l),
(82.657,0,l),
(82.657,43.395,l),
(185.979,43.395,l),
(185.979,394.689,ls),
(185.979,555.87,o),
(374.024,774.912,o),
(570.335,797.643,q),
(704.653,797.643,l),
(704.653,1210.93,ls),
(704.653,1252.26,o),
(686.055,1283.25,o),
(652.993,1283.25,qs),
(599.265,1283.25,l),
(599.265,1336.98,l),
(973.289,1336.98,l),
(973.289,795.576,l),
(1173.73,795.576,o),
(1436.17,812.108,o),
(1489.9,859.636,q),
(1489.9,591,l),
(1729.6,591,l)
);
}
);
width = 1812;
}
);
unicode = 4625;
},
{
glyphname = uni1212;
layers = (
{
layerId = "FD843F08-4597-4AFB-9C66-7B47690262C1";
shapes = (
{
closed = 1;
nodes = (
(1489.9,53.727,l),
(1553.96,53.727,ls),
(1599.42,53.727,o),
(1663.48,161.182,o),
(1675.88,266.57,q),
(1727.54,266.57,l),
(1727.54,0,l),
(1179.93,0,l),
(1179.93,53.727,l),
(1221.26,53.727,l),
(1221.26,655.059,l),
(1217.13,673.657,o),
(1194.4,710.853,o),
(1140.67,737.716,o),
(1047.68,754.248,o),
(973.289,754.248,q),
(973.289,43.395,l),
(1031.15,43.395,l),
(1031.15,0,l),
(646.793,0,l),
(646.793,43.395,l),
(704.653,43.395,l),
(704.653,752.181,l),
(568.269,752.181,o),
(462.881,683.989,o),
(454.615,632.328,q),
(454.615,43.395,l),
(512.475,43.395,l),
(512.475,0,l),
(82.657,0,l),
(82.657,43.395,l),
(185.979,43.395,l),
(185.979,394.689,ls),
(185.979,555.87,o),
(374.024,774.912,o),
(570.335,797.643,q),
(704.653,797.643,l),
(704.653,1210.93,ls),
(704.653,1252.26,o),
(686.055,1283.25,o),
(652.993,1283.25,qs),
(599.265,1283.25,l),
(599.265,1336.98,l),
(973.289,1336.98,l),
(973.289,795.576,l),
(1173.73,795.576,o),
(1436.17,812.108,o),
(1489.9,859.636,q)
);
}
);
width = 1810;
}
);
unicode = 4626;
},
{
glyphname = uni1213;
layers = (
{
layerId = "FD843F08-4597-4AFB-9C66-7B47690262C1";
shapes = (
{
closed = 1;
nodes = (
(617.863,241.773,l),
(675.723,241.773,l),
(675.723,752.181,l),
(539.339,752.181,o),
(433.951,683.989,o),
(425.685,632.328,q),
(425.685,241.773,l),
(483.545,241.773,l),
(483.545,200.444,l),
(82.657,200.444,l),
(82.657,241.773,l),
(157.049,241.773,l),
(157.049,394.689,ls),
(157.049,555.87,o),
(345.094,774.912,o),
(541.405,797.643,q),
(675.723,797.643,l),
(675.723,1210.93,ls),
(675.723,1252.26,o),
(657.125,1283.25,o),
(624.062,1283.25,qs),
(570.335,1283.25,l),
(570.335,1336.98,l),
(944.359,1336.98,l),
(944.359,795.576,l),
(1144.8,795.576,o),
(1407.24,812.108,o),
(1460.97,859.636,q),
(1460.97,43.395,l),
(1564.29,43.395,l),
(1564.29,0,l),
(1134.47,0,l),
(1134.47,43.395,l),
(1192.33,43.395,l),
(1192.33,655.059,l),
(1188.2,673.657,o),
(1165.47,710.853,o),
(1111.74,737.716,o),
(1018.75,754.248,o),
(944.359,754.248,q),
(944.359,241.773,l),
(1002.22,241.773,l),
(1002.22,200.444,l),
(617.863,200.444,l)
);
}
);
width = 1647;
}
);
unicode = 4627;
},
{
glyphname = uni1214;
layers = (
{
layerId = "FD843F08-4597-4AFB-9C66-7B47690262C1";
shapes = (
{
closed = 1;
nodes = (
(1179.93,43.395,l),
(1221.26,43.395,l),
(1221.26,655.059,l),
(1217.13,673.657,o),
(1194.4,710.853,o),
(1140.67,737.716,o),
(1047.68,754.248,o),
(973.289,754.248,q),
(973.289,43.395,l),
(1031.15,43.395,l),
(1031.15,0,l),
(646.793,0,l),
(646.793,43.395,l),
(704.653,43.395,l),
(704.653,752.181,l),
(568.269,752.181,o),
(462.881,683.989,o),
(454.615,632.328,q),
(454.615,43.395,l),
(512.475,43.395,l),
(512.475,0,l),
(82.657,0,l),
(82.657,43.395,l),
(185.979,43.395,l),
(185.979,394.689,ls),
(185.979,555.87,o),
(374.024,774.912,o),
(570.335,797.643,q),
(704.653,797.643,l),
(704.653,1210.93,ls),
(704.653,1252.26,o),
(686.055,1283.25,o),
(652.993,1283.25,qs),
(599.265,1283.25,l),
(599.265,1336.98,l),
(973.289,1336.98,l),
(973.289,795.576,l),
(1173.73,795.576,o),
(1436.17,812.108,o),
(1489.9,859.636,q),
(1489.9,409.154,l),
(1502.3,421.552,o),
(1543.62,436.017,o),
(1560.16,436.017,qs),
(1584.95,436.017,o),
(1618.02,429.818,o),
(1646.95,423.619,o),
(1675.88,419.486,o),
(1694.47,419.486,qs),
(1715.14,419.486,o),
(1785.4,429.818,o),
(1814.33,438.084,q),
(1814.33,212.842,ls),
(1814.33,134.318,o),
(1787.46,49.594,o),
(1723.4,8.266,o),
(1618.02,0,o),
(1541.56,0,qs),
(1179.93,0,l)
);
},
{
closed = 1;
nodes = (
(1489.9,76.458,ls),
(1489.9,47.528,o),
(1512.63,16.532,o),
(1545.69,16.532,qs),
(1580.82,16.532,o),
(1607.68,33.063,o),
(1613.88,70.259,q),
(1613.88,380.223,l),
(1595.29,415.353,o),
(1560.16,415.353,qs),
(1522.96,415.353,o),
(1489.9,378.157,q)
);
}
);
width = 1897;
}
);
unicode = 4628;
},
{
glyphname = uni1215;
layers = (
{
layerId = "FD843F08-4597-4AFB-9C66-7B47690262C1";
shapes = (
{
closed = 1;
nodes = (
(646.793,43.395,l),
(704.653,43.395,l),
(704.653,752.181,l),
(568.269,752.181,o),
(462.881,683.989,o),
(454.615,632.328,q),
(454.615,43.395,l),
(512.475,43.395,l),
(512.475,0,l),
(82.657,0,l),
(82.657,43.395,l),
(185.979,43.395,l),
(185.979,394.689,ls),
(185.979,555.87,o),
(374.024,774.912,o),
(570.335,797.643,q),
(704.653,797.643,l),
(704.653,1122.07,l),
(446.349,1122.07,l),
(446.349,1440.3,l),
(498.01,1440.3,l),
(498.01,1384.51,o),
(547.604,1287.39,o),
(615.797,1217.13,o),
(686.055,1175.8,o),
(706.72,1175.8,q),
(921.629,1283.25,l),
(956.758,1283.25,o),
(973.289,1233.66,o),
(973.289,1182,qs),
(973.289,795.576,l),
(1173.73,795.576,o),
(1436.17,812.108,o),
(1489.9,859.636,q),
(1489.9,43.395,l),
(1593.22,43.395,l),
(1593.22,0,l),
(1163.4,0,l),
(1163.4,43.395,l),
(1221.26,43.395,l),
(1221.26,655.059,l),
(1217.13,673.657,o),
(1194.4,710.853,o),
(1140.67,737.716,o),
(1047.68,754.248,o),
(973.289,754.248,q),
(973.289,43.395,l),
(1031.15,43.395,l),
(1031.15,0,l),
(646.793,0,l)
);
}
);
width = 1676;
}
);
unicode = 4629;
},
{
glyphname = uni1216;
layers = (
{
layerId = "FD843F08-4597-4AFB-9C66-7B47690262C1";
shapes = (
{
closed = 1;
nodes = (
(646.793,297.566,l),
(704.653,297.566,l),
(704.653,752.181,l),
(568.269,752.181,o),
(462.881,683.989,o),
(454.615,632.328,q),
(454.615,43.395,l),
(512.475,43.395,l),
(512.475,0,l),
(82.657,0,l),
(82.657,43.395,l),
(185.979,43.395,l),
(185.979,394.689,ls),
(185.979,555.87,o),
(374.024,774.912,o),
(570.335,797.643,q),
(704.653,797.643,l),
(704.653,1210.93,ls),
(704.653,1252.26,o),
(686.055,1283.25,o),
(652.993,1283.25,qs),
(599.265,1283.25,l),
(599.265,1336.98,l),
(973.289,1336.98,l),
(973.289,795.576,l),
(1173.73,795.576,o),
(1436.17,812.108,o),
(1489.9,859.636,q),
(1489.9,297.566,l),
(1593.22,297.566,l),
(1593.22,256.238,l),
(1163.4,256.238,l),
(1163.4,297.566,l),
(1221.26,297.566,l),
(1221.26,655.059,l),
(1217.13,673.657,o),
(1194.4,710.853,o),
(1140.67,737.716,o),
(1047.68,754.248,o),
(973.289,754.248,q),
(973.289,297.566,l),
(1031.15,297.566,l),
(1031.15,256.238,l),
(646.793,256.238,l)
);
}
);
width = 1676;
}
);
unicode = 4630;
},
{
glyphname = uni1217;
layers = (
{
layerId = "FD843F08-4597-4AFB-9C66-7B47690262C1";
shapes = (
{
closed = 1;
nodes = (
(991.887,-66.126,l),
(991.887,138.451,l),
(1192.33,138.451,l),
(1192.33,655.059,l),
(1188.2,673.657,o),
(1165.47,710.853,o),
(1111.74,737.716,o),
(1018.75,754.248,o),
(944.359,754.248,q),
(944.359,241.773,l),
(1002.22,241.773,l),
(1002.22,200.444,l),
(617.863,200.444,l),
(617.863,241.773,l),
(675.723,241.773,l),
(675.723,752.181,l),
(539.339,752.181,o),
(433.951,683.989,o),
(425.685,632.328,q),
(425.685,241.773,l),
(483.545,241.773,l),
(483.545,200.444,l),
(82.657,200.444,l),
(82.657,241.773,l),
(157.049,241.773,l),
(157.049,394.689,ls),
(157.049,555.87,o),
(345.094,774.912,o),
(541.405,797.643,q),
(675.723,797.643,l),
(675.723,1210.93,ls),
(675.723,1252.26,o),
(657.125,1283.25,o),
(624.062,1283.25,qs),
(570.335,1283.25,l),
(570.335,1336.98,l),
(944.359,1336.98,l),
(944.359,795.576,l),
(1144.8,795.576,o),
(1407.24,812.108,o),
(1460.97,859.636,q),
(1460.97,138.451,l),
(1667.61,138.451,l),
(1667.61,-66.126,l),
(1597.35,-66.126,l),
(1597.35,-47.528,o),
(1584.95,8.266,o),
(1553.96,59.926,o),
(1500.23,95.056,o),
(1460.97,95.056,qs),
(1190.26,95.056,ls),
(1151,95.056,o),
(1101.41,59.926,o),
(1072.48,8.266,o),
(1062.15,-47.528,o),
(1062.15,-66.126,q)
);
}
);
width = 1751;
}
);
unicode = 4631;
},
{
glyphname = uni1218;
layers = (
{
layerId = "FD843F08-4597-4AFB-9C66-7B47690262C1";
shapes = (
{
closed = 1;
nodes = (
(143,-79,l),
(196,-39,o),
(372,2,o),
(527,2,qs),
(581,2,o),
(717,12,o),
(837,68,o),
(920,186,o),
(920,291,qs),
(920,789,ls),
(920,862,o),
(990,957,o),
(1035,957,qs),
(1062,957,o),
(1108,938,o),
(1137,882,o),
(1153,779,o),
(1153,696,qs),
(1153,293,ls),
(1153,174,o),
(1347,37,o),
(1535,37,qs),
(1647,37,o),
(1798,72,o),
(1889,138,o),
(1928,234,o),
(1928,293,qs),
(1928,1114,l),
(1903,1091,o),
(1740,1066,o),
(1517,1054,o),
(1265,1052,o),
(1153,1052,qs),
(1124,1052,o),
(1052,1033,o),
(986,998,o),
(932,951,o),
(920,920,q),
(874,988,o),
(754,1052,o),
(649,1052,qs),
(612,1052,o),
(537,1031,o),
(471,994,o),
(424,940,o),
(413,907,q),
(413,959,o),
(399,1017,o),
(380,1046,o),
(364,1052,o),
(362,1052,q),
(83,977,l),
(122,961,o),
(143,907,o),
(143,849,qs)
);
},
{
closed = 1;
nodes = (
(1424,901,l),
(1438,955,o),
(1486,994,o),
(1539,994,qs),
(1597,994,o),
(1647,961,o),
(1659,903,q),
(1659,163,l),
(1653,124,o),
(1604,83,o),
(1531,83,qs),
(1469,83,o),
(1432,128,o),
(1424,161,q)
);
},
{
closed = 1;
nodes = (
(471,45,o),
(419,95,o),
(413,136,q),
(413,820,l),
(415,847,o),
(446,903,o),
(494,951,o),
(552,982,o),
(581,982,qs),
(614,982,o),
(643,965,o),
(649,944,q),
(649,136,l),
(645,95,o),
(566,45,o),
(531,45,qs)
);
}
);
width = 2011;
}
);
unicode = 4632;
},
{
glyphname = uni1219;
layers = (
{
layerId = "FD843F08-4597-4AFB-9C66-7B47690262C1";
shapes = (
{
closed = 1;
nodes = (
(2149.09,475.279,l),
(2097.43,475.279,l),
(2097.43,516.608,o),
(2068.5,580.667,o),
(2016.84,580.667,qs),
(1927.98,580.667,l),
(1927.98,291.367,ls),
(1927.98,231.44,o),
(1888.72,134.318,o),
(1797.8,68.192,o),
(1646.95,33.063,o),
(1535.36,33.063,qs),
(1347.31,33.063,o),
(1153.07,171.514,o),
(1153.07,291.367,qs),
(1153.07,694.321,ls),
(1153.07,776.978,o),
(1136.54,880.3,o),
(1107.61,936.094,o),
(1062.15,954.692,o),
(1035.28,954.692,qs),
(989.821,954.692,o),
(919.562,859.636,o),
(919.562,787.311,qs),
(919.562,272.769,ls),
(919.562,171.514,o),
(836.905,61.993,o),
(717.052,12.399,o),
(580.667,4.133,o),
(526.94,4.133,qs),
(371.958,4.133,o),
(190.112,-30.997,o),
(142.584,-92.989,q),
(142.584,847.237,ls),
(142.584,905.097,o),
(121.919,958.824,o),
(82.657,975.356,q),
(361.626,1049.75,l),
(363.692,1049.75,o),
(380.223,1043.55,o),
(398.821,1014.62,o),
(413.286,956.758,o),
(413.286,905.097,q),
(423.619,938.16,o),
(471.146,991.887,o),
(537.272,1029.08,o),
(611.664,1049.75,o),
(648.86,1049.75,qs),
(754.248,1049.75,o),
(874.101,985.688,o),
(919.562,917.496,q),
(931.961,948.492,o),
(985.688,996.02,o),
(1051.81,1031.15,o),
(1124.14,1049.75,o),
(1153.07,1049.75,qs),
(1264.66,1049.75,o),
(1516.76,1053.88,o),
(1739.94,1068.35,o),
(1903.18,1099.34,o),
(1927.98,1126.21,q),
(1927.98,739.783,l),
(2149.09,739.783,l)
);
},
{
closed = 1;
nodes = (
(566.202,47.528,o),
(644.727,97.122,o),
(648.86,138.451,q),
(648.86,942.293,l),
(642.66,962.957,o),
(613.73,979.489,o),
(580.667,979.489,qs),
(551.737,979.489,o),
(493.877,948.492,o),
(446.349,900.964,o),
(415.353,845.171,o),
(413.286,818.307,q),
(413.286,138.451,l),
(419.486,97.122,o),
(471.146,47.528,o),
(531.073,47.528,qs)
);
},
{
closed = 1;
nodes = (
(1423.77,159.115,l),
(1432.04,126.052,o),
(1469.23,80.591,o),
(1531.23,80.591,qs),
(1603.55,80.591,o),
(1653.15,121.919,o),
(1659.34,161.182,q),
(1659.34,900.964,l),
(1646.95,958.824,o),
(1597.35,991.887,o),
(1539.49,991.887,qs),
(1485.76,991.887,o),
(1438.24,952.625,o),
(1423.77,898.898,q)
);
}
);
width = 2232;
}
);
unicode = 4633;
},
{
glyphname = uni121A;
layers = (
{
layerId = "FD843F08-4597-4AFB-9C66-7B47690262C1";
shapes = (
{
closed = 1;
nodes = (
(1927.98,43.395,l),
(1992.04,43.395,ls),
(2037.5,43.395,o),
(2101.56,150.85,o),
(2113.96,256.238,q),
(2165.62,256.238,l),
(2165.62,0,l),
(1618.02,0,l),
(1618.02,43.395,l),
(1657.28,43.395,l),
(1657.28,549.671,l),
(1638.68,535.206,o),
(1562.22,518.674,o),
(1529.16,518.674,qs),
(1415.51,518.674,o),
(1268.79,551.737,o),
(1186.13,613.73,o),
(1153.07,706.72,o),
(1153.07,766.646,qs),
(1153.07,950.559,ls),
(1153.07,1035.28,o),
(1136.54,1138.6,o),
(1107.61,1194.4,o),
(1062.15,1213,o),
(1035.28,1213,qs),
(989.821,1213,o),
(919.562,1117.94,o),
(919.562,1045.61,qs),
(919.562,791.443,ls),
(919.562,686.055,o),
(836.905,568.269,o),
(717.052,514.542,o),
(580.667,504.209,o),
(526.94,504.209,qs),
(371.958,504.209,o),
(196.311,475.279,o),
(142.584,421.552,q),
(142.584,1105.54,ls),
(142.584,1163.4,o),
(121.919,1217.13,o),
(82.657,1231.59,q),
(361.626,1305.99,l),
(363.692,1305.99,o),
(380.223,1299.79,o),
(398.821,1270.86,o),
(413.286,1213,o),
(413.286,1161.33,q),
(423.619,1196.46,o),
(471.146,1250.19,o),
(537.272,1287.39,o),
(611.664,1305.99,o),
(648.86,1305.99,qs),
(754.248,1305.99,o),
(874.101,1243.99,o),
(919.562,1175.8,q),
(931.961,1206.8,o),
(985.688,1254.32,o),
(1051.81,1287.39,o),
(1124.14,1305.99,o),
(1153.07,1305.99,qs),
(1264.66,1305.99,o),
(1516.76,1308.05,o),
(1739.94,1320.45,o),
(1903.18,1345.25,o),
(1927.98,1367.98,q)
);
},
{
closed = 1;
nodes = (
(566.202,547.604,o),
(644.727,597.199,o),
(648.86,638.527,q),
(648.86,1200.6,l),
(642.66,1219.19,o),
(613.73,1235.73,o),
(580.667,1235.73,qs),
(551.737,1235.73,o),
(493.877,1204.73,o),
(446.349,1157.2,o),
(415.353,1101.41,o),
(413.286,1074.54,q),
(413.286,638.527,l),
(419.486,597.199,o),
(471.146,547.604,o),
(531.073,547.604,qs)
);
},
{
closed = 1;
nodes = (
(1423.77,655.059,l),
(1432.04,621.996,o),
(1467.17,570.335,o),
(1529.16,570.335,qs),
(1601.48,570.335,o),
(1659.34,611.664,o),
(1659.34,644.727,qs),
(1659.34,1157.2,l),
(1646.95,1215.06,o),
(1597.35,1250.19,o),
(1539.49,1250.19,qs),
(1485.76,1250.19,o),
(1438.24,1208.86,o),
(1423.77,1155.14,q)
);
}
);
width = 2248;
}
);
unicode = 4634;
},
{
glyphname = uni121B;
layers = (
{
layerId = "FD843F08-4597-4AFB-9C66-7B47690262C1";
shapes = (
{
closed = 1;
nodes = (
(1553.96,43.395,l),
(1657.28,43.395,l),
(1657.28,549.671,l),
(1638.68,535.206,o),
(1562.22,518.674,o),
(1529.16,518.674,qs),
(1405.17,518.674,o),
(1256.39,551.737,o),
(1177.87,613.73,o),
(1153.07,706.72,o),
(1153.07,766.646,qs),
(1153.07,950.559,ls),
(1153.07,1035.28,o),
(1136.54,1138.6,o),
(1107.61,1194.4,o),
(1062.15,1213,o),
(1035.28,1213,qs),
(989.821,1213,o),
(919.562,1117.94,o),
(919.562,1045.61,qs),
(919.562,791.443,ls),
(919.562,686.055,o),
(836.905,566.202,o),
(717.052,508.342,o),
(580.667,495.944,o),
(526.94,495.944,qs),
(448.416,495.944,o),
(330.629,493.877,o),
(237.64,479.412,o),
(169.447,452.549,o),
(142.584,427.751,q),
(142.584,1105.54,ls),
(142.584,1163.4,o),
(121.919,1217.13,o),
(82.657,1231.59,q),
(361.626,1305.99,l),
(363.692,1305.99,o),
(380.223,1299.79,o),
(398.821,1270.86,o),
(413.286,1213,o),
(413.286,1161.33,q),
(423.619,1196.46,o),
(471.146,1250.19,o),
(537.272,1287.39,o),
(611.664,1305.99,o),
(648.86,1305.99,qs),
(754.248,1305.99,o),
(874.101,1243.99,o),
(919.562,1175.8,q),
(931.961,1206.8,o),
(985.688,1254.32,o),
(1051.81,1287.39,o),
(1124.14,1305.99,o),
(1153.07,1305.99,qs),
(1264.66,1305.99,o),
(1516.76,1308.05,o),
(1739.94,1320.45,o),
(1903.18,1345.25,o),
(1927.98,1367.98,q),
(1927.98,43.395,l),
(2031.3,43.395,l),
(2031.3,0,l),
(1553.96,0,l)
);
},
{
closed = 1;
nodes = (
(566.202,539.339,o),
(644.727,588.933,o),
(648.86,630.262,q),
(648.86,1200.6,l),
(642.66,1219.19,o),
(613.73,1235.73,o),
(580.667,1235.73,qs),
(551.737,1235.73,o),
(493.877,1204.73,o),
(446.349,1157.2,o),
(415.353,1101.41,o),
(413.286,1074.54,q),
(413.286,630.262,l),
(419.486,588.933,o),
(471.146,539.339,o),
(531.073,539.339,qs)
);
},
{
closed = 1;
nodes = (
(1423.77,655.059,l),
(1432.04,621.996,o),
(1467.17,570.335,o),
(1529.16,570.335,qs),
(1601.48,570.335,o),
(1659.34,611.664,o),
(1659.34,644.727,qs),
(1659.34,1157.2,l),
(1646.95,1215.06,o),
(1597.35,1250.19,o),
(1539.49,1250.19,qs),
(1485.76,1250.19,o),
(1438.24,1208.86,o),
(1423.77,1155.14,q)
);
}
);
width = 2114;
}
);
unicode = 4635;
},
{
glyphname = uni121C;
layers = (
{
layerId = "FD843F08-4597-4AFB-9C66-7B47690262C1";
shapes = (
{
closed = 1;
nodes = (
(1927.98,462.881,l),
(1940.38,475.279,o),
(1981.71,487.678,o),
(1998.24,487.678,qs),
(2035.44,487.678,o),
(2089.16,471.146,o),
(2128.42,471.146,qs),
(2153.22,471.146,o),
(2223.48,481.479,o),
(2252.41,498.01,q),
(2252.41,243.839,ls),
(2252.41,163.248,o),
(2225.55,66.126,o),
(2163.55,14.465,o),
(2060.23,0,o),
(1983.77,0,qs),
(1615.95,0,l),
(1615.95,43.395,l),
(1657.28,43.395,l),
(1657.28,549.671,l),
(1638.68,535.206,o),
(1562.22,518.674,o),
(1529.16,518.674,qs),
(1403.11,518.674,o),
(1254.32,551.737,o),
(1175.8,613.73,o),
(1153.07,706.72,o),
(1153.07,766.646,qs),
(1153.07,952.625,ls),
(1153.07,1037.35,o),
(1136.54,1140.67,o),
(1107.61,1196.46,o),
(1062.15,1215.06,o),
(1035.28,1215.06,qs),
(989.821,1215.06,o),
(919.562,1120.01,o),
(919.562,1047.68,qs),
(919.562,791.443,ls),
(919.562,686.055,o),
(836.905,566.202,o),
(717.052,510.409,o),
(580.667,498.01,o),
(526.94,498.01,qs),
(448.416,498.01,o),
(328.563,493.877,o),
(237.64,477.346,o),
(169.447,446.349,o),
(142.584,419.486,q),
(142.584,1107.61,ls),
(142.584,1165.47,o),
(121.919,1219.19,o),
(82.657,1233.66,q),
(361.626,1308.05,l),
(363.692,1308.05,o),
(380.223,1301.85,o),
(398.821,1272.92,o),
(413.286,1215.06,o),
(413.286,1163.4,q),
(423.619,1198.53,o),
(471.146,1252.26,o),
(537.272,1289.45,o),
(611.664,1308.05,o),
(648.86,1308.05,qs),
(754.248,1308.05,o),
(874.101,1246.06,o),
(919.562,1177.87,q),
(931.961,1208.86,o),
(985.688,1256.39,o),
(1051.81,1289.45,o),
(1124.14,1308.05,o),
(1153.07,1308.05,qs),
(1264.66,1308.05,o),
(1516.76,1310.12,o),
(1739.94,1322.52,o),
(1903.18,1347.31,o),
(1927.98,1370.04,q)
);
},
{
closed = 1;
nodes = (
(566.202,541.405,o),
(644.727,591,o),
(648.86,632.328,q),
(648.86,1202.66,l),
(642.66,1221.26,o),
(613.73,1237.79,o),
(580.667,1237.79,qs),
(551.737,1237.79,o),
(493.877,1206.8,o),
(446.349,1159.27,o),
(415.353,1103.47,o),
(413.286,1076.61,q),
(413.286,632.328,l),
(419.486,591,o),
(471.146,541.405,o),
(531.073,541.405,qs)
);
},
{
closed = 1;
nodes = (
(1423.77,655.059,l),
(1432.04,621.996,o),
(1467.17,570.335,o),
(1529.16,570.335,qs),
(1601.48,570.335,o),
(1659.34,611.664,o),
(1659.34,644.727,qs),
(1659.34,1159.27,l),
(1646.95,1217.13,o),
(1597.35,1252.26,o),
(1539.49,1252.26,qs),
(1485.76,1252.26,o),
(1438.24,1210.93,o),
(1423.77,1157.2,q)
);
},
{
closed = 1;
nodes = (
(1927.98,86.79,ls),
(1927.98,57.86,o),
(1950.71,26.864,o),
(1983.77,26.864,qs),
(2018.9,26.864,o),
(2045.77,43.395,o),
(2051.97,80.591,q),
(2051.97,423.619,l),
(2033.37,456.681,o),
(1998.24,456.681,qs),
(1963.11,456.681,o),
(1927.98,421.552,q)
);
}
);
width = 2335;
}
);
unicode = 4636;
},
{
glyphname = uni121D;
layers = (
{
layerId = "FD843F08-4597-4AFB-9C66-7B47690262C1";
shapes = (
{
closed = 1;
nodes = (
(454.615,24.797,l),
(557.937,24.797,l),
(557.937,-26.864,l),
(82.657,-26.864,l),
(82.657,24.797,l),
(185.979,24.797,l),
(185.979,262.437,ls),
(185.979,340.961,o),
(281.035,411.22,o),
(340.961,411.22,qs),
(411.22,411.22,o),
(526.94,446.349,o),
(615.797,502.143,o),
(673.657,574.468,o),
(683.989,611.664,q),
(661.258,586.867,o),
(586.867,578.601,o),
(562.07,578.601,qs),
(483.545,578.601,o),
(369.891,576.535,o),
(281.035,562.07,o),
(210.776,531.073,o),
(177.713,504.209,q),
(177.713,1107.61,ls),
(177.713,1165.47,o),
(157.049,1219.19,o),
(117.787,1233.66,q),
(396.755,1308.05,l),
(398.821,1308.05,o),
(415.353,1301.85,o),
(433.951,1272.92,o),
(448.416,1215.06,o),
(448.416,1163.4,q),
(458.748,1198.53,o),
(506.276,1252.26,o),
(572.402,1289.45,o),
(646.793,1308.05,o),
(683.989,1308.05,qs),
(789.377,1308.05,o),
(909.23,1246.06,o),
(954.692,1177.87,q),
(967.09,1208.86,o),
(1020.82,1256.39,o),
(1086.94,1289.45,o),
(1159.27,1308.05,o),
(1188.2,1308.05,qs),
(1299.79,1308.05,o),
(1551.89,1310.12,o),
(1775.07,1322.52,o),
(1938.31,1349.38,o),
(1963.11,1372.11,q),
(1963.11,764.58,ls),
(1963.11,702.587,o),
(1923.85,607.531,o),
(1832.93,541.405,o),
(1682.08,506.276,o),
(1570.49,506.276,qs),
(1382.44,506.276,o),
(1188.2,644.727,o),
(1188.2,764.58,qs),
(1188.2,952.625,ls),
(1188.2,1037.35,o),
(1171.67,1140.67,o),
(1142.74,1196.46,o),
(1097.28,1215.06,o),
(1070.41,1215.06,qs),
(1024.95,1215.06,o),
(954.692,1122.07,o),
(954.692,1047.68,qs),
(954.692,628.195,ls),
(954.692,498.01,o),
(797.643,369.891,o),
(615.797,365.758,q),
(593.066,365.758,o),
(537.272,355.426,o),
(487.678,326.496,o),
(454.615,276.902,o),
(454.615,237.64,qs)
);
},
{
closed = 1;
nodes = (
(1458.9,632.328,l),
(1467.17,597.199,o),
(1504.36,553.804,o),
(1566.36,553.804,qs),
(1638.68,553.804,o),
(1688.27,593.066,o),
(1694.47,634.395,q),
(1694.47,1159.27,l),
(1682.08,1217.13,o),
(1632.48,1252.26,o),
(1574.62,1252.26,qs),
(1520.89,1252.26,o),
(1473.37,1210.93,o),
(1458.9,1157.2,q)
);
},
{
closed = 1;
nodes = (
(601.332,621.996,o),
(679.856,655.059,o),
(683.989,696.388,q),
(683.989,1202.66,l),
(677.79,1221.26,o),
(648.86,1237.79,o),
(615.797,1237.79,qs),
(586.867,1237.79,o),
(529.007,1206.8,o),
(481.479,1159.27,o),
(450.482,1103.47,o),
(448.416,1076.61,q),
(448.416,712.919,l),
(454.615,671.59,o),
(506.276,621.996,o),
(566.202,621.996,qs)
);
}
);
width = 2046;
}
);
unicode = 4637;
},
